<?xml version="1.0" encoding="UTF-8" standalone="no"?>
<svg width="24px" height="24px" viewBox="0 0 24 24" version="1.1" xmlns="http://www.w3.org/2000/svg" xmlns:xlink="http://www.w3.org/1999/xlink">
    <!-- Generator: Sketch 42 (36781) - http://www.bohemiancoding.com/sketch -->
    <title>menu_atributs</title>
    <g >
        <path d="M5,19 L19,19 L19,5 L5,5 L5,19 Z M3,3.99339768 C3,3.44475929 3.44494629,3 3.99339768,3 L20.0066023,3 C20.5552407,3 21,3.44494629 21,3.99339768 L21,20.0066023 C21,20.5552407 20.5550537,21 20.0066023,21 L3.99339768,21 C3.44475929,21 3,20.5550537 3,20.0066023 L3,3.99339768 Z"/>
        <rect x="7" y="7" width="2" height="2" rx="1"/>
        <rect x="10" y="7" width="7" height="2" rx="1"/>
        <rect x="7" y="11" width="2" height="2" rx="1"/>
        <rect x="10" y="11" width="7" height="2" rx="1"/>
        <rect x="7" y="15" width="2" height="2" rx="1"/>
        <rect x="10" y="15" width="7" height="2" rx="1"/>
    </g>
</svg>
