<svg xmlns="http://www.w3.org/2000/svg" xmlns:xlink="http://www.w3.org/1999/xlink" width="24px" height="24px" viewBox="0 0 24 24" version="1.1">
    <title>menu_campaign</title>
    <g>
        <rect opacity="0" x="0" y="0" width="24" height="24"/>
        <path d="M5,9.52759168 L5,12.4724083 L12,14.3814992 L12,7.61850077 L5,9.52759168 Z M3,8.99077797 C3,8.44358641 3.43121304,7.88239644 3.95693506,7.73901771 L14,5 L14,17 L3,14 L3,8.99077797 Z"/>
        <path d="M14,17 L16,17 L16,5 L14,5 L14,17 Z M12,4.99406028 C12,3.8927712 12.8982606,3 13.9979131,3 L16.0020869,3 C17.1055038,3 18,3.89451376 18,4.99406028 L18,17.0059397 C18,18.1072288 17.1017394,19 16.0020869,19 L13.9979131,19 C12.8944962,19 12,18.1054862 12,17.0059397 L12,4.99406028 Z"/>
        <path d="M6.66006256,19.4520407 C6.65843763,19.4459763 6.65672232,19.4400967 6.65493544,19.4344039 L6.66006256,19.4520407 Z M6.98677463,19.3189968 L8.10792703,19.0185849 C8.24748549,18.9811904 8.35491449,18.9169988 8.41816544,18.85145 L7.53151458,16.026393 L5.66420733,16.026393 L6.62294,19.3243426 C6.71176097,19.3535295 6.84232857,19.357701 6.98677463,19.3189968 Z M9,14.026393 L10.3892416,18.4528102 C10.6688427,19.4962959 9.88342542,20.6133939 8.62556512,20.9504366 L7.50441272,21.2508485 C6.25075996,21.5867637 5.00740778,21.0116557 4.72821091,19.9696788 L3,14.026393 L9,14.026393 Z"/>
        <path d="M20,11 C20,10.4477153 20.4433532,10 21.0093689,10 L22.9906311,10 C23.5480902,10 24,10.4438648 24,11 C24,11.5522847 23.5566468,12 22.9906311,12 L21.0093689,12 C20.4519098,12 20,11.5561352 20,11 Z"/>
        <path d="M19.2679492,7 C18.9918068,6.52170738 19.1519043,5.91229801 19.6420883,5.62929015 L21.3579117,4.63865904 C21.8406854,4.35992952 22.4539832,4.51837281 22.7320508,5 C23.0081932,5.47829262 22.8480957,6.08770199 22.3579117,6.37070985 L20.6420883,7.36134096 C20.1593146,7.64007048 19.5460168,7.48162719 19.2679492,7 Z"/>
        <path d="M19.2679492,15 C19.5440916,14.5217074 20.1519043,14.3556512 20.6420883,14.638659 L22.3579117,15.6292901 C22.8406854,15.9080197 23.0101184,16.5183728 22.7320508,17 C22.4559084,17.4782926 21.8480957,17.6443488 21.3579117,17.361341 L19.6420883,16.3707099 C19.1593146,16.0919803 18.9898816,15.4816272 19.2679492,15 Z"/>
        <rect x="0" y="7" width="2" height="8" rx="1"/>
    </g>
</svg>
