<?xml version="1.0" encoding="UTF-8" standalone="no"?>
<svg width="24px" height="24px" viewBox="0 0 24 24" version="1.1" xmlns="http://www.w3.org/2000/svg" xmlns:xlink="http://www.w3.org/1999/xlink">
    <!-- Generator: Sketch 42 (36781) - http://www.bohemiancoding.com/sketch -->
    <title>menu_events</title>
    <g >
        <path d="M4,7 L11.007983,7 C10.9998829,7.00036057 11,3 11,3 L3.99201702,3 C4.00011711,2.99963943 4,7 4,7 Z M2,2.99810135 C2,1.89458045 2.90017617,1 3.99201702,1 L11.007983,1 C12.1081436,1 13,1.88670635 13,2.99810135 L13,7.00189865 C13,8.10541955 12.0998238,9 11.007983,9 L3.99201702,9 C2.8918564,9 2,8.11329365 2,7.00189865 L2,2.99810135 Z"/>
        <path d="M13,21 L20.007983,21 C19.9998829,21.0003606 20,17 20,17 L12.992017,17 C13.0001171,16.9996394 13,21 13,21 Z M11,16.9981014 C11,15.8945804 11.9001762,15 12.992017,15 L20.007983,15 C21.1081436,15 22,15.8867064 22,16.9981014 L22,21.0018986 C22,22.1054196 21.0998238,23 20.007983,23 L12.992017,23 C11.8918564,23 11,22.1132936 11,21.0018986 L11,16.9981014 Z" />
        <path d="M6.24264069,20 L2.99077797,20 C2.71758483,20 2.4702168,19.8893602 2.29098419,19.7093471 C2.11068651,19.5246817 2,19.2765382 2,19.0024554 L2,11.9975446 C2,11.7234334 2.10987876,11.4751447 2.28879477,11.2948392 C2.47633851,11.1115973 2.72395187,11 2.99180311,11 L20,11 L20,6 L16.0029293,6 C15.4490268,6 15,5.55613518 15,5 C15,4.44771525 15.4378814,4 16.0029293,4 L20.9970707,4 C21.2741026,4 21.5249003,4.11103083 21.7064073,4.29160698 C21.8880713,4.47254208 22,4.72192814 22,4.99754465 L22,12.0024554 C22,12.2765666 21.8901212,12.5248553 21.7112052,12.7051608 C21.5236615,12.8884027 21.2760481,13 21.0081969,13 L4,13 L4,18 L6.24264069,18 L5.828291,17.5856503 C5.43784189,17.1952012 5.43518017,16.5648198 5.82842712,16.1715729 C6.21895142,15.7810486 6.84928895,15.7782211 7.24250456,16.1714368 L9.36409715,18.2930293 C9.55929918,18.4882314 9.65757674,18.7434026 9.657915,18.9989304 C9.65827932,19.254534 9.56068212,19.5103857 9.36409715,19.7069707 L7.24250456,21.8285632 C6.85205545,22.2190124 6.22167408,22.2216741 5.82842712,21.8284271 C5.43790283,21.4379028 5.43507539,20.8075653 5.828291,20.4143497 L6.24264069,20 L6.24264069,20 Z"/>
    </g>
</svg>
