<svg xmlns="http://www.w3.org/2000/svg" xmlns:xlink="http://www.w3.org/1999/xlink" width="24px" height="24px" viewBox="0 0 24 24" version="1.1">
    <!-- Generator: Sketch 42 (36781) - http://www.bohemiancoding.com/sketch -->
    <title>menu_group</title>
    <g >
        <path d="M8.5,9 C9.26461469,9 10,8.15955964 10,7 C10,5.84044036 9.26461469,5 8.5,5 C7.73538531,5 7,5.84044036 7,7 C7,8.15955964 7.73538531,9 8.5,9 Z M8.5,11 C6.56700338,11 5,9.209139 5,7 C5,4.790861 6.56700338,3 8.5,3 C10.4329966,3 12,4.790861 12,7 C12,9.209139 10.4329966,11 8.5,11 Z"/>
        <path d="M4.81247158,18.7313799 C4.80663014,18.6911891 4.79873593,18.6524022 4.78890872,18.6150838 L4.81247158,18.7313799 Z M12.1950112,18.6839104 L12.2133177,18.5988229 C12.2060776,18.6264144 12.1999609,18.6547891 12.1950112,18.6839104 Z M12.3182062,18 C12.4002215,17.3371321 12.3818569,16.6418813 12.2165097,16.0363827 C11.857592,14.722032 10.8889154,14 8.49999999,14 C6.1110846,14 5.14240804,14.722032 4.78349031,16.0363827 C4.61814311,16.6418813 4.5997785,17.3371321 4.68179391,18 L12.3182062,18 Z M8.49999999,12 C16,12 14.1667328,19.019043 14.1667328,19.019043 C14.0746488,19.5608106 13.555163,20 13.0044225,20 L3.9955775,20 C3.44573523,20 2.91332817,19.5698853 2.83326721,19.019043 C2.83326721,19.019043 0.999999987,12 8.49999999,12 Z"/>
        <path d="M16.8493714,18 C16.2970866,18 15.8493714,18.4477153 15.8493714,19 C15.8493714,19.5522847 16.2970866,20 16.8493714,20 L20.0932108,20 C21.0215734,20 21.854115,19.3431758 21.9494919,18.4300816 C21.9571839,18.3794672 21.9655302,18.3143229 21.9733957,18.2359687 C22.0499326,17.4735228 21.9847247,16.6232418 21.6609351,15.7901316 C20.9860135,14.0535593 19.3849623,13 16.8493714,13 C16.5949962,13 16.3497694,13.0104356 16.1135373,13.0312005 C15.5633739,13.07956 15.1565814,13.5647588 15.204941,14.1149222 C15.2533005,14.6650856 15.7384992,15.0718781 16.2886627,15.0235185 C16.4657652,15.0079512 16.6526095,15 16.8493714,15 C18.5739191,15 19.4260378,15.56073 19.7967764,16.5146399 C19.9840174,16.9964107 20.0289303,17.5325447 19.9868437,18 L16.8493714,18 Z"/>
        <path d="M17,10 C17.4779802,10 18,9.39097687 18,8.5 C18,7.60902313 17.4779802,7 17,7 C16.5220198,7 16,7.60902313 16,8.5 C16,9.39097687 16.5220198,10 17,10 Z M17,12 C15.3431458,12 14,10.4329966 14,8.5 C14,6.56700338 15.3431458,5 17,5 C18.6568542,5 20,6.56700338 20,8.5 C20,10.4329966 18.6568542,12 17,12 Z"/>
    </g>
</svg>
