<svg width="18" height="19" viewBox="0 0 18 19" xmlns="http://www.w3.org/2000/svg" xmlns:xlink="http://www.w3.org/1999/xlink"><title>0C80B4CC-3FE4-4589-B92C-41DF862F217F</title><defs><ellipse id="a" cx="10" cy="5.5" rx="4" ry="4.5"/><mask id="b" x="0" y="0" width="8" height="9" fill="#fff"><use xlink:href="#a"/></mask></defs><g transform="translate(-1 -1)" fill="none" fill-rule="evenodd"><path d="M15.743 15.036l-1.415-1.415a.997.997 0 0 1 0-1.414.997.997 0 0 1 1.415 0l2.121 2.122a.997.997 0 0 1 0 1.414l-2.121 2.121a.997.997 0 0 1-1.415 0 .997.997 0 0 1 0-1.414l1.415-1.414z" fill="#FFF"/><rect fill="#FFF" x="10" y="14" width="6" height="2" rx="1"/><use stroke="#FFF" mask="url(#b)" stroke-width="4" xlink:href="#a"/><path d="M11.509 18.928H3.922a.887.887 0 0 1-.863-.76s-1.416-6.096 5.44-6.096c.15 0 .297.002.439.008" stroke="#FFF" stroke-width="2" stroke-linecap="round"/></g></svg>