<svg xmlns="http://www.w3.org/2000/svg" xmlns:xlink="http://www.w3.org/1999/xlink" width="24px" height="24px" viewBox="0 0 24 24" version="1.1">
    <!-- Generator: Sketch 42 (36781) - http://www.bohemiancoding.com/sketch -->
    <title>menu_campaign_stat</title>
    <g >
        <rect x="2" y="2" width="20" height="2" rx="1"/>
        <rect x="2" y="20" width="20" height="2" rx="1"/>
        <rect x="2" y="2" width="2" height="20" rx="1"/>
        <rect x="20" y="16" width="2" height="6" rx="1"/>
        <path d="M12.2191312,16.624695 C12.6419281,17.1531912 13.4566263,17.1178363 13.8320503,16.5547002 L15.7771242,13.6370894 L21.7071068,7.70710678 C22.0976311,7.31658249 22.0976311,6.68341751 21.7071068,6.29289322 C21.3165825,5.90236893 20.6834175,5.90236893 20.2928932,6.29289322 L14.2928932,12.2928932 L14.1679497,12.4452998 L12.9265474,14.3074032 L9.78086881,10.375305 C9.34553428,9.83113679 8.50104644,9.88793863 8.14250707,10.4855042 L2.14250707,20.4855042 C1.85835891,20.9590845 2.01192398,21.5733448 2.48550424,21.8574929 C2.95908451,22.1416411 3.57334477,21.988076 3.85749293,21.5144958 L9.11755528,12.7477252 L12.2191312,16.624695 Z"/>
        <rect x="14" y="6" width="8" height="2" rx="1"/>
        <rect x="20" y="6" width="2" height="8" rx="1"/>
    </g>
</svg>
