<?xml version="1.0" encoding="UTF-8" standalone="no"?>
<svg width="24px" height="24px" viewBox="0 0 24 24" version="1.1" xmlns="http://www.w3.org/2000/svg" xmlns:xlink="http://www.w3.org/1999/xlink">
    <!-- Generator: Sketch 42 (36781) - http://www.bohemiancoding.com/sketch -->
    <title>menu_user_stat</title>
    <g>
        <path d="M5.05164942,18.051371 C5.05042258,18.0409655 5.04873391,18.0312844 5.04657725,18.022304 L5.05164942,18.051371 Z M8.50891079,17.9284752 C9.06119554,17.9284752 9.50891079,18.3761905 9.50891079,18.9284752 C9.50891079,19.48076 9.06119554,19.9284752 8.50891079,19.9284752 L4.92189835,19.9284752 C4.01582927,19.9284752 3.21005736,19.246995 3.07333358,18.3444212 C3.05342974,18.2503279 3.02984866,18.1173484 3.00718703,17.9506817 C2.87093348,16.9485943 2.91028824,15.8603653 3.25819285,14.8065089 C4.02554743,12.4820744 6.07758698,11.0715248 9.49975677,11.0715248 C9.66209824,11.0715248 9.82142775,11.0746765 9.97777163,11.0809606 C10.5296108,11.103141 10.9589841,11.5684758 10.9368037,12.1203149 C10.9146233,12.6721541 10.4492885,13.1015274 9.89744931,13.079347 C9.76807367,13.0741469 9.63551758,13.0715248 9.49975677,13.0715248 C6.92209488,13.0715248 5.64799554,13.9473268 5.15737934,15.4334784 C4.91904767,16.1554215 4.89014762,16.9545592 4.98895173,17.6812217 C5.00524357,17.8010413 5.02049691,17.8858558 5.02955854,17.9284752 L8.50891079,17.9284752 Z"></path>
        <path d="M10,8 C11.0486665,8 12,6.92974985 12,5.5 C12,4.07025015 11.0486665,3 10,3 C8.95133347,3 8,4.07025015 8,5.5 C8,6.92974985 8.95133347,8 10,8 Z M10,10 C7.790861,10 6,7.98528137 6,5.5 C6,3.01471863 7.790861,1 10,1 C12.209139,1 14,3.01471863 14,5.5 C14,7.98528137 12.209139,10 10,10 Z" ></path>
        <path d="M12,17 C12,19.209139 13.790861,21 16,21 C18.209139,21 20,19.209139 20,17 L16,17 L16,13 C13.790861,13 12,14.790861 12,17 Z M18,11.3414114 L18,15 L21.6585886,15 C21.8796916,15.6255579 22,16.2987292 22,17 C22,20.3137085 19.3137085,23 16,23 C12.6862915,23 10,20.3137085 10,17 C10,13.6862915 12.6862915,11 16,11 C16.7012708,11 17.3744421,11.1203084 18,11.3414114 Z"></path>
    </g>
</svg>
