<svg xmlns="http://www.w3.org/2000/svg" width="24" height="24" viewBox="0 0 24 24" style="fill:transparent">
  <g fill-rule="evenodd" transform="translate(3 3)" fill="transparent">
    <path fill="#FFF" d="M4.70710678,12 L4.328291,11.6211842 C3.93784189,11.2307351 3.93518017,10.6003537 4.32842712,10.2071068 C4.71895142,9.81658249 5.34928895,9.81375505 5.74250456,10.2069707 L7.86409715,12.3285632 C8.05929918,12.5237653 8.15757674,12.7789365 8.157915,13.0344643 C8.15827932,13.2900679 8.06068212,13.5459196 7.86409715,13.7425046 L5.74250456,15.8640972 C5.35205545,16.2545463 4.72167408,16.257208 4.32842712,15.863961 C3.93790283,15.4734367 3.93507539,14.8430992 4.328291,14.4498836 L4.77817459,14 L0.990777969,14 C0.443586406,14 0,13.5561352 0,13 C0,12.4477153 0.45097518,12 0.990777969,12 L4.70710678,12 Z"/>
    <ellipse cx="10" cy="4.5" stroke="#FFF" stroke-width="2" rx="3" ry="3.5"/>
    <path stroke="#FFF" stroke-linecap="round" stroke-width="2" d="M16.5089108,17.9284752 L10.985144,17.9284752 L8.92189835,17.9284752 C8.50474371,17.9284752 8.10914241,17.5977503 8.05852829,17.1684625 C8.05852829,17.1684625 6.64280629,11.0715248 13.4997568,11.0715248 C13.6496268,11.0715248 13.7955443,11.0744436 13.9376105,11.0801538" transform="matrix(-1 0 0 1 24.447 0)"/>
  </g>
</svg>
