<?xml version="1.0" encoding="UTF-8" standalone="no"?>
<svg width="25px" height="25px" viewBox="0 0 25 25" version="1.1" xmlns="http://www.w3.org/2000/svg" xmlns:xlink="http://www.w3.org/1999/xlink">
    <!-- Generator: Sketch 3.6.1 (26313) - http://www.bohemiancoding.com/sketch -->
    <title>template</title>
    <desc>Created with Sketch.</desc>
    <defs></defs>
    <g stroke="none" stroke-width="1" fill="none" fill-rule="evenodd">
        <g >
            <path d="M23.021,8.238 L1.964,8.238 C1.687,8.238 1.464,8.014 1.464,7.738 C1.464,7.462 1.687,7.238 1.964,7.238 L23.021,7.238 C23.298,7.238 23.521,7.462 23.521,7.738 C23.521,8.014 23.299,8.238 23.021,8.238 L23.021,8.238 L23.021,8.238 Z" ></path>
            <path d="M23.379,24.68 L1.608,24.68 C1.055,24.68 0.608,24.233 0.608,23.68 L0.608,1.909 C0.608,1.357 1.055,0.909 1.608,0.909 L23.379,0.909 C23.932,0.909 24.379,1.357 24.379,1.909 L24.379,23.68 C24.379,24.232 23.932,24.68 23.379,24.68 L23.379,24.68 L23.379,24.68 Z M2.607,22.68 L22.378,22.68 L22.378,2.909 L2.607,2.909 L2.607,22.68 L2.607,22.68 L2.607,22.68 Z" ></path>
            <path d="M5.152,3.845 C4.457,3.845 3.892,4.409 3.892,5.105 C3.892,5.8 4.456,6.364 5.152,6.364 C5.848,6.364 6.412,5.8 6.412,5.105 C6.412,4.409 5.848,3.845 5.152,3.845 L5.152,3.845 L5.152,3.845 Z" ></path>
            <path d="M8.564,3.845 C7.869,3.845 7.304,4.409 7.304,5.105 C7.304,5.8 7.868,6.364 8.564,6.364 C9.26,6.364 9.824,5.8 9.824,5.105 C9.824,4.409 9.26,3.845 8.564,3.845 L8.564,3.845 L8.564,3.845 Z" ></path>
            <path d="M11.977,3.845 C11.282,3.845 10.717,4.409 10.717,5.105 C10.717,5.8 11.281,6.364 11.977,6.364 C12.674,6.364 13.239,5.8 13.239,5.105 C13.238,4.409 12.674,3.845 11.977,3.845 L11.977,3.845 L11.977,3.845 Z" ></path>
            <path d="M12.494,12.248 L5.66,12.248 C5.385,12.248 5.16,12.024 5.16,11.748 C5.16,11.472 5.385,11.248 5.66,11.248 L12.494,11.248 C12.769,11.248 12.994,11.472 12.994,11.748 C12.994,12.024 12.77,12.248 12.494,12.248 L12.494,12.248 L12.494,12.248 Z" ></path>
            <path d="M12.494,15.414 L5.66,15.414 C5.385,15.414 5.16,15.191 5.16,14.914 C5.16,14.639 5.385,14.414 5.66,14.414 L12.494,14.414 C12.769,14.414 12.994,14.639 12.994,14.914 C12.994,15.191 12.77,15.414 12.494,15.414 L12.494,15.414 L12.494,15.414 Z" ></path>
            <path d="M19.326,18.582 L14.994,18.582 C14.717,18.582 14.494,18.357 14.494,18.082 L14.494,11.748 C14.494,11.472 14.717,11.248 14.994,11.248 L19.326,11.248 C19.603,11.248 19.826,11.472 19.826,11.748 L19.826,18.082 C19.826,18.357 19.604,18.582 19.326,18.582 L19.326,18.582 L19.326,18.582 Z M15.494,17.582 L18.826,17.582 L18.826,12.248 L15.494,12.248 L15.494,17.582 L15.494,17.582 L15.494,17.582 Z" ></path>
            <path d="M12.494,18.582 L5.66,18.582 C5.385,18.582 5.16,18.357 5.16,18.082 C5.16,17.805 5.385,17.582 5.66,17.582 L12.494,17.582 C12.769,17.582 12.994,17.805 12.994,18.082 C12.994,18.357 12.77,18.582 12.494,18.582 L12.494,18.582 L12.494,18.582 Z" ></path>
        </g>
    </g>
</svg>
