<?xml version="1.0" encoding="UTF-8" standalone="no"?>
<svg width="24px" height="24px" viewBox="0 0 24 24" version="1.1" xmlns="http://www.w3.org/2000/svg" xmlns:xlink="http://www.w3.org/1999/xlink">
    <!-- Generator: Sketch 42 (36781) - http://www.bohemiancoding.com/sketch -->
    <title>menu_trash</title>
    <g >
        <rect x="11" y="9" width="2" height="9" rx="1"/>
        <path d="M14.1846748,9.95000868 C14.2135082,9.39983502 14.6801388,8.97706123 15.2355118,9.00616709 C15.7870397,9.03507144 16.2107832,9.50420279 16.1819339,10.0546806 L15.8153252,17.0499913 C15.7864918,17.600165 15.3198612,18.0229388 14.7644882,17.9938329 C14.2129603,17.9649286 13.7892168,17.4957972 13.8180661,16.9453194 L14.1846748,9.95000868 Z"/>
        <path d="M7.81806612,10.0546806 C7.78923274,9.50450693 8.20911518,9.03527296 8.7644882,9.00616709 C9.31601606,8.97726274 9.78647587,9.39953088 9.81532518,9.95000868 L10.1819339,16.9453194 C10.2107673,17.4954931 9.79088482,17.964727 9.2355118,17.9938329 C8.68398394,18.0227373 8.21352413,17.6004691 8.18467482,17.0499913 L7.81806612,10.0546806 Z"/>
        <path d="M6.00345722,5 L5.88581016,5 L4.11073859,6.88255596 L4.11764706,7 L6.12110428,7 L6.00345722,5 Z M6.88581016,20 L17.1141898,20 L17.8788957,7 L6.12110428,7 L6.88581016,20 Z M4,5 L20,5 L19.0588212,21.0000398 C19.0263351,21.5523026 18.5500512,22 17.9931545,22 L6.00684547,22 C5.45078007,22 4.97325242,21.5452911 4.94117881,21.0000398 L4,5 Z"/>
        <path d="M8,5 C8,3.34314575 9.790861,2 12,2 C14.209139,2 16,3.34314575 16,5 L14,5 C14,4.59314575 13.209139,4 12,4 C10.790861,4 10,4.59314575 10,5 L8,5 Z M10,5 L8,5 C8,3.34314575 9.790861,2 12,2 C14.209139,2 16,3.34314575 16,5 L14,5 C14,4.59314575 13.209139,4 12,4 C10.790861,4 10,4.59314575 10,5 Z"/>
        <rect x="2" y="5" width="20" height="2" rx="1"/>
    </g>
</svg>
