<svg xmlns="http://www.w3.org/2000/svg" xmlns:xlink="http://www.w3.org/1999/xlink" width="24px" height="24px" viewBox="0 0 24 24" version="1.1">
    <!-- Generator: Sketch 42 (36781) - http://www.bohemiancoding.com/sketch -->
    <title>menu_users</title>
    <g stroke="none" stroke-width="1" fill="none" fill-rule="evenodd">
        <g >
            <rect fill="#D8D8D8" opacity="0" x="0" y="0" width="24" height="24"/>
            <path d="M6.84442952,20.7682723 C6.83982272,20.7291994 6.83317402,20.6913067 6.82460574,20.6546686 L6.84442952,20.7682723 Z M17.1603683,20.7365185 L17.1766952,20.6492613 C17.1700918,20.6776087 17.1646325,20.7067066 17.1603683,20.7365185 Z M17.2708441,20 C17.3446055,19.2169346 17.2905939,18.380021 17.0454088,17.6352666 C16.4964047,15.9676565 15.0918984,15 12,15 C8.9070079,15 7.50210822,15.9657127 6.95328011,17.6281971 C6.70669593,18.3751384 6.65351369,19.2152723 6.72919898,20 L17.2708441,20 Z M12,13 C21,13 19.1402175,21.0197096 19.1402175,21.0197096 C19.0627775,21.561109 18.5500512,22 17.9931545,22 L6.00684547,22 C5.45078007,22 4.92462015,21.5659113 4.85818726,21.0024554 C4.85818726,21.0024554 3,13 12,13 Z"/>
            <path d="M12,10 C13.0486665,10 14,8.92974985 14,7.5 C14,6.07025015 13.0486665,5 12,5 C10.9513335,5 10,6.07025015 10,7.5 C10,8.92974985 10.9513335,10 12,10 Z M12,12 C9.790861,12 8,9.98528137 8,7.5 C8,5.01471863 9.790861,3 12,3 C14.209139,3 16,5.01471863 16,7.5 C16,9.98528137 14.209139,12 12,12 Z"/>
        </g>
    </g>
</svg>
