<?xml version="1.0" encoding="UTF-8" standalone="no"?>
<svg width="18px" height="18px" viewBox="0 0 18 18" version="1.1" xmlns="http://www.w3.org/2000/svg" xmlns:xlink="http://www.w3.org/1999/xlink">
    <title>close</title>
    <desc>Created with Sketch.</desc>
    <g stroke="none" stroke-width="1" fill="none" fill-rule="evenodd">
        <g fill="#231F20">
            <path d="M1.463,17.723 C1.207,17.723 0.951,17.625 0.756,17.43 C0.365,17.039 0.365,16.407 0.756,16.016 L16.225,0.549 C16.616,0.158 17.248,0.158 17.639,0.549 C18.03,0.94 18.03,1.572 17.639,1.963 L2.17,17.43 C1.975,17.625 1.719,17.723 1.463,17.723 L1.463,17.723 L1.463,17.723 Z" />
            <path d="M16.932,17.724 C16.676,17.724 16.42,17.626 16.225,17.431 L0.756,1.963 C0.365,1.572 0.365,0.94 0.756,0.549 C1.147,0.158 1.779,0.158 2.17,0.549 L17.639,16.017 C18.03,16.408 18.03,17.04 17.639,17.431 C17.443,17.626 17.188,17.724 16.932,17.724 L16.932,17.724 L16.932,17.724 Z" />
        </g>
    </g>
</svg>
