<?xml version="1.0" encoding="UTF-8" standalone="no"?>
<svg width="19px" height="19px" viewBox="0 0 19 19" version="1.1" xmlns="http://www.w3.org/2000/svg" xmlns:xlink="http://www.w3.org/1999/xlink">
    <title>pen</title>
    <g stroke="none" stroke-width="1" fill-rule="evenodd">
        <g>
            <path d="M6.851,18.559 C6.83,18.559 6.81,18.559 6.789,18.556 C5.068,18.414 3.219,18.387 1.316,18.37 C0.906,18.366 0.575,18.035 0.572,17.625 C0.554,15.718 0.528,13.864 0.385,12.154 C0.367,11.934 0.447,11.717 0.602,11.56 L11.386,0.778 C11.586,0.578 11.882,0.508 12.149,0.594 C13.59,1.062 14.92,1.877 15.992,2.949 C17.064,4.021 17.879,5.349 18.346,6.791 C18.435,7.06 18.363,7.354 18.163,7.555 L7.38,18.337 C7.24,18.48 7.049,18.559 6.851,18.559 L6.851,18.559 L6.851,18.559 Z M2.068,16.874 C3.614,16.892 5.123,16.924 6.563,17.03 L16.765,6.828 C16.357,5.777 15.727,4.81 14.93,4.012 C14.131,3.214 13.165,2.585 12.115,2.176 L1.911,12.378 C2.017,13.812 2.051,15.323 2.068,16.874 L2.068,16.874 L2.068,16.874 Z" />
            <path d="M15.826,8.629 C15.729,8.629 15.634,8.592 15.56,8.519 L10.422,3.382 C10.275,3.236 10.275,2.998 10.422,2.851 C10.568,2.704 10.807,2.704 10.953,2.851 L16.091,7.988 C16.237,8.134 16.237,8.372 16.091,8.519 C16.019,8.593 15.922,8.629 15.826,8.629 L15.826,8.629 L15.826,8.629 Z" />
            <path d="M6.892,17.559 C6.733,17.559 6.587,17.457 6.536,17.299 C5.784,14.987 3.956,13.158 1.645,12.408 C1.448,12.344 1.339,12.132 1.404,11.935 C1.467,11.737 1.68,11.629 1.877,11.693 C4.417,12.518 6.426,14.526 7.251,17.067 C7.314,17.264 7.207,17.476 7.009,17.54 C6.97,17.553 6.93,17.559 6.892,17.559 L6.892,17.559 L6.892,17.559 Z" />
            <path d="M3.895,18.082 L3.885,18.082 L1.312,17.994 C1.114,17.987 0.957,17.828 0.95,17.631 L0.857,14.95 C0.851,14.75 1.003,14.58 1.202,14.562 C1.318,14.547 1.375,14.541 1.437,14.541 C3.018,14.541 4.305,15.827 4.305,17.409 C4.305,17.513 4.292,17.613 4.277,17.715 C4.249,17.901 4.081,18.082 3.895,18.082 L3.895,18.082 L3.895,18.082 Z M1.687,17.255 L3.55,17.318 C3.505,16.255 2.672,15.392 1.621,15.3 L1.687,17.255 L1.687,17.255 L1.687,17.255 Z" />
        </g>
    </g>
</svg>