<?xml version="1.0" encoding="UTF-8" standalone="no"?>
<svg width="18px" height="19px" viewBox="0 0 18 19" version="1.1" xmlns="http://www.w3.org/2000/svg" xmlns:xlink="http://www.w3.org/1999/xlink">
    <title>trash</title>
    <g stroke="none" stroke-width="1" fill-rule="evenodd">
        <g>
            <path d="M16.909,3.733 L1.329,3.733 C0.914,3.733 0.579,3.397 0.579,2.983 C0.579,2.569 0.914,2.232 1.329,2.232 L16.909,2.232 C17.324,2.232 17.66,2.568 17.66,2.983 C17.66,3.398 17.324,3.733 16.909,3.733 L16.909,3.733 L16.909,3.733 Z" />
            <path d="M11.056,3.288 C10.869,2.372 10.055,1.707 9.119,1.707 C8.182,1.707 7.369,2.372 7.183,3.287 L5.711,2.988 C6.038,1.376 7.471,0.205 9.119,0.205 C10.765,0.205 12.197,1.375 12.526,2.987 L11.056,3.288 L11.056,3.288 L11.056,3.288 Z" />
            <path d="M4.057,18.206 C3.268,18.206 2.613,17.565 2.564,16.749 L1.787,3.734 C1.762,3.32 2.078,2.964 2.491,2.94 C2.919,2.906 3.261,3.232 3.286,3.645 L4.063,16.659 L14.182,16.704 L14.953,3.645 C14.977,3.23 15.339,2.918 15.746,2.94 C16.161,2.964 16.476,3.32 16.452,3.734 L15.675,16.748 C15.622,17.567 14.968,18.206 14.184,18.206 L14.181,18.206 L4.057,18.206 L4.057,18.206 L4.057,18.206 Z" />
            <path d="M6.27,15.449 C5.876,15.449 5.544,15.14 5.522,14.74 L5.022,5.793 C4.999,5.379 5.315,5.025 5.729,5.001 C6.141,4.973 6.498,5.295 6.521,5.709 L7.021,14.657 C7.044,15.07 6.728,15.426 6.313,15.448 C6.299,15.449 6.285,15.449 6.27,15.449 L6.27,15.449 L6.27,15.449 Z" />
            <path d="M11.966,15.449 C11.953,15.449 11.939,15.449 11.924,15.448 C11.51,15.426 11.194,15.07 11.217,14.657 L11.717,5.709 C11.738,5.295 12.103,4.971 12.507,5.001 C12.922,5.024 13.239,5.379 13.215,5.793 L12.715,14.74 C12.693,15.141 12.362,15.449 11.966,15.449 L11.966,15.449 L11.966,15.449 Z" />
            <path d="M9.119,15.449 C8.704,15.449 8.369,15.113 8.369,14.698 L8.369,5.751 C8.369,5.336 8.704,5 9.119,5 C9.534,5 9.87,5.336 9.87,5.751 L9.87,14.698 C9.87,15.113 9.534,15.449 9.119,15.449 L9.119,15.449 L9.119,15.449 Z" />
        </g>
    </g>
</svg>