<?xml version="1.0" encoding="UTF-8"?>
<svg width="30px" height="30px" viewBox="0 0 30 30" version="1.1" xmlns="http://www.w3.org/2000/svg" xmlns:xlink="http://www.w3.org/1999/xlink">
    <!-- Generator: sketchtool 41 (35326) - http://www.bohemiancoding.com/sketch -->
    <title>41241BD3-74F3-409D-A599-A11E943DF458</title>
    <desc>Created with sketchtool.</desc>
    <defs></defs>
    <g stroke="none" stroke-width="1" fill="none" fill-rule="evenodd">
        <g >
            <g >
                <rect fill="#2A3156" x="0" y="0" width="30" height="30" rx="4"></rect>
                <g transform="translate(10.000000, 4.000000)" fill="#FFFFFF">
                    <rect x="4" y="2" width="2" height="18" rx="1"></rect>
                    <g transform="translate(5.000000, 5.000000) rotate(-315.000000) translate(-5.000000, -5.000000) translate(2.000000, 2.000000)">
                        <rect x="0" y="0" width="2" height="6" rx="1"></rect>
                        <rect x="0" y="0" width="6" height="2" rx="1"></rect>
                    </g>
                    <g transform="translate(5.000000, 17.000000) scale(1, -1) rotate(-315.000000) translate(-5.000000, -17.000000) translate(2.000000, 14.000000)">
                        <rect x="0" y="0" width="2" height="6" rx="1"></rect>
                        <rect x="0" y="0" width="6" height="2" rx="1"></rect>
                    </g>
                </g>
                <g transform="translate(15.000000, 15.000000) rotate(-270.000000) translate(-15.000000, -15.000000) translate(10.000000, 4.000000)" fill="#FFFFFF">
                    <rect x="4" y="2" width="2" height="18" rx="1"></rect>
                    <g transform="translate(5.000000, 5.000000) rotate(-315.000000) translate(-5.000000, -5.000000) translate(2.000000, 2.000000)">
                        <rect x="0" y="0" width="2" height="6" rx="1"></rect>
                        <rect x="0" y="0" width="6" height="2" rx="1"></rect>
                    </g>
                    <g transform="translate(5.000000, 17.000000) scale(1, -1) rotate(-315.000000) translate(-5.000000, -17.000000) translate(2.000000, 14.000000)">
                        <rect x="0" y="0" width="2" height="6" rx="1"></rect>
                        <rect x="0" y="0" width="6" height="2" rx="1"></rect>
                    </g>
                </g>
            </g>
        </g>
    </g>
</svg>