<?xml version="1.0" encoding="UTF-8" standalone="no"?>
<svg width="25px" height="24px" viewBox="0 0 25 24" version="1.1" xmlns="http://www.w3.org/2000/svg" xmlns:xlink="http://www.w3.org/1999/xlink">
    <!-- Generator: Sketch 3.6.1 (26313) - http://www.bohemiancoding.com/sketch -->
    <title>add</title>
    <desc>Created with Sketch.</desc>
    <defs></defs>
    <g stroke="none" stroke-width="1" fill="none" fill-rule="evenodd">
        <g fill="#231F20">
            <path d="M12.367,23.927 C11.814,23.927 11.367,23.479 11.367,22.927 L11.367,1.052 C11.367,0.5 11.814,0.052 12.367,0.052 C12.92,0.052 13.367,0.5 13.367,1.052 L13.367,22.927 C13.367,23.479 12.92,23.927 12.367,23.927 L12.367,23.927 L12.367,23.927 Z" ></path>
            <path d="M23.307,12.989 L1.432,12.989 C0.879,12.989 0.432,12.541 0.432,11.989 C0.432,11.437 0.879,10.989 1.432,10.989 L23.307,10.989 C23.86,10.989 24.307,11.437 24.307,11.989 C24.307,12.541 23.859,12.989 23.307,12.989 L23.307,12.989 L23.307,12.989 Z" ></path>
        </g>
    </g>
</svg>