<svg xmlns="http://www.w3.org/2000/svg" width="21" height="21" viewBox="0 0 21 21">
    <g fill="#FFF" fill-rule="evenodd">
        <circle cx="11" cy="4" r="1"/>
        <path d="M6.25 18L4.6 20.2c-.334.445-.152.8.4.8.556 0 1.269-.358 1.6-.8L9 17l-2.4-3.2c-.334-.445-1.048-.8-1.6-.8-.556 0-.731.358-.4.8L6.25 16H.997C.453 16 0 16.448 0 17c0 .556.446 1 .997 1H6.25z"/>
        <g transform="translate(5)">
            <path d="M0 11c1.227 0 2.367.368 3.318 1H14v4H5.917a6.04 6.04 0 0 1 0 2h9.082c.553 0 1.001-.445 1.001-.993V.993A.995.995 0 0 0 15 0H1C.449 0 0 .445 0 .993V11zm14-9v9H2V2h12z"/>
            <path d="M3 10l2-3 1 1 3-3 4 5z"/>
            <rect width="5" height="2" x="8" y="13" rx="1"/>
        </g>
    </g>
</svg>
