<?xml version="1.0" encoding="UTF-8"?>
<svg style="transform: scale(1.1)" width="24px" height="24px" viewBox="0 0 24 24" version="1.1" xmlns="http://www.w3.org/2000/svg" xmlns:xlink="http://www.w3.org/1999/xlink">
    <!-- Generator: sketchtool 41.2 (35397) - http://www.bohemiancoding.com/sketch -->
    <title>93E6F515-1A77-4946-B239-288DD95DAE1D</title>
    <desc>Created with sketchtool.</desc>
    <defs></defs>
    <g stroke="none" stroke-width="1" fill="none" fill-rule="evenodd">
        <g >
            <g>
                <rect fill="#D8D8D8" opacity="0" x="0" y="0" width="24" height="24"></rect>
                <g transform="translate(4.000000, 4.000000)" fill="#A5A8B1">
                    <path d="M13.9999942,2 L14.0059397,2 C15.1072288,2 16,2.89706013 16,4.00585866 L16,13.9941413 C16,15.1019465 15.1054862,16 14.0059397,16 L1.99406028,16 C0.892771196,16 0,15.1029399 0,13.9941413 L0,4.00585866 C0,2.89805351 0.894513756,2 1.99406028,2 L2.00000576,2 C2.00262413,3.10871748 2.89704874,4 4,4 C5.11063538,4 5.99738969,3.10502093 5.99999425,2 L10.0000058,2 C10.0026241,3.10871748 10.8970487,4 12,4 C13.1106354,4 13.9973897,3.10502093 13.9999942,2 Z M2,7 L14,7 L14,14 L2,14 L2,7 Z M3,0.998956561 C3,0.447248087 3.44386482,0 4,0 C4.55228475,0 5,0.442660332 5,0.998956561 L5,2.00104344 C5,2.55275191 4.55613518,3 4,3 C3.44771525,3 3,2.55733967 3,2.00104344 L3,0.998956561 Z M11,0.998956561 C11,0.447248087 11.4438648,0 12,0 C12.5522847,0 13,0.442660332 13,0.998956561 L13,2.00104344 C13,2.55275191 12.5561352,3 12,3 C11.4477153,3 11,2.55733967 11,2.00104344 L11,0.998956561 Z" ></path>
                </g>
            </g>
        </g>
    </g>
</svg>
