<?xml version="1.0" encoding="UTF-8"?>
<svg width="22px" height="18px" viewBox="0 0 22 18" version="1.1" xmlns="http://www.w3.org/2000/svg" xmlns:xlink="http://www.w3.org/1999/xlink">
    <!-- Generator: Sketch 42 (36781) - http://www.bohemiancoding.com/sketch -->
    <title>Group 23</title>
    <desc>Created with Sketch.</desc>
    <defs></defs>
    <g stroke="none" stroke-width="1" fill="none" fill-rule="evenodd">
        <g transform="translate(-281.000000, -541.000000)">
            <g transform="translate(20.000000, 216.000000)">
                <g transform="translate(20.000000, 270.000000)">
                    <g transform="translate(0.000000, 42.000000)">
                        <g transform="translate(241.000000, 12.000000)">
                            <g>
                                <rect fill="#D8D8D8" opacity="0" x="1" y="0" width="20" height="20"></rect>
                                <g transform="translate(0.000000, 1.000000)" fill="#9EA3B7">
                                    <g>
                                        <path d="M20.24,18 L1.762,18 C1.264,18 0.862,17.597 0.862,17.1 L0.862,2.4 C0.862,1.904 1.264,1.501 1.762,1.501 L20.24,1.501 C20.736,1.501 21.138,1.904 21.138,2.4 L21.138,17.1 C21.141,17.597 20.738,18 20.24,18 L20.24,18 L20.24,18 Z M2.664,16.2 L19.341,16.2 L19.341,3.301 L2.664,3.301 L2.664,16.2 L2.664,16.2 L2.664,16.2 Z"></path>
                                        <path d="M16.79,4.801 C16.292,4.801 15.89,4.397 15.89,3.901 L15.89,0.901 C15.89,0.404 16.292,0.001 16.79,0.001 C17.287,0.001 17.687,0.404 17.687,0.901 L17.687,3.901 C17.689,4.396 17.287,4.801 16.79,4.801 L16.79,4.801 L16.79,4.801 Z"></path>
                                        <path d="M5.314,4.801 C4.816,4.801 4.415,4.397 4.415,3.901 L4.415,0.901 C4.415,0.404 4.818,0.001 5.314,0.001 C5.811,0.001 6.214,0.404 6.214,0.901 L6.214,3.901 C6.215,4.396 5.812,4.801 5.314,4.801 L5.314,4.801 L5.314,4.801 Z"></path>
                                        <path d="M20.189,7.713 L1.89,7.713 C1.64,7.713 1.44,7.512 1.44,7.264 C1.44,7.014 1.64,6.813 1.89,6.813 L20.19,6.813 C20.44,6.813 20.64,7.016 20.64,7.264 C20.64,7.512 20.439,7.713 20.189,7.713 L20.189,7.713 L20.189,7.713 Z"></path>
                                        <polygon points="5.974 9.54 4.228 9.54 4.228 11.286 5.974 11.286"></polygon>
                                        <polygon points="8.995 9.54 7.25 9.54 7.25 11.286 8.995 11.286"></polygon>
                                        <polygon points="12.019 9.54 10.271 9.54 10.271 11.286 12.019 11.286"></polygon>
                                        <polygon points="15.041 9.54 13.293 9.54 13.293 11.286 15.041 11.286"></polygon>
                                        <polygon points="18.062 9.54 16.317 9.54 16.317 11.286 18.062 11.286"></polygon>
                                        <polygon points="5.974 12.346 4.228 12.346 4.228 14.091 5.974 14.091"></polygon>
                                        <polygon points="8.995 12.346 7.25 12.346 7.25 14.091 8.995 14.091"></polygon>
                                        <polygon points="12.019 12.346 10.271 12.346 10.271 14.091 12.019 14.091"></polygon>
                                        <polygon points="15.041 12.346 13.293 12.346 13.293 14.091 15.041 14.091"></polygon>
                                        <polygon points="18.062 12.346 16.317 12.346 16.317 14.091 18.062 14.091"></polygon>
                                    </g>
                                </g>
                            </g>
                        </g>
                    </g>
                </g>
            </g>
        </g>
    </g>
</svg>
