<?xml version="1.0" encoding="utf-8"?>
<!-- Generator: Adobe Illustrator 15.0.0, SVG Export Plug-In . SVG Version: 6.00 Build 0)  -->
<!DOCTYPE svg PUBLIC "-//W3C//DTD SVG 1.1//EN" "http://www.w3.org/Graphics/SVG/1.1/DTD/svg11.dtd">
<svg version="1.1" xmlns="http://www.w3.org/2000/svg" xmlns:xlink="http://www.w3.org/1999/xlink" x="0px" y="0px"
	 width="26px" height="26px" viewBox="0 0 26 26" enable-background="new 0 0 26 26" xml:space="preserve">
<path d="M12.943,24.592c-6.516,0-11.816-5.301-11.816-11.817C1.127,6.579,5.971,1.407,12.156,1
	c0.27-0.018,0.547,0.08,0.748,0.268c0.203,0.189,0.316,0.453,0.316,0.73v10.5h10.5c0.276,0,0.54,0.115,0.729,0.316
	c0.188,0.202,0.284,0.473,0.268,0.75C24.312,19.747,19.139,24.592,12.943,24.592L12.943,24.592z M11.221,3.125
	c-4.615,0.817-8.094,4.867-8.094,9.65c0,5.413,4.404,9.817,9.816,9.817c4.786,0,8.834-3.479,9.65-8.094H12.221c-0.553,0-1-0.448-1-1
	V3.125L11.221,3.125z"/>
<path d="M23.201,11.283h-8.084c-0.275,0-0.5-0.224-0.5-0.5V2.7c0-0.276,0.225-0.5,0.5-0.5
	c4.732,0,8.584,3.85,8.584,8.583C23.701,11.059,23.477,11.283,23.201,11.283L23.201,11.283z M15.617,10.283h7.066
	c-0.246-3.784-3.281-6.819-7.066-7.067V10.283L15.617,10.283z"/>
</svg>
