<?xml version="1.0" encoding="UTF-8" standalone="no"?>
<svg width="25px" height="21px" viewBox="0 0 25 21" version="1.1" xmlns="http://www.w3.org/2000/svg" xmlns:xlink="http://www.w3.org/1999/xlink">
    <!-- Generator: Sketch 3.6.1 (26313) - http://www.bohemiancoding.com/sketch -->
    <title>crossing</title>
    <desc>Created with Sketch.</desc>
    <defs></defs>
    <g stroke="none" stroke-width="1" fill="none" fill-rule="evenodd">
        <g fill="#231F20">
            <path d="M19.684,21 C19.428,21 19.172,20.902 18.977,20.707 C18.586,20.317 18.586,19.684 18.977,19.293 L22.139,16.129 L18.977,12.965 C18.586,12.574 18.586,11.941 18.977,11.551 C19.368,11.16 20,11.16 20.391,11.551 L24.258,15.422 C24.649,15.813 24.649,16.445 24.258,16.836 L20.391,20.707 C20.195,20.902 19.939,21 19.684,21 L19.684,21 L19.684,21 Z" ></path>
            <path d="M19.684,9.833 C19.428,9.833 19.172,9.735 18.977,9.54 C18.586,9.15 18.586,8.517 18.977,8.126 L22.139,4.962 L18.977,1.798 C18.586,1.407 18.586,0.774 18.977,0.384 C19.368,-0.007 20,-0.007 20.391,0.384 L24.258,4.255 C24.649,4.646 24.649,5.278 24.258,5.669 L20.391,9.54 C20.195,9.735 19.939,9.833 19.684,9.833 L19.684,9.833 L19.684,9.833 Z" ></path>
            <path d="M23.23,17.152 L15.798,17.152 C15.462,17.152 15.148,16.982 14.962,16.701 L13.013,13.729 C12.71,13.267 12.837,12.647 13.3,12.344 C13.761,12.04 14.38,12.17 14.685,12.631 L16.339,15.152 L23.23,15.152 C23.783,15.152 24.23,15.599 24.23,16.152 C24.23,16.705 23.783,17.152 23.23,17.152 L23.23,17.152 L23.23,17.152 Z" ></path>
            <path d="M9.066,17.152 L1.933,17.152 C1.38,17.152 0.933,16.705 0.933,16.152 C0.933,15.599 1.38,15.152 1.933,15.152 L8.499,15.152 L14.94,4.417 C15.122,4.116 15.446,3.932 15.797,3.932 L23.229,3.932 C23.782,3.932 24.229,4.379 24.229,4.932 C24.229,5.485 23.782,5.932 23.229,5.932 L16.364,5.932 L9.923,16.667 C9.742,16.968 9.418,17.152 9.066,17.152 L9.066,17.152 L9.066,17.152 Z" ></path>
            <path d="M10.934,9.015 C10.596,9.015 10.266,8.843 10.079,8.533 L8.503,5.932 L1.935,5.932 C1.382,5.932 0.935,5.485 0.935,4.932 C0.935,4.379 1.382,3.932 1.935,3.932 L9.068,3.932 C9.418,3.932 9.742,4.115 9.923,4.414 L11.79,7.497 C12.075,7.969 11.925,8.584 11.452,8.87 C11.289,8.968 11.111,9.015 10.934,9.015 L10.934,9.015 L10.934,9.015 Z" ></path>
        </g>
    </g>
</svg>