<svg width="24" height="24" viewBox="0 0 24 24" xmlns="http://www.w3.org/2000/svg"><title>3174BCEB-FDEC-41A8-9454-8F849A480B52</title><g transform="translate(4 3)" fill="#4E5366" fill-rule="evenodd"><circle cx="6" cy="4" r="1"/><path d="M17.414 17l1.417-1.416a1.003 1.003 0 0 0-.003-1.412.996.996 0 0 0-1.412-.003L16 15.586l-1.416-1.417a1.003 1.003 0 0 0-1.412.003.996.996 0 0 0-.003 1.412L14.586 17l-1.417 1.416a1.003 1.003 0 0 0 .003 1.412.996.996 0 0 0 1.412.003L16 18.414l1.416 1.417a1.003 1.003 0 0 0 1.412-.003.996.996 0 0 0 .003-1.412L17.414 17z"/><path d="M16 11a5.972 5.972 0 0 0-3.318 1H2v4h8.083a6.04 6.04 0 0 0 0 2H1.001C.448 18 0 17.555 0 17.007V.993A.995.995 0 0 1 1 0h14c.552 0 1 .445 1 .993V11zM2 2v9h12V2H2z"/><path d="M3 10l2-3 1 1 3-3 4 5z"/><rect x="4" y="13" width="5" height="2" rx="1"/></g></svg>