<?xml version="1.0" encoding="UTF-8"?>
<svg width="24px" height="24px" viewBox="0 0 24 24" version="1.1" xmlns="http://www.w3.org/2000/svg" xmlns:xlink="http://www.w3.org/1999/xlink">
    <!-- Generator: sketchtool 41 (35326) - http://www.bohemiancoding.com/sketch -->
    <title>237BD351-53B7-4389-9633-E6C416FF5D91</title>
    <desc>Created with sketchtool.</desc>
    <defs></defs>
    <g stroke="none" stroke-width="1" fill="none" fill-rule="evenodd">
        <g >
            <g >
                <rect fill="#D8D8D8" opacity="0" x="0" y="0" width="24" height="24"></rect>
                <g opacity="0.25" transform="translate(2.000000, 2.000000)" fill="#303EA0">
                    <path d="M7.468,19.001 C7.447,19.001 7.427,19.001 7.406,18.999 C5.685,18.856 3.836,18.829 1.933,18.812 C1.523,18.808 1.192,18.477 1.189,18.067 C1.171,16.16 1.144,14.305 1.001,12.596 C0.983,12.375 1.063,12.158 1.219,12.002 L12.002,1.22 C12.202,1.02 12.498,0.949 12.767,1.035 C14.206,1.503 15.538,2.318 16.61,3.39 C17.682,4.461 18.497,5.789 18.964,7.232 C19.053,7.501 18.983,7.795 18.781,7.997 L7.997,18.778 C7.857,18.923 7.666,19.001 7.468,19.001 L7.468,19.001 L7.468,19.001 Z M2.686,17.316 C4.231,17.335 5.741,17.366 7.18,17.471 L17.382,7.27 C16.976,6.219 16.344,5.252 15.547,4.454 C14.748,3.656 13.782,3.027 12.734,2.618 L2.529,12.82 C2.635,14.255 2.668,15.766 2.686,17.316 L2.686,17.316 L2.686,17.316 Z" ></path>
                    <path d="M16.443,9.071 C16.344,9.071 16.251,9.034 16.175,8.962 L11.037,3.824 C10.891,3.678 10.891,3.44 11.037,3.294 C11.183,3.147 11.422,3.147 11.568,3.294 L16.706,8.431 C16.852,8.577 16.852,8.815 16.706,8.962 C16.636,9.035 16.539,9.071 16.443,9.071 L16.443,9.071 L16.443,9.071 Z" ></path>
                    <path d="M7.509,18.001 C7.352,18.001 7.204,17.899 7.155,17.741 C6.403,15.429 4.575,13.6 2.264,12.85 C2.067,12.786 1.957,12.574 2.022,12.377 C2.085,12.178 2.299,12.069 2.496,12.135 C5.036,12.959 7.045,14.967 7.87,17.508 C7.933,17.704 7.826,17.917 7.628,17.982 C7.587,17.995 7.547,18.001 7.509,18.001 L7.509,18.001 L7.509,18.001 Z" ></path>
                    <path d="M4.512,18.524 L4.502,18.524 L1.93,18.437 C1.731,18.429 1.575,18.271 1.568,18.074 L1.475,15.393 C1.469,15.193 1.621,15.023 1.82,15.005 C1.936,14.988 1.993,14.984 2.055,14.984 C3.635,14.984 4.922,16.27 4.922,17.852 C4.922,17.956 4.909,18.056 4.895,18.158 C4.866,18.343 4.698,18.524 4.512,18.524 L4.512,18.524 L4.512,18.524 Z M2.305,17.697 L4.167,17.76 C4.122,16.697 3.289,15.834 2.238,15.74 L2.305,17.697 L2.305,17.697 L2.305,17.697 Z" ></path>
                </g>
            </g>
        </g>
    </g>
</svg>