<svg width="24px" height="18px" viewBox="0 0 24 18" version="1.1" xmlns="http://www.w3.org/2000/svg" xmlns:xlink="http://www.w3.org/1999/xlink">
    <title>email</title>
    <g stroke="none" stroke-width="1" fill="none" fill-rule="evenodd">
        <g fill="#231F20">
            <path d="M21.264,17.505 L3.1,17.505 C1.799,17.505 0.741,16.447 0.741,15.147 L0.741,3.264 C0.741,1.964 1.8,0.907 3.1,0.907 L21.264,0.907 C22.563,0.907 23.621,1.965 23.621,3.264 L23.621,15.147 C23.621,16.447 22.562,17.505 21.264,17.505 L21.264,17.505 L21.264,17.505 Z M3.1,2.906 C2.903,2.906 2.741,3.066 2.741,3.263 L2.741,15.146 C2.741,15.343 2.903,15.504 3.1,15.504 L21.264,15.504 C21.461,15.504 21.621,15.343 21.621,15.146 L21.621,3.263 C21.621,3.066 21.461,2.906 21.264,2.906 L3.1,2.906 L3.1,2.906 L3.1,2.906 Z" />
            <path d="M12.182,12.512 C12.063,12.512 11.944,12.47 11.848,12.385 L1.5,3.157 C1.346,3.019 1.291,2.801 1.365,2.606 C1.638,1.888 2.334,1.406 3.099,1.406 L21.263,1.406 C22.029,1.406 22.724,1.888 22.995,2.607 C23.069,2.8 23.015,3.019 22.86,3.157 L12.512,12.385 C12.42,12.47 12.301,12.512 12.182,12.512 L12.182,12.512 L12.182,12.512 Z M2.473,2.685 L12.182,11.342 L21.891,2.684 C21.731,2.511 21.504,2.407 21.264,2.407 L3.1,2.407 C2.857,2.406 2.631,2.511 2.473,2.685 L2.473,2.685 L2.473,2.685 Z" />
            <path d="M21.264,17.005 L3.1,17.005 C2.334,17.005 1.639,16.523 1.366,15.805 C1.292,15.611 1.346,15.392 1.501,15.254 L8.591,8.932 C8.796,8.747 9.112,8.766 9.296,8.972 C9.48,9.178 9.462,9.494 9.257,9.678 L2.472,15.727 C2.632,15.901 2.859,16.005 3.101,16.005 L21.265,16.005 C21.505,16.005 21.732,15.901 21.892,15.728 L15.029,9.608 C14.824,9.424 14.806,9.108 14.99,8.902 C15.172,8.696 15.488,8.677 15.695,8.862 L22.863,15.255 C23.017,15.393 23.072,15.611 22.998,15.805 C22.725,16.522 22.029,17.005 21.264,17.005 L21.264,17.005 L21.264,17.005 Z" />
        </g>
    </g>
</svg>
