<?xml version="1.0" encoding="utf-8"?>
<!-- Generator: Adobe Illustrator 15.0.0, SVG Export Plug-In . SVG Version: 6.00 Build 0)  -->
<!DOCTYPE svg PUBLIC "-//W3C//DTD SVG 1.1//EN" "http://www.w3.org/Graphics/SVG/1.1/DTD/svg11.dtd">
<svg version="1.1" xmlns="http://www.w3.org/2000/svg" xmlns:xlink="http://www.w3.org/1999/xlink" x="0px" y="0px"
	 width="26px" height="26px" viewBox="0 0 26 26" enable-background="new 0 0 26 26" xml:space="preserve">
<path d="M10.216,20.597c-0.203,0-0.41-0.062-0.586-0.191c-0.447-0.323-0.547-0.948-0.221-1.396l4.371-6.009
	l-4.371-6.01C9.083,6.544,9.183,5.919,9.63,5.595c0.445-0.326,1.072-0.227,1.396,0.22l4.799,6.599c0.256,0.352,0.256,0.826,0,1.178
	l-4.799,6.596C10.831,20.454,10.526,20.597,10.216,20.597L10.216,20.597z"/>
<path d="M15.017,14.001H2.61c-0.553,0-1-0.448-1-1c0-0.553,0.447-1,1-1h12.406c0.553,0,1,0.447,1,1
	C16.017,13.553,15.569,14.001,15.017,14.001L15.017,14.001z"/>
<path d="M23.39,24.647c-0.555,0-1-0.447-1-1V2.353c0-0.552,0.445-1,1-1c0.553,0,1,0.448,1,1v21.295
	C24.39,24.2,23.942,24.647,23.39,24.647L23.39,24.647z"/>
<path d="M23.39,3.352H10.005c-0.553,0-1-0.448-1-1s0.447-1,1-1H23.39c0.553,0,1,0.448,1,1S23.942,3.352,23.39,3.352
	L23.39,3.352z"/>
<path d="M23.39,24.647H10.005c-0.553,0-1-0.447-1-1c0-0.552,0.447-1,1-1H23.39c0.553,0,1,0.448,1,1
	C24.39,24.2,23.942,24.647,23.39,24.647L23.39,24.647z"/>
</svg>
