<?xml version="1.0" encoding="UTF-8" standalone="no"?>
<svg width="21px" height="22px" viewBox="0 0 21 22" version="1.1" xmlns="http://www.w3.org/2000/svg" xmlns:xlink="http://www.w3.org/1999/xlink">
    <!-- Generator: Sketch 3.6.1 (26313) - http://www.bohemiancoding.com/sketch -->
    <title>export</title>
    <desc>Created with Sketch.</desc>
    <defs></defs>
    <g stroke="none" stroke-width="1" fill="none" fill-rule="evenodd">
        <g fill="#231F20">
            <path d="M15.456,5.458 C15.273,5.458 15.091,5.403 14.933,5.288 L10.677,2.192 L6.419,5.288 C6.023,5.578 5.464,5.489 5.175,5.092 C4.886,4.694 4.973,4.137 5.372,3.848 L10.153,0.37 C10.465,0.143 10.889,0.143 11.2,0.37 L15.979,3.848 C16.377,4.137 16.466,4.694 16.176,5.092 C16.003,5.331 15.731,5.458 15.456,5.458 L15.456,5.458 L15.456,5.458 Z" ></path>
            <path d="M10.677,11.555 C10.185,11.555 9.786,11.157 9.786,10.665 L9.786,1.09 C9.786,0.598 10.184,0.199 10.677,0.199 C11.17,0.199 11.568,0.598 11.568,1.09 L11.568,10.665 C11.567,11.157 11.169,11.555 10.677,11.555 L10.677,11.555 L10.677,11.555 Z" ></path>
            <path d="M20.025,21.199 L1.324,21.199 C0.832,21.199 0.433,20.8 0.433,20.308 L0.433,14.003 C0.433,13.511 0.831,13.113 1.324,13.113 L7.113,13.113 C7.605,13.113 8.004,13.51 8.004,14.003 L8.004,15.263 L13.347,15.263 L13.347,14.003 C13.347,13.511 13.745,13.113 14.238,13.113 L20.026,13.113 C20.518,13.113 20.917,13.51 20.917,14.003 L20.917,20.308 C20.916,20.8 20.518,21.199 20.025,21.199 L20.025,21.199 L20.025,21.199 Z M2.215,19.418 L19.135,19.418 L19.135,14.895 L15.128,14.895 L15.128,15.264 C15.128,16.246 14.329,17.045 13.347,17.045 L8.004,17.045 C7.023,17.045 6.223,16.246 6.223,15.264 L6.223,14.895 L2.216,14.895 L2.216,19.418 L2.215,19.418 L2.215,19.418 Z" ></path>
            <path d="M1.324,14.895 C1.101,14.895 0.877,14.812 0.705,14.644 C0.352,14.302 0.343,13.738 0.685,13.385 L4.286,9.671 C4.629,9.317 5.192,9.31 5.545,9.652 C5.898,9.994 5.907,10.558 5.564,10.911 L1.964,14.624 C1.789,14.805 1.557,14.895 1.324,14.895 L1.324,14.895 L1.324,14.895 Z" ></path>
            <path d="M20.025,14.895 C19.794,14.895 19.561,14.805 19.387,14.624 L15.787,10.911 C15.445,10.558 15.454,9.994 15.807,9.652 C16.159,9.311 16.724,9.318 17.067,9.672 L20.666,13.385 C21.008,13.739 21,14.302 20.646,14.645 C20.473,14.812 20.25,14.895 20.025,14.895 L20.025,14.895 L20.025,14.895 Z" ></path>
        </g>
    </g>
</svg>