<svg xmlns="http://www.w3.org/2000/svg" width="1600" height="1200" viewBox="-494 -294 1600 1200"><path fill="#231F20" d="M-320.5 541.328h23.456v-144.5H-320.5v-2.962h120.85v36.552h-2.33c-1.835-5.497-3.808-10.318-5.912-14.48-2.118-4.146-4.643-7.663-7.604-10.556-2.964-2.89-6.488-5.033-10.57-6.445-4.085-1.402-9.02-2.11-14.788-2.11h-35.067v68.44h13.728c4.645 0 8.597-.417 11.835-1.266 3.24-.848 6.024-2.428 8.347-4.757 2.322-2.313 4.288-5.487 5.91-9.5 1.62-4.02 3.205-9.192 4.76-15.528h2.32v65.707h-2.32c-.99-4.085-2.014-8.026-3.07-11.84-1.05-3.8-2.528-7.178-4.43-10.14-1.908-2.96-4.438-5.308-7.612-7.076-3.162-1.764-7.29-2.64-12.36-2.64h-17.11v73.102h23.446v2.953H-320.5v-2.952zM-159.515 499.072c0-6.89 1.51-13.31 4.542-19.225 3.03-5.908 6.904-11.013 11.62-15.314 4.718-4.297 10.003-7.638 15.84-10.03 5.84-2.39 11.582-3.598 17.228-3.598 5.623 0 11.368 1.203 17.212 3.598 5.846 2.402 11.124 5.743 15.84 10.03 4.725 4.302 8.592 9.398 11.624 15.314 3.038 5.912 4.548 12.334 4.548 19.225 0 6.627-1.417 12.855-4.228 18.698-2.818 5.85-6.523 10.958-11.096 15.315-4.575 4.367-9.822 7.815-15.738 10.352-5.914 2.53-11.966 3.805-18.162 3.805-6.21 0-12.263-1.273-18.178-3.805-5.91-2.536-11.157-5.984-15.732-10.352-4.583-4.353-8.272-9.465-11.102-15.315-2.814-5.84-4.217-12.07-4.217-18.698zm21.13 0c0 10.004.78 17.96 2.323 23.878 1.547 5.903 3.587 10.455 6.127 13.623 2.532 3.173 5.498 5.248 8.88 6.23 3.374.985 6.97 1.483 10.774 1.483 3.795 0 7.385-.498 10.77-1.483 3.382-.99 6.34-3.068 8.876-6.23 2.53-3.168 4.57-7.706 6.126-13.623 1.546-5.92 2.327-13.88 2.327-23.878 0-8.442-.568-15.52-1.692-21.224-1.132-5.715-2.852-10.353-5.172-13.94-2.327-3.59-5.25-6.164-8.77-7.713-3.526-1.546-7.675-2.32-12.46-2.32-4.793 0-8.954.774-12.464 2.32-3.525 1.554-6.454 4.122-8.77 7.714-2.333 3.586-4.056 8.232-5.18 13.938-1.142 5.7-1.698 12.777-1.698 21.224zM-7.82 541.328H8.443v-84.716H-7.82v-2.953h34.007v21.33h.424c.556-2.106 1.476-4.502 2.746-7.177 1.267-2.673 3.023-5.245 5.28-7.71 2.252-2.462 4.964-4.537 8.136-6.227 3.17-1.688 7.005-2.537 11.508-2.537 3.24 0 6.06.526 8.45 1.587 2.395 1.054 4.37 2.4 5.918 4.012 1.546 1.624 2.673 3.477 3.383 5.596.705 2.112 1.056 4.23 1.056 6.34 0 4.65-1.055 7.747-3.172 9.298-2.117 1.546-4.577 2.313-7.394 2.313-6.203 0-9.294-1.97-9.294-5.905 0-1.273.136-2.288.427-3.068.278-.77.598-1.547.943-2.316.355-.773.67-1.656.956-2.642.278-.987.413-2.4.413-4.227 0-4.5-2.458-6.756-7.387-6.756-2.26 0-4.644.847-7.178 2.537-2.533 1.69-4.894 4.16-7.085 7.395-2.183 3.233-4.015 7.156-5.488 11.73-1.48 4.578-2.215 9.826-2.215 15.73v48.384h18.373v2.954h-52.81v-2.963h.006v-.013zM116.395 541.328h16.26V394.936h-16.26v-2.964h34.427v78.583h.42c1.97-5.49 5.353-10.148 10.143-13.942 4.79-3.808 11.058-5.707 18.8-5.707 6.054 0 11.76 1.308 17.113 3.904 5.35 2.61 10.07 6.063 14.155 10.353 4.09 4.297 7.317 9.33 9.716 15.105 2.395 5.772 3.59 11.833 3.59 18.168 0 6.48-1.23 12.648-3.696 18.494-2.46 5.84-5.807 11.013-10.034 15.52-4.227 4.505-9.12 8.1-14.688 10.78-5.562 2.673-11.443 4.018-17.642 4.018-4.79 0-8.835-.812-12.143-2.435-3.31-1.616-6.063-3.55-8.242-5.814-2.18-2.244-3.84-4.573-4.96-6.97-1.13-2.4-1.976-4.44-2.54-6.127h-.415v18.378h-34.008l.003-2.952zm87.244-45.426c0-6.47-.356-12.28-1.06-17.428-.707-5.133-1.934-9.53-3.693-13.203-1.758-3.66-4.23-6.47-7.392-8.446-3.174-1.97-7.22-2.953-12.145-2.953-5.216 0-9.512.92-12.89 2.75-3.383 1.834-6.125 4.155-8.237 6.975-1.554 1.966-2.796 4.085-3.705 6.34-.904 2.257-1.65 4.936-2.214 8.024-.563 3.102-.95 6.662-1.158 10.674-.22 4.014-.322 8.765-.322 14.254 0 4.648.354 9.433 1.058 14.366.702 4.932 2.05 9.398 4.013 13.416 1.97 4.012 4.753 7.292 8.348 9.823 3.593 2.53 8.347 3.807 14.258 3.807 5.772 0 10.35-1.12 13.74-3.383 3.372-2.256 5.904-5.49 7.603-9.716 1.698-4.22 2.74-9.332 3.163-15.32.426-5.994.633-12.647.633-19.978zM407.094 391.97h34.44v149.364H457.8v2.955h-34.015v-18.384h-.42c-.568 1.688-1.41 3.73-2.53 6.13-1.138 2.394-2.784 4.723-4.964 6.97-2.192 2.263-4.93 4.19-8.245 5.812-3.314 1.622-7.36 2.432-12.148 2.432-6.197 0-12.074-1.34-17.645-4.017-5.56-2.68-10.455-6.268-14.674-10.78-4.23-4.51-7.582-9.684-10.045-15.52-2.46-5.844-3.7-12.015-3.7-18.49 0-6.337 1.2-12.387 3.604-18.17 2.398-5.774 5.62-10.81 9.71-15.108 4.083-4.294 8.792-7.742 14.16-10.35 5.337-2.602 11.052-3.91 17.103-3.91 7.748 0 14.006 1.906 18.816 5.71 4.787 3.795 8.158 8.448 10.14 13.942h.417v-75.62h-16.27v-2.968zM370.554 495.9c0 7.326.204 13.976.63 19.958.422 5.99 1.48 11.11 3.162 15.325 1.7 4.224 4.23 7.468 7.61 9.713 3.39 2.262 7.96 3.39 13.74 3.39 5.91 0 10.67-1.277 14.253-3.812 3.59-2.528 6.364-5.813 8.343-9.825 1.963-4.008 3.307-8.478 4.014-13.414.703-4.932 1.057-9.714 1.057-14.36 0-5.496-.1-10.25-.326-14.264-.207-4.01-.588-7.566-1.16-10.667-.56-3.094-1.342-5.767-2.324-8.025s-2.18-4.367-3.586-6.338c-2.113-2.824-4.86-5.133-8.242-6.978-3.387-1.824-7.684-2.746-12.893-2.746-4.922 0-8.967.982-12.143 2.953-3.166 1.977-5.64 4.796-7.38 8.445-1.774 3.67-3.007 8.07-3.704 13.206-.708 5.16-1.053 10.973-1.053 17.442zM570.396 391.97h34.44v149.364H621.1v2.955h-34.015v-18.384h-.418c-.562 1.688-1.408 3.73-2.54 6.13-1.122 2.394-2.782 4.723-4.954 6.97-2.178 2.263-4.945 4.19-8.248 5.812-3.314 1.622-7.357 2.432-12.145 2.432-6.203 0-12.08-1.34-17.637-4.017-5.576-2.68-10.47-6.268-14.688-10.78-4.23-4.51-7.586-9.684-10.033-15.52-2.467-5.844-3.7-12.015-3.7-18.49 0-6.337 1.187-12.387 3.59-18.17 2.4-5.774 5.624-10.81 9.714-15.108 4.08-4.294 8.807-7.742 14.16-10.35 5.348-2.602 11.053-3.91 17.113-3.91 7.735 0 14.003 1.906 18.796 5.71 4.783 3.795 8.164 8.448 10.143 13.942h.42v-75.62h-16.27v-2.968h.006zM533.85 495.9c0 7.326.207 13.976.63 19.958.423 5.99 1.48 11.11 3.18 15.325 1.683 4.224 4.216 7.468 7.6 9.713 3.39 2.262 7.956 3.39 13.728 3.39 5.914 0 10.676-1.277 14.266-3.812 3.586-2.528 6.377-5.813 8.34-9.825 1.963-4.008 3.3-8.478 4.018-13.414.7-4.932 1.053-9.714 1.053-14.36 0-5.496-.1-10.25-.31-14.264-.226-4.01-.616-7.566-1.18-10.667-.556-3.094-1.335-5.767-2.32-8.025-.976-2.26-2.18-4.367-3.587-6.338-2.115-2.824-4.86-5.133-8.238-6.978-3.39-1.824-7.67-2.746-12.893-2.746-4.928 0-8.97.982-12.133 2.953-3.182 1.977-5.645 4.796-7.4 8.445-1.768 3.67-2.996 8.07-3.705 13.206-.695 5.16-1.05 10.973-1.05 17.442zM695.896 491.898c0 1.396-.06 2.84-.105 4.328-.08 1.486-.1 3.34-.1 5.598 0 4.646.27 9.508.83 14.573.562 5.072 1.808 9.65 3.71 13.732 1.89 4.08 4.707 7.467 8.443 10.137 3.72 2.678 8.69 4.012 14.883 4.012 6.195 0 11.305-.913 15.32-2.747 4.02-1.837 7.186-4.05 9.514-6.655 2.324-2.604 4.04-5.254 5.176-7.916 1.13-2.68 1.97-4.863 2.54-6.553l3.175.63c-.427 1.552-1.255 3.766-2.43 6.653-1.208 2.895-3.106 5.77-5.716 8.667-2.61 2.896-6.135 5.424-10.57 7.604-4.42 2.18-10.164 3.275-17.217 3.275-7.035 0-13.55-1.136-19.537-3.387-5.992-2.248-11.162-5.5-15.53-9.72-4.372-4.215-7.755-9.253-10.142-15.102-2.39-5.845-3.582-12.353-3.582-19.54 0-6.205 1.234-12.216 3.697-18.057 2.46-5.843 5.854-11.02 10.14-15.524 4.298-4.505 9.325-8.134 15.108-10.88 5.774-2.75 11.968-4.127 18.597-4.127 3.943 0 8.16.71 12.676 2.117 4.508 1.412 8.695 3.7 12.57 6.865 3.873 3.165 7.098 7.365 9.715 12.57 2.598 5.208 3.912 11.695 3.912 19.443h-65.074zm43.506-2.968c.285-1.957.426-3.794.426-5.49v-5.276c0-4.798-.457-8.738-1.38-11.84-.917-3.09-2.18-5.565-3.806-7.382-1.623-1.834-3.586-3.142-5.91-3.91-2.318-.782-4.83-1.17-7.502-1.17-4.773 0-8.732.948-11.828 2.848-3.086 1.907-5.57 4.473-7.396 7.714-1.828 3.233-3.193 6.976-4.11 11.196-.917 4.224-1.51 8.662-1.804 13.308h43.31v.002zM813.982 541.328h16.27v-84.716h-16.27v-2.953h34.006v22.6h.436c.836-1.833 2.06-4.16 3.69-6.97 1.62-2.826 3.853-5.577 6.653-8.25s6.344-4.96 10.572-6.864c4.21-1.905 9.362-2.852 15.415-2.852 9.295 0 16.863 2.262 22.725 6.763 5.832 4.505 8.75 11.69 8.75 21.544v61.69h16.27v2.956h-50.705v-2.956h16.27v-68.24c0-5.49-1.306-10.007-3.91-13.52-2.6-3.522-6.647-5.285-12.153-5.285-4.492 0-8.797.992-12.885 2.966-4.08 1.97-7.658 4.715-10.764 8.238-3.107 3.52-5.537 7.672-7.287 12.462-1.773 4.795-2.64 10.007-2.64 15.635v47.75h16.255v2.954h-50.69v-2.954h-.008v.002z"/><path d="M72.82 263.736c15.684 10.348 37.782 4.278 47.183-8.206-15.67-.516-37.815-13.095-47.182 8.206zm49.226-47.174c-.054 16.46 13.83 18.983 22.568 26.667.59-12.275-3.37-28.42-22.568-26.668zm0 79.988c15.274-1.6 17.85-24.333 10.263-36.916-5.686 10.39-15.78 21.448-10.264 36.916zm121.018-194.846c-1.245 21.073 12.37 27.28 34.875 24.615-5.16-14.677-17.26-22.407-34.876-24.616zm104.606 63.582c-6.3 21.045 3.79 33.247 14.365 43.076 7.127-20.823-4.63-33.112-14.365-43.076zm-55.38 2.053c-1.355 19.83 2.727 45.108-2.052 61.526-12.394-13.876-33.3-30.59-55.376-22.565 6.43 16.828 22.184 28.173 47.17 20.517 15.523 6.237 8.83 31.558 8.21 49.23-25.168-30.204-73.855-36.912-90.25-75.893 3.038-14.06 17.334-16.854 20.51-30.772-3.29-3.547-.992-12.68-6.145-14.36-15.757 8.742-21.11 22.087-16.42 47.17-9.398-7.683-18.355-15.83-22.56-28.72 10.082-7.74 28.114-13.642 20.513-32.813-17.79.662-18.436 18.483-24.62 30.763-2.6-4.91-7.483-7.544-6.146-16.407 17.316-6.388 12.043-29.983 4.104-43.078-20.464 6.325-6.104 31.74-8.213 45.125-23.922-13.676-10.53-64.673-51.27-61.524 5.916 34.416 46.983 44.62 51.27 73.83-10.845-9.896-32.37-10.266-38.97 4.102 13.22 11.365 27.83 1.004 45.127 0 5.104 3.096 9.37 7.033 10.255 14.363-12.826-3.16-36.936-9.506-41.024 6.158 7.617 1.26 12.89 4.88 20.515 6.15 6.295-4.647 14.01-7.864 22.562-10.255 4.575 3.042 14.213 11.646 10.26 16.406-14.064-9.022-37.268-7.072-45.123 6.155 15.2 12.347 38.062 3.035 51.27-4.103 6.895 10.88 19.474 16.086 24.61 28.718-29.37-3.24-57.543 5.164-75.882 6.157-2.39 7.862-17.05 7.374-22.568 6.158 5.637-22.082-13.81-29.908-26.665-26.667.82 17.218 28.757 17.374 24.62 32.817 4.043-.673 14.644-6.35 12.308 4.104h2.044c-.963-11.902 12-9.875 20.515-12.31 7.21 17.52-16.973 27.863-2.053 43.08 19.82-5.716 3.432-27.12 6.147-45.127 85.944-20.99 147.998 24.35 125.123 118.97-10.934-6.852-25.874-9.687-32.817-20.52 10.128-10.288 28.45-21.33 18.457-45.118-20.203 2.352-17.682 27.433-22.562 45.116-7.637-4.656-15.596-9.003-16.41-20.506 3.34-4.88 4.617-11.793 8.208-16.415-1.674-13.355-10.84-19.235-12.302-32.81-19.82 12.21-4.217 40.044 2.052 55.374-1.285-.01-2.018-.57-2.602-1.282-.233-.382-.502-.757-.798-1.14-.292-.445-.62-.867-1.02-1.21-3.17-3.485-8.064-6.847-11.244-8.7-8.623-14.107-17.433-35.39-43.823-24.59 3.09 20.103 24.547 21.834 43.35 26.23 2.094 1.967 5.153 4.46 7.94 6.573-.008.01-.008.01-.02.01 4.066 12.455-16.63 2.068-24.608 2.05-9.834 7.95-16.342 19.207-26.662 26.666 8.517 1.735 15.222 5.28 26.662 4.1 12.205-5.574 13.297-22.26 28.717-24.623 7.41 2.167 11.352 7.795 16.41 12.312-10.003 11.403-36.013 17.047-30.77 36.932 12.466.154 16.928-7.693 26.667-10.26 1.427-8.837-.253-20.764 6.15-24.62 15.976 5.905 28.2 15.563 41.025 24.62.417 63.287-1.958 123.798-16.966 171.664h38.596c-8.675-63.95-7.107-138.157-7.274-210.645 11.816-3.226 20.71-9.373 34.88-10.245 12.364 24.23 40.116 6.042 59.47 6.15-17.46-27.72-48.148-14.798-73.838-10.257 14.79-9.842 39.02-21.115 30.77-47.167-36.827-1.288-21.65 49.455-51.277 55.376-10.843-55.474 35.127-84.01 79.993-63.59-3.766 14.113-9.277 28.54-2.043 43.08 19.27-8.134 15.783-31.252 4.096-45.12 11.57.06 20.047 3.214 26.666 8.21-2.556 18.534-10.983 35.26 0 51.274 19.827-9.33 2.747-37.02 4.104-49.225 4.68 1.95 7.033 6.217 12.145 7.744 5.272 3.03 11.306 6.226 10.41 10.72-3.837 6.428-6.253 14.25-10.247 20.506 3.074 8.55 5.818 17.427 12.31 22.562 6.688-16.594 5.388-28.56 0-45.117 13.87 4.514 12.907 23.873 28.567 26.627-.355-.17-.656-.354-.86-.553l.995.583c-.047-.003-.088-.02-.135-.037 3.855 1.9 16.023 2.338 20.656 2.086-.393-26.962-34.732-19.967-49.22-32.812 26.677 4.112 32.07-13.05 45.116-22.576-24.648-8.18-38.988 6.004-47.168 20.523-2.193.156-6.713-3.306-10.816-6.042-.79-.63-1.693-1.147-2.62-1.64-.54-.316-1.08-.608-1.585-.836-2.912-1.557-5.592-3.336-5.477-7.91 26.383 5.198 32.834-9.54 38.97-24.61-28.66-5.413-28.864 17.63-45.128 24.61-17.777-9.56-44.178-10.506-67.69-14.353 4.59-4.31 5.013-12.78 12.317-14.363 18.07 5.006 28.357 21.288 49.22 8.205-7.458-23.167-37.103-4.08-47.17-14.355 11.886-12.72 22.665-26.57 32.815-41.027 10.293 9.882 38.244 12.377 43.074-4.105-13.84-9.968-28.162 1.108-41.02 4.105-2.002-2.4-1.604-2.882-.953-4.006 18.048-6.17 35.18-20.282 37.878-41.12-8.924-.036-18.46-.68-24.625 2.057-5.21 9.34-12.434 23.895-15.15 36.816-2.236 1.74-4.023 2.97-5.36-1.966 3.08-5.8 4.286-13.483 6.16-20.507-3.73-8.57-11.206-13.405-16.41-20.51-7.79 21.09-.747 36.938 10.25 49.22-4.978 6.53-10.25 21.79-18.446 18.464-.074 11.604-11.385 22.75-16.418 22.563 5.04-14.94.087-34.952-16.407-26.664 3.45 10.23 11.328 16.023 14.357 26.664-8.447 18.908-32.678 32.965-45.13 41.027.143-24.898-10.272-69.623 8.208-82.044 22.264 1.052 34.89-7.504 38.97-24.62-28.956-5.695-32.843 24.573-49.23 24.62 1.592-12.527-2.68-19.19-2.05-30.774 8.506-3.12 18.063-5.188 30.775-4.1 8.793-6.23 15.53-14.554 18.457-26.665-28.598-2.628-32.832 19.127-49.23 28.71-2.67-8.937-6.187-17.047-6.15-28.71 23.16-4.19 38.888-15.82 38.982-43.078-27.07.974-26.59 29.48-43.082 41.027-5.174-17.062 3.372-22.952 6.152-36.922-4.245-10.116-11.997-16.72-18.46-24.614-2.986 10.005-7.487 18.484-6.148 32.814 5.103 6.275 23.702 19.45 12.307 28.72v2.068c8.404.553 10.923 17.694 8.204 22.562-6.36-11.646-34.978-22.475-45.125-6.15 11.818 6.25 26.752 19.605 41.02 6.15 2.063 4.09 9.07 3.235 8.208 10.252"/><path d="M292.29 167.34l-2.052-6.16c-2.704 4.144-6.733 6.945-12.302 8.208l6.512 1.87c2.83-1.09 4.937-2.898 7.843-3.92z"/><circle fill="#BE1E2D" cx="271.097" cy="181.33" r="16.732"/></svg>