<?xml version="1.0" encoding="utf-8"?>
<!-- Generator: Adobe Illustrator 15.0.0, SVG Export Plug-In . SVG Version: 6.00 Build 0)  -->
<!DOCTYPE svg PUBLIC "-//W3C//DTD SVG 1.1//EN" "http://www.w3.org/Graphics/SVG/1.1/DTD/svg11.dtd">
<svg version="1.1" xmlns="http://www.w3.org/2000/svg" xmlns:xlink="http://www.w3.org/1999/xlink" x="0px" y="0px"
	 width="26px" height="26px" viewBox="0 0 26 26" enable-background="new 0 0 26 26" xml:space="preserve">
<path d="M13.499,13.951c-0.207,0-0.414-0.064-0.588-0.191L7.544,9.854C7.097,9.53,6.997,8.904,7.323,8.458
	c0.322-0.447,0.949-0.547,1.396-0.22l4.779,3.477l4.781-3.477c0.447-0.326,1.072-0.227,1.396,0.22
	c0.324,0.447,0.228,1.072-0.221,1.397l-5.369,3.905C13.911,13.887,13.704,13.951,13.499,13.951L13.499,13.951z"/>
<path d="M23.999,17.701c-0.26,0-0.521-0.102-0.717-0.305l-4.043-4.169c-0.386-0.396-0.375-1.029,0.021-1.414
	c0.396-0.383,1.029-0.375,1.414,0.022l4.043,4.17c0.385,0.396,0.375,1.029-0.021,1.414C24.501,17.607,24.251,17.701,23.999,17.701
	L23.999,17.701z"/>
<path d="M2.999,17.701c-0.25,0-0.502-0.094-0.695-0.281c-0.396-0.385-0.406-1.018-0.021-1.414l4.041-4.17
	c0.387-0.398,1.02-0.406,1.414-0.022c0.396,0.385,0.406,1.018,0.021,1.414l-4.041,4.168C3.521,17.6,3.261,17.701,2.999,17.701
	L2.999,17.701z"/>
<path d="M13.499,13.951c-0.553,0-1-0.448-1-1V2.199c0-0.552,0.447-1,1-1c0.553,0,1,0.448,1,1v10.752
	C14.499,13.503,14.052,13.951,13.499,13.951L13.499,13.951z"/>
<path d="M23.999,24.779h-21c-0.553,0-1-0.447-1-1v-7.078c0-0.553,0.447-1,1-1h6.5c0.553,0,1,0.447,1,1v1.414h6v-1.414
	c0-0.553,0.446-1,1-1h6.5c0.553,0,1,0.447,1,1v7.078C24.999,24.332,24.552,24.779,23.999,24.779L23.999,24.779z M3.999,22.779h19
	v-5.078h-4.5v0.414c0,1.104-0.896,2-2,2h-6c-1.102,0-2-0.896-2-2v-0.414h-4.5V22.779L3.999,22.779z"/>
</svg>
