<svg xmlns="http://www.w3.org/2000/svg" width="14" height="18" viewBox="0 0 14 18">
    <g fill="#4E5366" fill-rule="nonzero">
        <path d="M1.425 16.13c1.509 1.015 3.612.644 4.683-.825l2.288-3.137a3.152 3.152 0 0 0-.602-4.37.608.608 0 0 0-.587-.087.588.588 0 0 0-.377.45.556.556 0 0 0 .212.533c.88.686 1.06 1.902.387 2.824l-2.234 3.44c-.703.963-2.114 1.212-3.104.546-.99-.665-1.27-2.254-.567-3.218l2.36-3.15a.557.557 0 0 0 .062-.574.583.583 0 0 0-.487-.328.61.61 0 0 0-.541.252L.63 11.623a3.156 3.156 0 0 0 .795 4.508zm4.179-6.115a.611.611 0 0 0 .836-.092.558.558 0 0 0-.084-.805C5.476 8.432 5.18 7 5.852 6.078L8.23 3.001c.703-.964 2.268-.834 3.535-.495 1.268.338 1.434 2.096.252 3.262L9.513 8.676a.557.557 0 0 0-.061.574.583.583 0 0 0 .487.328.61.61 0 0 0 .541-.252l2.718-3.682c.633-2.825-.56-4.188-2.112-4.24-1.552-.054-2.847.048-3.797 1.103L5.002 5.644a3.152 3.152 0 0 0 .602 4.37z"/>
        <path d="M.754 11.884a3.275 3.275 0 0 0 .825 4.677c1.566 1.052 3.747.667 4.859-.857l2.373-3.255a3.27 3.27 0 0 0-.625-4.534.631.631 0 0 0-.609-.09.61.61 0 0 0-.39.467.577.577 0 0 0 .22.553c.912.712 1.098 1.973.4 2.93L5.436 15.03a2.3 2.3 0 0 1-3.144.554 2.099 2.099 0 0 1-.534-3.026L4.13 9.303a.578.578 0 0 0 .064-.595.605.605 0 0 0-.505-.34.632.632 0 0 0-.561.261L.754 11.884zM5.29 5.681a3.27 3.27 0 0 0 .624 4.534.634.634 0 0 0 .868-.095.579.579 0 0 0-.088-.835c-.913-.712-1.099-1.973-.401-2.93L8.666 3.1a2.3 2.3 0 0 1 3.144-.554 2.099 2.099 0 0 1 .533 3.026L9.97 8.827a.578.578 0 0 0-.063.595.605.605 0 0 0 .505.34.632.632 0 0 0 .561-.261l2.373-3.255a3.275 3.275 0 0 0-.824-4.676c-1.566-1.053-3.748-.668-4.86.856L5.29 5.681z"/>
    </g>
</svg>
