<svg xmlns="http://www.w3.org/2000/svg" width="24" height="26" viewBox="0 0 24 26">
    <g fill="none" fill-rule="evenodd">
        <path fill="none" d="M0 1h24v24H0z"/>
        <path fill="#FFF" fill-rule="nonzero" d="M3.722 21.148c1.692 1.629 4.451 1.628 6.144 0l3.614-3.479a4.072 4.072 0 0 0 .214-5.696.786.786 0 0 0-.727-.24.76.76 0 0 0-.58.487.719.719 0 0 0 .15.726c.966 1.07.92 2.657-.141 3.68L8.782 20.5c-1.111 1.069-2.961 1.069-4.072 0-1.11-1.069-1.11-3.153 0-4.222L8.42 12.8a.72.72 0 0 0 .207-.717.753.753 0 0 0-.546-.526.787.787 0 0 0-.745.199l-3.614 3.478a4.078 4.078 0 0 0 0 5.914zm6.689-6.844a.79.79 0 0 0 1.084.07.72.72 0 0 0 .073-1.043c-.965-1.07-1.02-2.959.042-3.981l3.714-3.38c1.11-1.069 3.065-.866 4.176.203 1.11 1.069.91 2.757-.2 3.826l-3.615 3.478a.72.72 0 0 0-.207.717c.07.257.28.458.547.526a.787.787 0 0 0 .744-.199l3.614-3.478c1.693-1.63 1.177-4.784-.103-5.914C19 4 15.685 4 14.24 5.13l-3.615 3.479a4.072 4.072 0 0 0-.214 5.696z"/>
        <path fill="#FFF" fill-rule="nonzero" d="M2.854 15.414a4.503 4.503 0 0 0 0 6.53c1.869 1.798 4.915 1.798 6.784 0l3.99-3.841c1.788-1.72 1.874-4.477.237-6.29a.868.868 0 0 0-.803-.265.839.839 0 0 0-.64.538.793.793 0 0 0 .165.802c1.067 1.18 1.017 2.934-.156 4.062l-3.99 3.841a3.164 3.164 0 0 1-4.39 0c-1.226-1.18-1.226-3.044 0-4.225l3.99-3.84a.795.795 0 0 0 .23-.792.831.831 0 0 0-.604-.58.869.869 0 0 0-.822.22l-3.99 3.84zm7.623-7.317c-1.788 1.721-1.874 4.477-.237 6.29a.872.872 0 0 0 1.197.078.795.795 0 0 0 .081-1.153c-1.066-1.18-1.017-2.934.156-4.062l3.99-3.841a3.164 3.164 0 0 1 4.39 0c1.226 1.18 1.226 3.044 0 4.225l-3.99 3.84a.795.795 0 0 0-.229.792.831.831 0 0 0 .603.58c.296.075.61-.009.823-.22l3.99-3.84a4.503 4.503 0 0 0 0-6.53c-1.869-1.798-4.915-1.798-6.784 0l-3.99 3.841z"/>
    </g>
</svg>
