<?xml version="1.0" encoding="utf-8"?>
<!-- Generator: Adobe Illustrator 15.0.0, SVG Export Plug-In . SVG Version: 6.00 Build 0)  -->
<!DOCTYPE svg PUBLIC "-//W3C//DTD SVG 1.1//EN" "http://www.w3.org/Graphics/SVG/1.1/DTD/svg11.dtd">
<svg version="1.1" xmlns="http://www.w3.org/2000/svg" xmlns:xlink="http://www.w3.org/1999/xlink" x="0px" y="0px"
	 width="644.697px" height="837.777px" viewBox="0 0 644.697 837.777" enable-background="new 0 0 644.697 837.777"
	 xml:space="preserve">
<g >
	<path fill="rgb(216, 220, 240)" d="M200.307,86.56c-0.19-0.74-0.65,0.19-1.03,0.28c-0.37,0.09-1.11-0.28-1.3-0.56
		c-0.18-0.28-1.02-0.09-1.86-0.09c-0.83,0-2.41,1.39-2.41,1.39l-1.03-1.58l0.19-2.32l-0.93-0.75c0,0,0.37-3.99,0.37-4.37
		c0-0.37-0.28-0.74-0.74-1.48c-0.47-0.75,1.21-1.4,1.21-1.4l-0.1-4.09l0.75-0.28l-1.86-10.04l2.51-1.21l-0.28-1.21l1.67-0.74
		c0,0,0-0.84,0-2.04c0-1.21-9.11-16.46-9.48-17.2c-0.37-0.75-0.19-2.51,0.28-3.16c0.46-0.66,1.77-0.38,2.42-0.28
		c0.65,0.09,2.6,0.55,5.02,0.74c2.41,0.19,4.37-0.28,4.37-0.28l1.39,1.86l-0.46,1.77c2.41,0,8.08-1.12,9.01-1.58
		c0.93-0.47,2.61-3.16,2.79-3.72c0.19-0.56,1.12-0.47,1.68-0.65c0.55-0.19,1.02-1.21,1.02-1.21l27.33,18.87l1.3-1.21l2.05,1.3
		l-0.19,2.33l6.23,4.74c0,0-2.23,3.35-2.41,3.81c-0.19,0.47-0.38,0.84,0.46,0.93c0.84,0.1,2.05-0.46,2.88-0.09
		c0.84,0.37,1.49,1.49,1.49,2.32c0,0.84-0.37,1.77,0.19,1.86c0.55,0.1,1.3,0.84,1.02,1.12c-0.28,0.28-0.74,1.21-0.74,1.76
		c0,0.56-1.86,7.07-2.05,7.63s-0.56,2.32,0.56,2.42c1.11,0.09,1.58,0.09,1.58,0.09s0.18,1.3-0.75,1.39c-0.93,0.1-3.71,0.1-4.83-0.55
		c-1.12-0.66-1.3-1.03-1.3-1.77c0-0.75,0-0.75,0-0.75l-1.49-2.51l-1.39-0.27l-2.14-2.98c0,0,0.37-1.58-0.56-1.58
		c-0.93,0-2.6-0.46-3.16-0.28c-0.56,0.19-1.77,0.74-2.14,0.28c-0.37-0.46-0.65-1.12-1.11-1.12c-0.47,0-1.49,0.1-1.96-0.27
		c-0.46-0.38-1.67-1.49-2.69-0.75c-1.03,0.75-1.3,0.65-1.12,1.68c0.19,1.02,0.74,1.58,0.19,2.04c-0.56,0.47-3.35,0.84-3.35,0.84
		s0.28,3.25-0.74,4.37l1.58,0.37l-0.19,1.86l-2.04-0.47c0,0,0.18,1.77,0.92,2.98l-2.04,2.23c0,0-0.84,0.56-0.19,1.21
		c0.65,0.65,1.86,1.77,2.05,2.7c0.18,0.92,0.65,2.23,0.65,2.23h3.81c0,0-0.09,3.99-0.18,4.65c-0.1,0.65-0.47,2.97-0.47,2.97
		s-5.86-0.09-6.69-0.09c-0.84,0-1.12-1.3-1.12-1.3l-0.09-2.24c0,0-3.26-1.3-3.63-1.39c-0.37-0.09-1.21-0.47-1.86-1.12
		s-4.09-2.69-4.09-2.69s-1.3-0.37-2.14-0.37c-0.83,0-1.76,0.37-2.6,0.65c-0.84,0.28-0.37-1.21-0.09-2.05
		c0.28-0.84-1.3-0.74-1.86-0.74c-0.56,0-0.65,1.3-0.93,1.76c-0.28,0.47-1.67-0.09-2.42-0.37
		C200.307,88.51,200.487,87.3,200.307,86.56z"/>
	<path fill="rgb(216, 220, 240)" d="M228.447,388l3-4l3,0.75c0,0,4.75-4.25,6.5-6.75s-1.25-5.75-1.25-5.75
		c2-3.75,9.25-9.5,12-10.5s6.25-1.5,8-1.25s4,1.5,5.5,0.5s0.25-5,0.25-5l3.25,0.25c0,0,0.75,4,1.25,6.25s7.5,1.75,7.5,1.75
		l0.25-4.75h4.75c0,0,0-4-0.25-6s-3.25-2.75-3.25-2.75l1.75-3.5c0,0,6.75,1.5,9.5,1.75s4.61,1.6,4.61,1.6s-1.18,2.58-1.67,3
		c-0.49,0.42-1.81,1.11-1.53,1.601c0.27,0.49,1.81,3.069,1.46,3.7c-0.35,0.63-1.12,0.83-1.6,1.25c-0.49,0.42-1.89,0.979-2.17,1.26
		c-0.27,0.28-1.81,2.3-2.16,2.79c-0.35,0.479-2.02,2.439-1.74,3.06c0.28,0.63,1.11,2.37,0.56,3c-0.56,0.63-1.54,1.33-1.33,2.16
		c0.21,0.84,0.84,1.68,1.4,1.82c0.56,0.14,1.81,1.74,1.88,2.09s0.42,1.32,0.63,1.39c0.21,0.07,2.02,1.19,2.02,1.19
		s1.46-0.42,2.02-0.771c0.56-0.35,1.95-1.67,1.95-1.67l2.79,1.67l1.26,0.07l1.81,1.26l-0.28,1.67l1.47,1.74l1.53-0.76l1.47,1.25
		l-0.21,2.02l4.04,3.63l0.7-0.979l-0.84-1.11l5.3-5.93l1.05,0.21l-0.49,2.51c0,0,3.14,0.98,4.88,0.28l0.35-2.02
		c0,0,3.97,0.21,5.51,1.18l0.76-3.62c0,0,0.35-1.82,0.63-2.17c0.28-0.34,1.601-0.62,2.091-0.97c0.49-0.351,0.77-2.58,0.77-2.931
		c0-0.35,0.07-6.62,0.07-6.62s-0.91-0.279-0.91-0.699s-0.42-1.19-0.561-1.61c-0.129-0.41,0.91-1.53,1.19-1.88
		c0.28-0.351,0-2.16,0-2.16s-0.42-0.56-1.12-1.25c-0.689-0.7,0.07-3.28,0.07-3.28s2.24-0.7,3-0.7c0.77,0,5.16-0.279,5.16-0.279
		l13.28,20.58l20.609,31.93c0,0,4.25,5.51,9.479,7.81c5.23,2.301,14.09,6.131,14.09,6.131s0.49,0.909,0.7,1.189
		s0.21,0.561,0.55,0.771c0.351,0.21,0.841,0.83,0.91,1.18c0.07,0.35,0.98,1.81,1.53,1.88c0.561,0.07,1.54,0.56,1.4,0.98
		c-0.14,0.42-1.12,1.05-1.26,0.699c-0.141-0.35-1.391-1.33-1.74-0.84c-0.351,0.49-0.979,1.19-1.53,1.26
		c-0.561,0.061-2.03-0.279-2.51-0.35c-0.49-0.07-2.101,0.21-1.891,0.83c0.211,0.63,1.471,2.79,0.911,3
		c-0.561,0.21-1.321,1.05-0.911,1.33c0.42,0.28,3.211,1.81,3.771,1.88s1.67,0.56,1.67,0.56s-0.07,0.9,0.21,1.04
		c0.28,0.141,1.74,0.98,1.74,0.98l0.28,3.42l-0.9,0.62l0.41,1.12l1.96,0.7l-1.4,5.779l-0.689-0.069c0,0-1.82,2.649-3.77,2.17
		c-1.951-0.49-7.531-2.65-7.531-2.65s-6.76,5.37-7.25,5.85c-0.489,0.49-1.469,2.171-2.16,3.141c-0.699,0.979-3.559,2.859-5.439,3.7
		c-1.88,0.83-4.739,1.18-5.65,1.18c-0.91,0-1.6,0.21-2.229,0.42s-3.56,1.4-3.56,1.4s-0.28,1.67-0.631,2.51
		c-0.34,0.83-0.619,1.81-0.27,2.16c0.351,0.35,1.109,1.319,1.109,1.739c0,0.421-0.209,2.511,0.281,2.86
		c0.489,0.351,1.189,0.42,1.879-0.07c0.701-0.489,1.681-1.88,2.301-1.88c0.63,0,1.959,0.141,2.51,0.49c0.561,0.34,3,1.74,4.12,1.74
		c1.109,0,4.529,0.14,5.229,0.21s3.83,1.04,4.25,1.46c0.421,0.42,0.91,1.61,1.12,1.88c0.21,0.28,0.9,0.91,1.671,1.12
		c0.77,0.21,2.509,0.56,2.93,1.18c0.42,0.63,4.95,5.23,4.95,5.23s-0.141,1.96-0.7,2.24c-0.55,0.279-1.18,0.689-1.18,1.109
		s-0.281,2.09-0.281,2.09s-2.649-0.14-2.649,0.351c0,0.489-0.49,3.279,0,3.42c0.489,0.14,0.77,0.42,1.319-0.07
		c0.561-0.49,0.631-1.12,1.051-0.979c0.42,0.14,1.811,0.84,2.09,0.84s0.84-0.42,1.12-0.28s1.53,0.35,1.88,0.21
		c0.351-0.14,2.72-1.12,3.35-1.12c0.62,0,2.58-0.06,2.58-0.06l0.69-2.101l-6.67-4.31c0.4,0.13,6.3,1.96,9.319-3.43l7.19-0.07
		l-2.79,15.479l-2.92,18.44l-8.75,3l3,11.75l-8,3.75l1.25,8c0,0,0.75,5.25-1.5,7.75c0,0-7.5,0.25-10.25-0.25s-5.5-1.75-7.25-2.75
		s-4.25-1.25-5.25-2.25s-3.75-3.75-2.75-5s3-2.25,3.25-3.5s-0.75-5.25-0.75-5.25l-15.25-4c0,0-3.5-1-3.25-3.75s1.75-3.25,0.25-4.25
		s-3.5-1.5-3.5-3s-0.5-6.5-3-4.5s-5.75,3.25-5.75,3.25l-0.75,6.25c0,0-7.5,1.75-8,3.75s-1.25,4-1.25,4l-7.5-5c0,0-0.75,3.25-1.5,6.5
		c-0.34,1.48-0.48,2.71-0.71,3.67c-0.93,0-6.62,0-7.54,0c-1,0-1.67-0.34-3.5-1.5c-1.83-1.17-3.33,0.83-3.33,0.83
		s-1.67-1.33-2.67-2.17c-1-0.83-0.67-3.83-0.67-3.83l-5.16,1.17v3.83l-7.17,1.17c0,0,1-2.5,1.67-4.17c0.66-1.67,0.33-4,0.33-4
		s1.17-0.17,2.67-0.17s0-2.33,0-2.33l-4-1.33l2.16-2.67l4.17,1.5c0,0,1.83-1,2.83-2.33c1-1.34,0.5-3.84,0.5-3.84l-17.33-0.33
		l-1.5-2.17c0,0,3-6.33,4-7.66c1-1.34,0.5-4.34,0.5-6.17s1.5-3,1.5-3l-4.83-3.5c0,0,0.16-3.17,0.16-4.33c0-1.17,1.84-1.5,2.34-3
		s-0.5-0.84-2-2.5c-1.5-1.67,1.66-1.5,2.16-1.5s3.34,0,3.34,0l0.83-2.67l-3.17-1.33l1.34-3.84l3,0.17c0,0,2.16-1.67,3-2.5
		c0.83-0.83,4-1.17,4-1.17c1.16-5.33-4.5-8.33-4.5-8.33l1.33-1.5c0,0,1.67,0.5,3.17,0.67c1.5,0.16-0.67-3-1.5-4.17
		c-0.84-1.17,1-0.83,2.16-1.17c1.17-0.33,0.84-2.16,1.5-3.83c0.67-1.67-5-1-5-1l-2.66,6.17c0,0-3.17,0.83-4.84,1
		c-1.66,0.16-6.33,0.16-6.33,0.16s-1.17-4.5-1.67-5.33s-2.66,1.5-3.83,2.17c-1.17,0.66-2.5-2.34-3.17-2.34c-0.66,0-4,0.34-4,0.34
		l-0.5,4.5h-3.5v-3.67l-4.83,1.17c0,0-1-2.5-1.5-3.67s-3.17-0.33-4.5-0.33s-1.5-1.17-1.83-2.34c-0.34-1.16-3.17-0.83-3.17-0.83
		l-1.17,6.17l-2.66-1.17l1.16-5.33h-2l-1.33,3.66c0,0-2.17,0.17-3,0.17s-2.33-0.17-3.17-1c-0.83-0.83-1.5,0.5-2.5,1.17
		c-1,0.66-4.33-0.17-5-1.17c-0.66-1,1.5-5,2.34-7.33c0.83-2.34-1.34-4.17-1.34-4.17s-1,0.33-1.66,0.83c-0.67,0.5-0.67,2.34-0.67,3.5
		c0,1.17-4.17,1.84-5.67,2.17s-2.16,0.33-2.83-0.5s-6.5-1.83-6.5-1.83s0.33-5.34,0.33-7.17s-2.16-0.5-2.16-0.5l-24.43,11.8
		l-1.74-10.8c0,0-4.25-3.25-6.75-6.25s-8-16.5-8-16.5l2.75-1.5c0,0,0,0-0.5-2.5s4.25,0.25,4.25,0.25l-0.5-6.25l9.75-3.5l4.25,6
		l3.5-0.5V398l5.5-4.5c3,0,4.25,6.25,4.25,6.25l10.75-1.75c0.5-2.5,5-5.25,5-5.25l0.75-5c0,0,2-2,5.5-2.5S228.447,388,228.447,388z
		 M232.897,392.73l-4.61-4.851l-10.61,7.38c0,0,0,2.54-1.16,3.46c-1.15,0.931-3.46,2.771-3.46,2.771l0.7,4.609l2.3-1.609l4.85,3.229
		l1.38-0.92l-1.85-2.54l-0.92-3.46l2.54-1.62l5.53,5.771l2.54-0.69l-1.15-3.92l3-2.08l-0.93-2.77L232.897,392.73z M276.477,401.3
		l0.07-4.54c-0.21-0.41-0.14-0.76-0.56-0.899c-0.42-0.141-1.46-0.141-1.74-0.63c-0.28-0.49-1.26-1.19-1.26-1.19
		s-0.62,0.63-0.83,0.35c-0.21-0.279-0.49-0.479-0.91-0.62c-0.42-0.14-1.26-0.14-1.81-0.489c-0.56-0.351-1.26-0.42-1.68-0.07
		c-0.41,0.35-0.41,0.42-0.55,0.98c-0.14,0.55-0.77,1.25-0.77,1.25l-2.37-1.95c0,0-2.65,2.16-3.42,2.16s-4.39-4.19-4.39-4.19
		l-5.02,3.98l-2.44-3l-3.84,2.229l-0.21,1.19l-1.88,1.25l3.49,4.33c0,0-1.75,2.229-2.16,3.34c-0.42,1.12-2.1,6.14-3.35,7.39
		c-1.26,1.26-3.28,3.07-3.28,3.07l0.98,2.229l-1.89-0.06l-0.06,5.149l1.74-0.619l6.27,3.34l31.94-14.36l-0.63-2.79l-1.04-0.63
		l-0.07-1.88l-1.61-1.05c0,0-0.14-3.061,0.63-3.13C274.597,401.37,276.477,401.3,276.477,401.3z"/>
	<path fill="rgb(216, 220, 240)" d="M158.947,288.25l2.25,5.75l-6.75,10.5l-6.75-0.25l-3.5,3.75h-4.5v-3.25l-6-0.25v3l-4,0.25
		l-5.5-6.75c0,0,1.75-1.5,3.25-2.5s7.75-1.75,7.75-1.75s0.25-2.25,0-4.25s-1.25-2.25-4-2.25s-5,4.5-5.75,4.75
		s-12.75-7.75-12.75-7.75l0.75-4l-4.25-0.75l-19.75,3.25l-0.5-3.5c0,0-4.25,0.25-6,0s-2.75-1-4.5-2.25s-3,2.5-3,2.5l-2.25-8.25
		c3.75-5,14.75-5,14.75-5l-2.25-4l12.75-3.5l0.75-5.5l3.5-1.25l6.5,4.5l9.75-0.5c0,0,2.5,4,3.5,5.75s-1.5,4.5-1.5,4.5
		s8.5,1,13.5,2.25s7,4,7,4l-3.5,5.75l8.5,1.75c0,0,1.25,1.5,2.75,3.25S158.947,288.25,158.947,288.25z"/>
	<path fill="rgb(216, 220, 240)" d="M228.287,387.88l4.61,4.851l-1.85,2.76l0.93,2.77l-3,2.08l1.15,3.92l-2.54,0.69l-5.53-5.771
		l-2.54,1.62l0.92,3.46l1.85,2.54l-1.38,0.92l-4.85-3.229l-2.3,1.609l-0.7-4.609c0,0,2.31-1.84,3.46-2.771
		c1.16-0.92,1.16-3.46,1.16-3.46L228.287,387.88z"/>
	<path fill="rgb(216, 220, 240)" d="M276.547,396.76l-0.07,4.54c0,0-1.88,0.07-2.65,0.141c-0.77,0.069-0.63,3.13-0.63,3.13
		l1.61,1.05l0.07,1.88l1.04,0.63l0.63,2.79l-31.94,14.36l-6.27-3.34l-1.74,0.619l0.06-5.149l1.89,0.06l-0.98-2.229
		c0,0,2.02-1.811,3.28-3.07c1.25-1.25,2.93-6.27,3.35-7.39c0.41-1.11,2.16-3.34,2.16-3.34l-3.49-4.33l1.88-1.25l0.21-1.19
		l3.84-2.229l2.44,3l5.02-3.98c0,0,3.62,4.19,4.39,4.19s3.42-2.16,3.42-2.16l2.37,1.95c0,0,0.63-0.7,0.77-1.25
		c0.14-0.561,0.14-0.631,0.55-0.98c0.42-0.35,1.12-0.28,1.68,0.07c0.55,0.35,1.39,0.35,1.81,0.489c0.42,0.141,0.7,0.341,0.91,0.62
		c0.21,0.28,0.83-0.35,0.83-0.35s0.98,0.7,1.26,1.19c0.28,0.489,1.32,0.489,1.74,0.63C276.407,396,276.337,396.35,276.547,396.76z"
		/>
	<path fill="rgb(216, 220, 240)" d="M294.807,350.6l1.54,1.811c0,0,1.53-0.9,2.09-1.67c0.56-0.771,0.77-1.811,0.77-1.811
		l5.3-1.05c0,0,0.34,0.351,0.69,0.771s0.21,2.369,0.21,3.14c0,0.76,0.07,2.85,0.42,3.97s2.65,0.771,3.21,0.561s0.83-2.511,0.83-3.49
		c0-0.98,2.1-1.46,3.07-1.25c0.98,0.21,1.88,1.6,2.3,2.37c0.42,0.76,2.1,0.899,4.26,0.83c2.16-0.07,8.43-3.55,8.43-3.55
		c-0.479-0.98-3.2-3.561-3.62-3.98s-1.879-0.83-1.879-0.83c-0.35-2.86,2.371-4.96,2.371-4.96l-0.841-1.11l4.6-3.14l-1.039-0.91
		c0,0-0.211-1.53,0-3.479c0.199-1.95-3-7.04-4.33-8.65c-1.32-1.6-8.64-11.29-9.69-13.32l-0.34,8.771l3.46,2.3l-4.61,5.311
		l-2.77-2.54l-8.3,13.38l-3.23-2.771l-1.85,3.69l-10.61-5.07l6.92-11.54l1.39,7.38h5.76l-3.92-6.22l1.15-6.69l4.62-4.619l-0.23,3
		l4.61,0.689c0,0,0.46-2.76,0.69-4.61c0.23-1.84-2.07-4.38-2.07-4.38l7.35-2.069c-1.36-4.66-2.95-10.57-3.6-12.69
		c-1.04-3.42-3.34-11.79-3.69-13.95c-0.35-2.16-0.14-19.45-0.14-21.62c0-0.49,0.02-1.53,0.07-2.83l2.32,2.16l4.84-0.33l2,1.08
		c0,0,8.5-0.42,10.659-1.25l2-2.92c0,0,8.671,2,11.75,1.17c3.091-0.83,5.75-2.67,7.5-2.42s2.921,1.42,3.841,3.42
		c0.909,2,2.08,4.25,2.659,5.33c0.591,1.09,1.25,2.5,1.171,3.42c-0.08,0.92-1.25,4.5-2.421,5.58c-1.159,1.09-3.079,3.5-5.329,3.92
		s-5.421,1.75-5.75,2.17c-0.33,0.41-2.58,2.33-0.171,4.33c2.421,2,6.591,5.83,10.421,4c3.829-1.83,9-4.75,8.92-11.5
		c-0.091-6.75-0.25-11.42,1.409-12.08c1.671-0.67,2.591-0.63,2.591-0.63c1.75-0.12,3.87-0.25,6.62,1.88c2.75,2.12,5,3.5,5.88,4.12
		c0.58,0.42,1.89,1.23,2.88,2.35c0.5,0.56,0.91,1.19,1.12,1.9c0,0,1.83,6.879,2.75,8.29c0.909,1.42,5,5.09,8.909,2.25
		c3.921-2.83,7.501-6.33,9.421-6.91c1.92-0.59,7-1.67,7.42,1.91c0.41,3.59,0.08,7.59-2.67,11c-2.75,3.42-7.25,7.25-9.33,8.75
		c-2.091,1.5-5.091,3.59-4.341,7.5c0.7,3.66,3.66,9.431,9.081,9.021l0.01,0.069c0,0-10.591,14-11.67,15.16
		c-1.08,1.17-11.75,11.59-11.75,11.59l5.92,5.5l-7.67,9.58l-25.75,22.33l-0.1,0.061l-13.28-20.58c0,0-4.391,0.279-5.16,0.279
		c-0.76,0-3,0.7-3,0.7s-0.76,2.58-0.07,3.28c0.7,0.69,1.12,1.25,1.12,1.25s0.28,1.81,0,2.16c-0.28,0.35-1.319,1.47-1.19,1.88
		c0.141,0.42,0.561,1.19,0.561,1.61s0.91,0.699,0.91,0.699s-0.07,6.271-0.07,6.62c0,0.351-0.279,2.58-0.77,2.931
		c-0.49,0.35-1.811,0.63-2.091,0.97c-0.28,0.35-0.63,2.17-0.63,2.17l-0.76,3.62c-1.54-0.97-5.51-1.18-5.51-1.18l-0.35,2.02
		c-1.74,0.7-4.88-0.28-4.88-0.28l0.49-2.51l-1.05-0.21l-5.3,5.93l0.84,1.11l-0.7,0.979l-4.04-3.63l0.21-2.02l-1.47-1.25l-1.53,0.76
		l-1.47-1.74l0.28-1.67l-1.81-1.26l-1.26-0.07l-2.79-1.67c0,0-1.39,1.32-1.95,1.67c-0.56,0.351-2.02,0.771-2.02,0.771
		s-1.81-1.12-2.02-1.19c-0.21-0.069-0.56-1.04-0.63-1.39s-1.32-1.95-1.88-2.09c-0.56-0.141-1.19-0.98-1.4-1.82
		c-0.21-0.83,0.77-1.53,1.33-2.16c0.55-0.63-0.28-2.37-0.56-3c-0.28-0.62,1.39-2.58,1.74-3.06c0.35-0.49,1.89-2.51,2.16-2.79
		c0.28-0.28,1.68-0.84,2.17-1.26c0.48-0.42,1.25-0.62,1.6-1.25c0.35-0.631-1.19-3.21-1.46-3.7c-0.28-0.49,1.04-1.181,1.53-1.601
		C293.627,353.18,294.807,350.6,294.807,350.6z"/>
	<path fill="rgb(216, 220, 240)" d="M396.547,493.05c-0.63,0-2.999,0.98-3.35,1.12c-0.35,0.14-1.6-0.07-1.88-0.21
		s-0.841,0.28-1.12,0.28s-1.67-0.7-2.09-0.84c-0.42-0.141-0.49,0.489-1.051,0.979c-0.55,0.49-0.83,0.21-1.319,0.07
		c-0.49-0.141,0-2.931,0-3.42c0-0.49,2.649-0.351,2.649-0.351s0.281-1.67,0.281-2.09s0.63-0.83,1.18-1.109
		c0.56-0.28,0.7-2.24,0.7-2.24s-4.53-4.601-4.95-5.23c-0.421-0.62-2.16-0.97-2.93-1.18c-0.771-0.21-1.461-0.84-1.671-1.12
		c-0.21-0.27-0.699-1.46-1.12-1.88c-0.42-0.42-3.55-1.39-4.25-1.46s-4.12-0.21-5.229-0.21c-1.12,0-3.56-1.4-4.12-1.74
		c-0.551-0.35-1.88-0.49-2.51-0.49c-0.62,0-1.6,1.391-2.301,1.88c-0.689,0.49-1.39,0.421-1.879,0.07
		c-0.49-0.35-0.281-2.439-0.281-2.86c0-0.42-0.759-1.39-1.109-1.739c-0.35-0.351-0.07-1.33,0.27-2.16
		c0.351-0.84,0.631-2.51,0.631-2.51s2.93-1.19,3.56-1.4s1.319-0.42,2.229-0.42c0.911,0,3.771-0.35,5.65-1.18
		c1.881-0.841,4.74-2.721,5.439-3.7c0.691-0.97,1.671-2.65,2.16-3.141c0.49-0.479,7.25-5.85,7.25-5.85s5.58,2.16,7.531,2.65
		c1.949,0.479,3.77-2.17,3.77-2.17l0.689,0.069l1.4-5.779l-1.96-0.7l-0.41-1.12l0.9-0.62l-0.28-3.42c0,0-1.46-0.84-1.74-0.98
		c-0.28-0.14-0.21-1.04-0.21-1.04s-1.11-0.489-1.67-0.56s-3.351-1.6-3.771-1.88c-0.41-0.28,0.351-1.12,0.911-1.33
		c0.56-0.21-0.7-2.37-0.911-3c-0.21-0.62,1.4-0.9,1.891-0.83c0.479,0.07,1.949,0.41,2.51,0.35c0.551-0.069,1.18-0.77,1.53-1.26
		c0.35-0.49,1.6,0.49,1.74,0.84c0.14,0.351,1.12-0.279,1.26-0.699c0.14-0.421-0.84-0.91-1.4-0.98c-0.55-0.07-1.46-1.53-1.53-1.88
		c-0.069-0.35-0.56-0.97-0.91-1.18c-0.34-0.21-0.34-0.49-0.55-0.771s-0.7-1.189-0.7-1.189s-8.859-3.83-14.09-6.131
		c-5.229-2.3-9.479-7.81-9.479-7.81l-20.609-31.93l0.1-0.061l25.75-22.33l7.67-9.58l-5.92-5.5c0,0,10.67-10.42,11.75-11.59
		c1.079-1.16,11.67-15.16,11.67-15.16l-0.01-0.069c0.38-0.03,0.77-0.09,1.17-0.181c6.17-1.42,7.84-3.5,7.84-3.5
		s1.6,2.061,3.06,4.011c1.11,1.479,2.141,2.89,2.351,3.319c0.5,1,3.17,5.83,3.92,7.67c0.75,1.83,4.08,6.16,4.83,6.75l-0.16,3.83
		l1.91,1.08l2.34-0.41l0.83,3.5c0,0-1.25,1.41-1.33,1.91c-0.09,0.5-0.17,1.17-0.59,1.67c-0.41,0.5-2.66,2-2.75,2.58
		c-0.08,0.59-0.41,1.09-0.08,1.67s0.67,0.83,0.67,0.83l0.08,2l2.42,2.59l-2.09-0.25l-0.5,1.5c0,0,2.25,0.91,3.42,1l-3.83,6.08
		l0.08,13.17c0,0-5.25,0.16-6.67-0.42c-1.41-0.58-5.83-3-5.83-3l-0.75,1.5c0,0,2.25,1.17,1.75,3.25s-0.58,2.42-0.58,2.42l-1.59,1.83
		l-0.25,1.58l4.42,1.09l-2.75,7.58c0,0-2,0.42-2.33,1c-0.34,0.58-1.17,2.17-0.5,2.17c0.66,0,1.75-0.92,1.58-0.25
		c-0.17,0.66-0.58,1.41-0.08,1.58s0.83,0.42,0.58,0.75s-0.5,0.75-0.5,1.33c0,0.59,0.08,1.09-0.33,1.34
		c-0.42,0.25-0.59,0.41-0.59,0.91s0.59,3.25-0.33,3.42s-2.75,0.25-2.17,1.42c0.59,1.16,0.5,1.91,0.92,1.83s0.92-0.33,0.92-0.33
		l1.25,2l1.5-0.09l-1.09,5.17l1.67,0.58c0,0-0.33,1.75-1.5,1.84l-0.92,6.33l0.92,1.75l-1.92,5.17l9.09,3.83l2.91,5.75v2l1.17-0.17
		l0.12-0.029c0.529,1.55,1.229,3.319,1.229,3.319s-5.99,4.32-6.55,5.3c-0.56,0.98-1.47,3.21-1.75,5.021
		c-0.27,1.81-2.09,14.43-2.16,14.78c-0.07,0.35-1.95,13.88-1.95,13.88s1.471,0.84,1.811,1.39c0.35,0.561,7.189,9.48,7.189,9.48
		l-0.21,2.31l3.551,3.2l-0.48,1.399l0.13,2.16l-1.53,1.53l-0.279,1.12l-3,2.439l-0.9-1.26l-1.05,0.7l0.7,1.88l-9.9-7.32l2.79-15.479
		l-7.19,0.07c-3.02,5.39-8.919,3.56-9.319,3.43l6.67,4.31l-0.69,2.101C399.127,492.99,397.167,493.05,396.547,493.05z"/>
	<path fill="rgb(216, 220, 240)" d="M381.567,265.22l1,1.25l6.37-3.5l0.88-3l4.62-5.37c0,0,10.88-1.75,14.25-2.13
		c3.38-0.37,4.88-5,4.88-5l1.37-9.62l5.38-0.38l1.5,6.5l1.37-0.12l3.75,1.87l1.38-0.12c0,0,0.87-1.25,1-2.38
		c0.12-1.12-0.13-6.25-0.13-6.25l9,1.25l0.38-5.62c0,0,1.37,1,2.37,1.75s2.63,1.62,3,2.62c0.33,0.87,0.56,2.21,2.5,3.12
		c0.29,0.14,0.62,0.27,1,0.38c2.88,0.88,18,5.88,18,5.88s5.13-0.13,7,0.25c1.88,0.37,2.88,1.12,4.13,3.37
		c0.31,0.56,0.82,1.49,1.399,2.61l-0.029,0.02l-8,7.5l-2.5-2.38l-1.87,0.25c0,0-0.63,2.5-1,3.75c-0.38,1.25-1.13,4.88-1.13,4.88
		l-5.87,0.25c0,0-1.25,0.62-1,1.62s0.87,3,0.87,3.5s-0.12,1.25-0.87,2.25l5.25,2.38c0,0,6.75,4.75,8.12,6.37c0,0,0,4.5,0.5,5.13
		l-2.5,5.75l-5-4.5l0.25,2.5l-3,2.25l-4.37,2.37l-2.13-5.12l-2.37,1.37c0,0,0.75,1.91,1.229,3.521l-0.069,0.02l-2.83,0.17
		c0,0-1-1.75-1.5-2.17l-0.92,0.92l-3.33-1.42c0,0-1.08,3.84-1,5.92l-1,0.33l-2.5-1.33l-0.5,1.83c0,0-0.92-0.91-2.17-0.5
		c-1.25,0.42-8.16,2.17-8.16,2.17l-0.25-0.83l-2.25-0.34l-0.34,1.67l-4.66-1.58l-8.69,10.511c-1.46-1.95-3.06-4.011-3.06-4.011
		s-1.67,2.08-7.84,3.5c-0.4,0.091-0.79,0.15-1.17,0.181c-5.421,0.41-8.381-5.36-9.081-9.021c-0.75-3.91,2.25-6,4.341-7.5
		c2.08-1.5,6.58-5.33,9.33-8.75c2.75-3.41,3.08-7.41,2.67-11c-0.42-3.58-5.5-2.5-7.42-1.91c-1.92,0.58-5.5,4.08-9.421,6.91
		c-3.909,2.84-8-0.83-8.909-2.25c-0.92-1.41-2.75-8.29-2.75-8.29c-0.21-0.71-0.62-1.34-1.12-1.9l0.12-0.1L381.567,265.22z"/>
	<path fill="rgb(216, 220, 240)" d="M552.178,328.43l2.159,2.65l-4.25,12.62l-11.93-9.771c0,0,3,13.391,3.56,16.181
		c0.561,2.79,2.301,9.27-3.14,16.04c-5.43,6.76-16.38,19.04-17.08,19.869c-0.33,0.4-1.46,1.511-2.64,2.641
		c-1.141-0.78-3.18-2.74-3.54-4.69c-0.38-2-1.88-6.87-1.88-8.62s0-6.38,0.13-8.88c0.12-2.5-1.38-1.12-2.88-0.87
		s-13.12,6.12-15.12,6.87s-7.88,0-9.63-0.25s-5.87,1.13-7.62,1.25c-1.75,0.13-7.88-2.62-10.13-3.87s-11.37-8.88-11.37-8.88
		s1-9.75,1.75-11.87c0.75-2.13,13.25-7.75,16.62-9.63c3.38-1.87,2.63-7.5,1.75-10c-0.87-2.5-6.25-5-7.87-5.75
		c-1.63-0.75-8.25-1.75-9.38-2c-1.12-0.25-1.5-0.5-1.87-1.25c-0.38-0.75-3.13-1.25-3.13-1.25s0.25-2.12,0.38-3.5
		c0.12-1.37-1.13-7.87-1.5-10.25c-0.38-2.37-0.63-5.87-0.63-7.12c0-0.399-0.16-1.1-0.391-1.859c-0.479-1.61-1.229-3.521-1.229-3.521
		l2.37-1.37l2.13,5.12l4.37-2.37l3-2.25l-0.25-2.5l5,4.5l2.5-5.75c-0.5-0.63-0.5-5.13-0.5-5.13c-1.37-1.62-8.12-6.37-8.12-6.37
		l-5.25-2.38c0.75-1,0.87-1.75,0.87-2.25s-0.62-2.5-0.87-3.5s1-1.62,1-1.62l5.87-0.25c0,0,0.75-3.63,1.13-4.88
		c0.37-1.25,1-3.75,1-3.75l1.87-0.25l2.5,2.38l8-7.5l0.029-0.02c1.721,3.34,4.03,8.33,3.471,10.02c-0.75,2.25-3.37,10.12,0.88,12.25
		c4.25,2.12,9,4.75,10.37,6.37c1.38,1.63,3.13,4,4.13,4.13c1,0.12,5.12,1.12,6.87,2.37s8.63,7.25,10.5,8.13
		c1.88,0.87,14.25,8.5,16.38,9.5c2.12,1,18.12,11.75,21,14.5l-1.13,1.391l3.55,4.68L552.178,328.43z"/>
	<path fill="rgb(216, 220, 240)" d="M593.808,301.23l0.899,4.39l4.45-0.89c0,0,1.48,2.67,3.26,2.67
		c1.78,0,5.04,1.18,3.561,2.369c-1.49,1.19-3.261,1.19-2.08,2.671c1.189,1.479,1.78,2.67,1.78,2.67l-11.271-2.08
		c0,0,0,3.26,2.08,4.149c2.07,0.891,6.229,2.38,6.229,4.45l-7.71,1.49c0,0,0,2.07,1.771,3.26c1.78,1.18,5.34,1.78,5.34,4.15
		s-0.29,4.45,0,6.819c0.3,2.37,1.49,6.82,1.49,6.82s-7.12-2.67-10.38-2.37c-3.271,0.29-13.351,0-13.351,0s0-4.149-1.18-4.45
		c-1.19-0.3-2.97-2.67-1.49-4.449c1.49-1.78,2.38-2.37,3.271-3.261c0.89-0.89,4.149-7.409,2.069-6.52
		c-2.069,0.88-4.149,4.439-4.149,2.07c0-2.37,0.3-6.23,0.3-6.23l-4.75-0.29l-0.29-4.11v-0.04c0,0,4.74,0,7.11-1.189
		c2.37-1.19,2.97-5.34,3.26-7.71c0.3-2.37,5.34-1.19,5.34-1.19l3.561-4.439l0.17-0.11C593.428,300.4,593.678,300.87,593.808,301.23z
		"/>
	<path fill="rgb(216, 220, 240)" d="M421.577,435.81c0.101,0.4,0.26,0.9,0.44,1.421l-0.12,0.029l-1.17,0.17v-2l-2.91-5.75
		l-9.09-3.83l1.92-5.17l-0.92-1.75l0.92-6.33c1.17-0.09,1.5-1.84,1.5-1.84l-1.67-0.58l1.09-5.17l-1.5,0.09l-1.25-2
		c0,0-0.5,0.25-0.92,0.33s-0.33-0.67-0.92-1.83c-0.58-1.17,1.25-1.25,2.17-1.42s0.33-2.92,0.33-3.42s0.17-0.66,0.59-0.91
		c0.41-0.25,0.33-0.75,0.33-1.34c0-0.58,0.25-1,0.5-1.33s-0.08-0.58-0.58-0.75s-0.09-0.92,0.08-1.58c0.17-0.67-0.92,0.25-1.58,0.25
		c-0.67,0,0.16-1.59,0.5-2.17c0.33-0.58,2.33-1,2.33-1l2.75-7.58l-4.42-1.09l0.25-1.58l1.59-1.83c0,0,0.08-0.34,0.58-2.42
		s-1.75-3.25-1.75-3.25l0.75-1.5c0,0,4.42,2.42,5.83,3c1.42,0.58,6.67,0.42,6.67,0.42l-0.08-13.17l3.83-6.08
		c-1.17-0.09-3.42-1-3.42-1l0.5-1.5l2.09,0.25l-2.42-2.59l-0.08-2c0,0-0.34-0.25-0.67-0.83s0-1.08,0.08-1.67
		c0.09-0.58,2.34-2.08,2.75-2.58c0.42-0.5,0.5-1.17,0.59-1.67c0.08-0.5,1.33-1.91,1.33-1.91l-0.83-3.5l-2.34,0.41l-1.91-1.08
		l0.16-3.83c-0.75-0.59-4.08-4.92-4.83-6.75c-0.75-1.84-3.42-6.67-3.92-7.67c-0.21-0.43-1.24-1.84-2.351-3.319l8.69-10.511
		l4.66,1.58l0.34-1.67l2.25,0.34l0.25,0.83c0,0,6.91-1.75,8.16-2.17c1.25-0.41,2.17,0.5,2.17,0.5l0.5-1.83l2.5,1.33l1-0.33
		c-0.08-2.08,1-5.92,1-5.92l3.33,1.42l0.92-0.92c0.5,0.42,1.5,2.17,1.5,2.17l2.83-0.17l0.069-0.02c0.23,0.76,0.391,1.46,0.391,1.859
		c0,1.25,0.25,4.75,0.63,7.12c0.37,2.38,1.62,8.88,1.5,10.25c-0.13,1.38-0.38,3.5-0.38,3.5s2.75,0.5,3.13,1.25
		c0.37,0.75,0.75,1,1.87,1.25c1.13,0.25,7.75,1.25,9.38,2c1.62,0.75,7,3.25,7.87,5.75c0.88,2.5,1.63,8.13-1.75,10
		c-3.37,1.88-15.87,7.5-16.62,9.63c-0.75,2.12-1.75,11.87-1.75,11.87s9.12,7.63,11.37,8.88s8.38,4,10.13,3.87
		c1.75-0.12,5.87-1.5,7.62-1.25s7.63,1,9.63,0.25s13.62-6.62,15.12-6.87s3-1.63,2.88,0.87c-0.13,2.5-0.13,7.13-0.13,8.88
		s1.5,6.62,1.88,8.62c0.36,1.95,2.399,3.91,3.54,4.69c-1.29,1.24-2.641,2.5-3.08,2.87c-0.83,0.7-20.43,19.729-27.89,24.68
		s-24.681,16.46-24.681,16.46s-2.859,2.72-8.16,2.3c-5.3-0.42-30.05-2.3-30.05-2.3c-0.63-0.07-1.47-0.14-2.1,0.21
		C422.277,433.23,421.157,434.21,421.577,435.81z"/>
	<path fill="rgb(216, 220, 240)" d="M566.058,213.23c0,0,1.46,0.21,2.79,0.63c1.319,0.42,2.64,0.63,2.64,2.86
		s-2.43,2.02-2.92,1.95c-0.49-0.07-0.07-0.69,0-1.39c0.07-0.7-0.63-0.77-1.12-1.26c-0.49-0.48-3.49,0-4.25,0
		c-0.77,0-1.12,3.77-1.12,3.77l-3.479,1.67l-0.141,1.68l-1.33,0.41l0.141,1.12l-2.58,0.84l-2.37-2.51l-2.3,2.3l-5.65-6.28l5.44-4.25
		c0,0,0.56-0.7,1.05-1.19c0.479-0.49,5.3-2.23,5.3-2.23l-0.28-2.16l3.271-1.39l0.56,0.97c0,0-2.09,0.91-2.3,1.68
		c-0.21,0.76,0.91,2.16,0.91,2.16l2.93-0.56l0.48,1.25l3.979-1.32L566.058,213.23z"/>
	<path fill="rgb(216, 220, 240)" d="M466.497,183.28l-2.81-1.62l1.31-1.81l2.75,1l0.94,2l-0.75,0.81l1.439,1.69
		c-1.689,1.06-0.13,2.87-0.13,2.87l1.82-0.81l1.81,0.87l5.19,0.57l0.43-0.44c0,0,0,0,1.82-2c1.81-2,1.12-5.75,0.93-7
		c-0.18-1.25-0.5-3.5-0.5-3.5l-9.81-0.06l4.38-3.57l-0.63-0.75l6.439-6.31l-1-0.75l0.561-1.19l2.81,1.82l3.25-1.44l-0.25-1.75
		l2.181-2.18c7.67,7.16,23.55,21.85,23.55,21.85l23.01,20.99c0,0,5.58,5.64,6.13,11.22c0.561,5.58,2.37,39.82,2.37,39.82
		s0.14,6.62,0.07,8.57c-0.07,1.96,0.56,18.2,0.56,18.2s12.55-0.97,18.41-4.53l3.49,1.19l0.899,5.36l-5.3-0.48l-3.07,3.76
		c0,0-3.83,0.37-5.31,2.15c-1.48,1.78-4.45,8.3-2.67,9.78c1.78,1.489,5.04,2.38,5.04,2.38l4.76,0.13l-0.21,1.88l4.11,0.28
		l0.21-2.021l0.84-1.399l0.97,1.12l1.54-0.771l2.51-0.21l4.391-1.74l0.7,0.69c0,0,3.56-1.32,3.84-2.23
		c0.27-0.899,0.62-2.859,1.319-3.14c0.7-0.271,2.721-0.55,2.721-0.55s4.319,1.88,5.51,2.93c0.91,0.8,2.91,3.16,4.03,4.92l-0.17,0.11
		l-3.561,4.439c0,0-5.04-1.18-5.34,1.19c-0.29,2.37-0.89,6.52-3.26,7.71c-2.37,1.189-7.11,1.189-7.11,1.189v0.04
		c-2.09,0.391-4.7,1.03-5.229,1.03c-0.771,0-2.79,0.08-3.211,0.42c-0.42,0.351-7.739,8.79-7.739,8.79l-5.79-5.09l-0.12,0.14
		c-2.88-2.75-18.88-13.5-21-14.5c-2.13-1-14.5-8.63-16.38-9.5c-1.87-0.88-8.75-6.88-10.5-8.13s-5.87-2.25-6.87-2.37
		c-1-0.13-2.75-2.5-4.13-4.13c-1.37-1.62-6.12-4.25-10.37-6.37c-4.25-2.13-1.63-10-0.88-12.25c0.56-1.69-1.75-6.68-3.471-10.02
		c-0.579-1.12-1.09-2.05-1.399-2.61c-1.25-2.25-2.25-3-4.13-3.37c-1.87-0.38-7-0.25-7-0.25s-15.12-5-18-5.88
		c-0.38-0.11-0.71-0.24-1-0.38v-9.31c0,0,6.13-13.43,6.63-14.62s2.81-6.13,3.31-8.06c0.5-1.94-0.13-12.13-0.13-12.13
		c0.75,0.5,2,0.25,2.88-0.25c0.87-0.5,1.061-2.56,1.061-2.56l6.63-6.5l-1.82-1.19L466.497,183.28z"/>
	<path fill="rgb(216, 220, 240)" d="M296.347,250.75c-0.07,0.49,0.14,2.65,0.07,3c-0.07,0.35-0.49,0.9-0.77,0.48
		c-0.28-0.41-1.12-1.39-1.53-1.11c-0.42,0.28-1.19,0.84-1.19,1.11c0,0.28-0.07,2.03,0.35,1.61s0.49-0.77,0.91-0.7
		c0.41,0.07,0.83-0.14,0.69,0.56c-0.14,0.7-0.42,1.67-0.42,1.67l-1.67,0.49v1.05l-3.83-0.56l0.97-1.4l-3.42-0.69l0.15,3.48
		l-9.25,1.29c0,0-0.23-1.38-0.46-2.99c-0.23-1.62,3-1.16,3-1.16s0-3,0.46-4.84c0.46-1.85,5.07-2.31,5.07-2.31l0.93-2.3l-11.3-5.31
		l0.46-3.69l-5.08-0.23l0.23-3.92l-1.84-0.46v-8.07l20.29,2.07c0,0,6.23-6.46,8.31-7.61c2.07-1.15,6.69,0,8.3,0s3.23,3,3.23,3
		l1.38-2.08l3.48-0.45c1.34-6.79,2.75-16.7,2.75-16.7c-2.69-1.19-7.16-0.18-7.16-0.18s-1.3,0.56-2.61,1.02
		c-1.3,0.47-3.9,3.44-4.46,4.46c-0.56,1.03-0.93,1.68-1.67,1.96c-0.75,0.27-1.95-3.07-1.95-3.07l-1.4,0.18c0,0,0.37,2.05-0.09,2.89
		c-0.47,0.83-1.58,0.09-1.96-0.47c-0.37-0.56,0.1-2.23,0.1-3.16c0-0.93-2.7-0.74-2.7-0.74l1.49-2.42l-0.84-3.07l-2.79-0.19
		l-0.09-1.76l2.51-1.3c0,0-1.95-1.68-2.42-2.14c-0.46-0.47-0.28-1.68-0.28-2.23c0-0.56,3.82-2.05,3.82-2.05
		c-1.68-1.39-7.53-1.77-7.53-1.77l-0.1-1.48c0,0,1.3-0.47,2.05-0.84c0.74-0.37,0.93-1.86,1.39-2.79c0.47-0.93,0.37-5.3,0.47-6.32
		c0.09-1.02,2.14-2.7,2.69-2.98c0.56-0.27,0.19-0.74,0.38-1.3c0.18-0.56,2.69-0.28,3.34-0.28s1.58-0.18,2.51-0.28
		c0.93-0.09,0.47-2.51,0.65-2.88c0.19-0.37,3.07-0.93,3.81-0.93c0.75,0,2.05,0.47,2.33,0.47c0.28,0,2.97-0.65,2.97-0.65l1.03,1.02
		c0,0-0.19,0.84-0.65,1.67c-0.47,0.84,0.46,1.3,0.65,1.68c0.18,0.37-0.19,0.93-0.65,1.39c-0.47,0.47,0.65,1.58,0.83,2.05
		c0.19,0.46-1.39,1.02-1.86,1.39c-0.46,0.37-0.18,1.77-0.09,2.51c0.09,0.75,0.37,0.93,1.21,1.02c0.84,0.1,1.67-0.46,1.95-0.65
		c0.28-0.18,0.47,0,1.49,0.28c1.02,0.28,0.65-0.46,0.93-0.83c0.28-0.38,1.02,0.37,1.21,0.83c0.18,0.47,1.95-0.74,1.95-0.74
		s0.65-1.95,1.95-5.77c1.3-3.81,7.07-8.74,7.07-8.74l-3.26-3.06c0,0-0.18-0.93-0.18-1.58s-1.12-0.1-1.4,0.18
		c-0.28,0.28-1.67,0.47-2.32,0.37c-0.65-0.09-1.86-0.65-2.32-1.11c-0.47-0.47-1.12-0.09-1.77-0.09s-3.44-0.56-3.44-0.56
		s-0.65-0.75-0.93-1.21c-0.28-0.47-2.42-0.47-2.88-1.12c-0.47-0.65-1.3-1.58-1.86-2.6c-0.56-1.02,0.93-1.86,1.3-2.14
		c0.37-0.28,0.28-1.3-0.09-1.76c-0.38-0.47-0.65-1.31-0.65-1.77c0-0.47,1.3-1.58,1.95-2.14c0.65-0.56,0.09-1.21-0.56-1.95
		c-0.65-0.75-2.6,0.18-3.35,0.37c-0.74,0.19-1.3-1.86-1.3-2.14s0.47-1.02,0.84-1.39c0.37-0.37-1.21-1.49-1.86-1.95
		c-0.65-0.47-0.84-1.31-0.56-1.68c0.28-0.37,3.53-1.3,3.53-1.3l0.1-1.3l-1.49-0.47l-0.47-1.48l1.77-1.31c0,0,0-0.01-0.01-0.03
		l0.07-0.01l3.85-2.4l0.35-1.33l2.65-1.63l-0.47,1.85l4.24,0.25h0.01l-0.07,6.37c0,0-0.07,2.09,1.68,2.51
		c1.74,0.42,2.09,0.56,2.09,0.56l3.14,8.02c0,0,0.34,1.39,0.27,2.16s-0.21,2.58,0.77,3.28c0.98,0.7,1.951,1.32,1.951,1.32
		l-0.141,3.7l3,1.18l0.51,0.97l5.561,0.85l3.56-1.61l0.55,1.33l0.8-0.32l0.061,0.14c0,0,4.58,5.59,5.75,6.17
		c1.159,0.58,2.409,1.08,2.409,1.08s0,3.67,0.421,4.75c0.42,1.09,12,29.17,12,30c0,0.84-0.08,2.09-1.75,2.25l1.329,1.75l6.591-0.33
		l1.159,2.58c0,0-4.079,3.25-3.5,7.25c0.591,4,1.75,5.75,2.091,6.67c0.33,0.92,5.83,11.5,6.5,15.17
		c0.659,3.66,1.25,11.33,2.08,13.25c0.829,1.91,7.17,13.87,7.17,13.87l-3.5,2.25l-0.12,0.1c-0.99-1.12-2.3-1.93-2.88-2.35
		c-0.88-0.62-3.13-2-5.88-4.12c-2.75-2.13-4.87-2-6.62-1.88c0,0-0.92-0.04-2.591,0.63c-1.659,0.66-1.5,5.33-1.409,12.08
		c0.08,6.75-5.091,9.67-8.92,11.5c-3.83,1.83-8-2-10.421-4c-2.409-2-0.159-3.92,0.171-4.33c0.329-0.42,3.5-1.75,5.75-2.17
		s4.17-2.83,5.329-3.92c1.171-1.08,2.341-4.66,2.421-5.58c0.079-0.92-0.58-2.33-1.171-3.42c-0.579-1.08-1.75-3.33-2.659-5.33
		c-0.92-2-2.091-3.17-3.841-3.42s-4.409,1.59-7.5,2.42c-3.079,0.83-11.75-1.17-11.75-1.17l-2,2.92
		c-2.159,0.83-10.659,1.25-10.659,1.25l-2-1.08l-4.84,0.33l-2.32-2.16c0.13-4.4,0.42-11.88,0.42-11.88l-3.84,2.58l-0.35,1.96
		C300.387,246.43,296.417,250.26,296.347,250.75z"/>
	<path fill="rgb(216, 220, 240)" d="M401.567,95.32l0.97,8.65l2.58,0.28l0.14,4.88l-1.529,0.77l-0.28,1.74l-2.09,0.28
		c0,0,0.14,4.46-0.42,7.6c-0.561,3.14-2.16,12.69-2.16,12.69s9.479-2.3,13.46-1.4c3.97,0.91,18.75,8.44,21.54,9.42
		c2.79,0.97,13.81,4.39,23.5,4.67c9.689,0.28,13.6,0.77,15.55,1.81c1.95,1.05,10.39,7.81,11.851,9.28c0.329,0.32,1.84,1.74,4,3.74
		l-2.181,2.18l0.25,1.75l-3.25,1.44l-2.81-1.82l-0.561,1.19l1,0.75l-6.439,6.31l0.63,0.75l-4.38,3.57l9.81,0.06
		c0,0,0.32,2.25,0.5,3.5c0.19,1.25,0.88,5-0.93,7c-1.82,2-1.82,2-1.82,2l-0.43,0.44l-5.19-0.57l-1.81-0.87l-1.82,0.81
		c0,0-1.56-1.81,0.13-2.87l-1.439-1.69l0.75-0.81l-0.94-2l-2.75-1l-1.31,1.81l2.81,1.62l-1.5,2.19l1.82,1.19l-6.63,6.5
		c0,0-0.19,2.06-1.061,2.56c-0.88,0.5-2.13,0.75-2.88,0.25c0,0,0.63,10.19,0.13,12.13c-0.5,1.93-2.81,6.87-3.31,8.06
		s-6.63,14.62-6.63,14.62v9.31c-1.94-0.91-2.17-2.25-2.5-3.12c-0.37-1-2-1.87-3-2.62s-2.37-1.75-2.37-1.75l-0.38,5.62l-9-1.25
		c0,0,0.25,5.13,0.13,6.25c-0.13,1.13-1,2.38-1,2.38l-1.38,0.12l-3.75-1.87l-1.37,0.12l-1.5-6.5l-5.38,0.38l-2.09-2.63
		c0,0-0.061-4.13-0.131-5.59c-0.069-1.47-1.6-6.2-1.6-6.2l3.53-1l-3.53-2.46c0,0-1.06-5-1.33-6.26c-0.27-1.27-1.07-2.74-1.27-3.54
		c-0.2-0.79,0.199-5.66,0.199-7.66c0-1.99,1.87-7.99,1.87-7.99c-0.33-0.93-2.399-8.66-2.67-9.99c-0.26-1.34-0.13-7.8-0.06-8.8
		c0.06-1-2.4-11.52-2.73-13.39c-0.34-1.86-1.14-11.19-1.47-13.46c-0.33-2.26-4.06-4.33-4.06-4.33s-0.271,0.07-0.601,0.07
		c-0.34,0-1.399-1.33-1.87-1.73c-0.47-0.4-6.729-4.4-6.729-4.4l-1.6-4.26c0.009,0,0.009,0,0.009,0l-8.649-30.82l12.55-2.65
		l-2.72-7.6l6.56-1.6l2.44,2.44l7.67-4.46l1.25,2.16l1.96-0.21c0,0,2.51,4.88-0.63,4.81c0,0-1.61-0.07-2.37-0.7
		C406.098,94.97,401.567,95.32,401.567,95.32z"/>
	<path fill="rgb(216, 220, 240)" d="M412.848,235.22l2.09,2.63l-1.37,9.62c0,0-1.5,4.63-4.88,5
		c-3.37,0.38-14.25,2.13-14.25,2.13l-4.62,5.37l-0.88,3l-6.37,3.5l-1-1.25c0,0-6.341-11.96-7.17-13.87
		c-0.83-1.92-1.421-9.59-2.08-13.25c-0.67-3.67-6.17-14.25-6.5-15.17c-0.341-0.92-1.5-2.67-2.091-6.67c-0.579-4,3.5-7.25,3.5-7.25
		l-1.159-2.58l-6.591,0.33l-1.329-1.75c1.67-0.16,1.75-1.41,1.75-2.25c0-0.83-11.58-28.91-12-30c-0.421-1.08-0.421-4.75-0.421-4.75
		s-1.25-0.5-2.409-1.08c-1.17-0.58-5.75-6.17-5.75-6.17l-0.061-0.14l0.601-0.24l1.74-4.11c11.229,1.6,17.709-3.35,20.01-4.75
		c2.3-1.39,16.25-11.5,20.71-14.78c4.28-3.14,6.319-2.57,6.48-2.51l1.6,4.26c0,0,6.26,4,6.729,4.4c0.471,0.4,1.53,1.73,1.87,1.73
		c0.33,0,0.601-0.07,0.601-0.07s3.729,2.07,4.06,4.33c0.33,2.27,1.13,11.6,1.47,13.46c0.33,1.87,2.79,12.39,2.73,13.39
		c-0.07,1-0.2,7.46,0.06,8.8c0.271,1.33,2.34,9.06,2.67,9.99c0,0-1.87,6-1.87,7.99c0,2-0.399,6.87-0.199,7.66
		c0.199,0.8,1,2.27,1.27,3.54c0.271,1.26,1.33,6.26,1.33,6.26l3.53,2.46l-3.53,1c0,0,1.53,4.73,1.6,6.2
		C412.787,231.09,412.848,235.22,412.848,235.22z"/>
	<path fill="rgb(216, 220, 240)" d="M293.557,92.05l1.95,2.41l1.3,0.37l2.33-4.09l7.81,0.19l1.3,0.56c0,0-0.37,1.02-0.56,1.58
		c-0.19,0.56,2.79,2.51,3.63,2.42c0.83-0.1,0.37-0.56,0.37-1.4c0-0.84,0.46-0.46,1.21-0.37c0.74,0.09,0.46-0.09,0.74-0.56
		c0.28-0.46,0.46,0.09,1.49,0.75c1.02,0.65,0.65,0.46,1.21,0.55c0.55,0.1,0.28,0.84-0.1,1.49c-0.37,0.65,0.1,1.02,1.03,1.49
		c0.93,0.46,1.95-0.93,2.51-1.3c0.55-0.37,2.69-0.84,3.811-1.12c1.109-0.28,0.56-1.49,0.46-2.14c-0.091-0.65,1.12-0.18,1.489,0.28
		c0.37,0.47,1.12-0.56,1.12-0.56l1.83-0.14l2.02,2.44l0.49,0.7v2.93l-1.67,0.07c0,0-0.84,1.88-3.21,1.74l-2.79,6.91
		c0,0,2.229,4.6,2.021,5.5c-0.211,0.91-0.83,2.58-0.55,3.07c0.279,0.49,1.109,2.65,0.899,3c-0.21,0.35-1.109,1.61-1.811,1.05
		c-0.699-0.56-1.049-1.47-1.049-1.47l-3.55-0.35l-1.68,4.19l3,4.32l-5.02,3.63v0.11h-0.01l-4.24-0.25l0.47-1.85l-2.65,1.63
		l-0.35,1.33l-3.85,2.4l-0.07,0.01c-0.1-0.41-1.14-4.57-1.66-5.45c-0.56-0.93,1.86-2.14,1.86-2.14l-0.38-1.21
		c0.75-0.93,4.28-2.14,4.28-2.14l-10.69-7.9c0,0-2.88,2.33-3.35,2.7c-0.46,0.37-1.86,0.55-2.79,0.28c-0.93-0.28-0.65-1.21-0.83-2.05
		c-0.19-0.84-3.54-4.09-3.54-4.09l0.65-2.88l3.54-2.98l3.25,2.05l1.58-1.77l-5.39-6.23h-1.3l-1.68-4.37l0.1-2.88l2.88-2.42
		l3.35-0.37l0.55,1.12L293.557,92.05z"/>
	<path fill="rgb(216, 220, 240)" d="M328.887,86.18l-3.41,0.31l-0.029-0.86c0,0,1.109-0.56,1.109-1.11
		c0-0.56-1.58-0.75-1.58-0.75l-1.109-3.16l-13.02,3.07l-1.77-1.86c0,0-1.58,0.28-2.69-0.09c-1.12-0.38,0.18-3.17,0.18-3.17
		l7.26-6.78l-0.19-1.49l0.84-2.04l2.69-0.47l0.56-1.86l5.3-0.46l0.74-1.31c0,0,0.38,0,0.93,0.38c0.56,0.37,1.77-0.28,2.33-0.75
		c0.561-0.46,2.32-7.06,2.32-7.06l5.629,1.86c0,0-0.77,2.72-0.559,3.2c0.209,0.49,1.039,4.12,1.039,4.12s2.24,0.21,2.86,0.28
		c0.63,0.07,6.28,1.32,6.28,1.32s1.6,0.63,1.81,1.6c0.21,0.98,0.77,2.59,0.77,2.59l7.11-0.91l1.74,4.04l-4.18,0.77
		c0,0-1.461-1.81-2.86-1.26c-1.39,0.56-0.899,3-0.761,3.56l-1.819,0.77l-1.67-2.02c0,0-5.37,5.36-7.601,5.99
		c-2.229,0.63-6.069,2.3-6.63,2.58C330.507,85.21,329.277,85.72,328.887,86.18z"/>
	<path fill="rgb(216, 220, 240)" d="M292.867,456.5c0.83,1.17,3,4.33,1.5,4.17c-1.5-0.17-3.17-0.67-3.17-0.67l-1.33,1.5
		c0,0,5.66,3,4.5,8.33c0,0-3.17,0.34-4,1.17c-0.84,0.83-3,2.5-3,2.5l-3-0.17l-1.34,3.84l3.17,1.33l-0.83,2.67c0,0-2.84,0-3.34,0
		s-3.66-0.17-2.16,1.5c1.5,1.66,2.5,1,2,2.5s-2.34,1.83-2.34,3c0,1.16-0.16,4.33-0.16,4.33l4.83,3.5c0,0-1.5,1.17-1.5,3
		s0.5,4.83-0.5,6.17c-1,1.33-4,7.66-4,7.66l1.5,2.17l17.33,0.33c0,0,0.5,2.5-0.5,3.84c-1,1.33-2.83,2.33-2.83,2.33l-4.17-1.5
		l-2.16,2.67l4,1.33c0,0,1.5,2.33,0,2.33s-2.67,0.17-2.67,0.17s0.33,2.33-0.33,4c-0.67,1.67-1.67,4.17-1.67,4.17l7.17-1.17v-3.83
		l5.16-1.17c0,0-0.33,3,0.67,3.83c1,0.84,2.67,2.17,2.67,2.17s1.5-2,3.33-0.83c1.83,1.16,2.5,1.5,3.5,1.5c0.92,0,6.61,0,7.54,0
		c-0.28,1.15-0.7,1.92-1.79,2.33c-2,0.75-5.5,1-6,4l11.5,1.25c0,0,0,3-1.5,5.25s-3.75,4.75-3.75,4.75l17.25,1.5c0,0-0.5,5,1,4
		s2.75-2.75,2.75-2.75l3.5,3.25c0,0-3,2.75-2,3.5s2,1,2.25,2.25s0.25,3.25,1.5,3.5s4.5-0.75,4.5-0.75l4,4l2.25-2
		c0,0,2.5-1.25,3.5,2.5s-1.75,8.75-1.75,8.75l4.75,3.5l-3.5,2c0,0,3.25,4.75,2,5.75s-2.25,1.75-2,3s2.5,5.5,2.5,5.5l-3,2.5l1.5,5.75
		c0,0-3.25,5.25-5.25,2.75s-2.25-5.75-2.25-5.75s-0.75-5.5-2.25-2.5s-2,4-2,4l-5,0.75l-5.25,7.5l9,9.5l-11,3c0,0,1.25,4.5-0.75,6.75
		s-8.5,5.5-8.5,5.5s7.75,6.5,9.5,10.25s2.25,5.5,1.75,7.25s-1.5,4.5-1.5,4.5l-6.75-1l-2.75,3c0,0-4.25-3-6-4s-5.5-1.25-4.25,1
		s2.25,5,2.25,5s-4.25,4.75-2,5.5s7.25-0.25,7.25-0.25s-0.25,4.25,3.25,4.25l-0.25,4h4.75v3.25c0,0-2.25-0.25-2.75,2
		s-6.75,32-6.75,32l-36.5,13l-0.25,6.75c0,0-5.5,0-7.5,0s-1.25,4.5-1.5,6.5s-3.75,0.5-3.75,0.5l-7.75-3l0.25-7c0,0,1.25-0.75,2.25-2
		s0.25-3.25,0-5.25s-4.5-0.75-4.5-0.75s-0.5-5-0.75-7.5s-9.75-8.5-9.75-8.5l-1.75,3.25l5.75,4.25l-4,8c0,0-9,0-10.5,0.25
		s-3,1.5-3,1.5l-6-3.75l0.25-3.5l-6.5-3.75c0,0-3.25,2-4.5,3.25s-0.75,5.75-0.75,5.75l-7.5,6.75l-4.25-1.5c0,0-5,4.25-6.5,5
		s-4-0.75-4-0.75V747l2,2.75l-2,15.25l5.5-1.75c-0.5,3-4.25,9.75-4.25,9.75l0.75,20.25l-5.75-2.25c0,0-0.75,3.5-2.75,4
		s-0.75-1-1.25-3s-4.5,0.5-4.5,0.5l-0.75,7.25l-15.75,1.5v5.25l-22.75,1.25l-1,3.75l-15-0.5l-1-4.5c0,0-1.5-0.75-3.25-2
		s-1.5-2.25-1.75-3.75s-2.25,0.25-3.5,0.25s-1-1.5-1-3.25s3.75-3.5,3.75-3.5l-0.75-11.5c0,0-0.25-1.25-1.5-2.25s1-5,1-5l-11.5,3
		l-1.5-2.75l-4.25,2c-0.75-3.5-7.25-19.5-9.25-23s-0.5-7-0.5-7l-6.25-3.75c0,0-0.25-12.5-0.25-14.75s0-4.75,0-4.75l-3.75-1l3.5-5.75
		l3.75,2.5l1.5-3.5l-3-3c0,0,2.5-5.25,3.5-7s-1.5-4.75-1.5-4.75l7.25-2.25c0,0,1.5,0.25,2.75,1.25s3,1.25,6.25,0.25
		s2.75-8.75,2.75-8.75s14-2.75,17.5-3.5s2.25-0.75,1.75-2.5s-4.25-0.75-4.25-0.75l1-4.25l-10.5-0.5l-6.5-6.5l3.5-3.5l-3-1.5
		c0,0,1.75-6.5,1-9.25s-10.5-10.75-10.5-10.75l-2.25,2.5c0,0-5.5-5.25-6.5-6.75s-2.25-5.5-2.75-7.25s-9.75-11.75-10.5-13.5
		s-1.5-1.5-3.25-1.5s-4-2.75-4-2.75L48.697,599l3.25-3.5l-6-6.75l6.75-7.25l-13.5-12.25l3.75-5.25l-7.5-2.5c0,0-2.5-7-3.5-9.75
		s-7.25-6.75-7.25-6.75l1.25-23.5l6.5-0.25l0.75-36.5l50,2.5l0.25-9.25l9.5,4l-2.25,15l21,3.25l-3.5,33.25l4,0.5
		c0,0,1.75-2.5,2.5-3.25s1.75-0.5,3.25-0.25s1,1.75,2.25,4.75s2.75,1.75,2.75,1.75l-0.25,4.25l8.5,2.75l0.25-10
		c0,0,4.75,0.25,7-1.25s0.5-6,0.5-6l12.25,1.75l-0.5,6.75l9,2.5l0.5,3.25c0,0,1,1,2.5,2.25s1.25,5,1.25,5l11.5-6.5l-1,8.75
		c0,0,2.25,0,3.5-0.25s4.75-2.25,7-2.75s9,6,9,6l3-3.5l-32.25-26l1-3.75c0,0,5,1,8,1.25s14-2.75,14-2.75s0.5-3.5,1-5.75
		s-5-5.5-5-5.5l-0.25-9.25l4.5-1.75l2.25-12.25l-9.25-0.25l-1-16.75c0,0,2.75-2.25,3-4.25s-4.75-3.5-4.75-3.5s0.25-3,1.25-6
		s4-3.5,4-3.5l-0.51-3.2l24.43-11.8c0,0,2.16-1.33,2.16,0.5s-0.33,7.17-0.33,7.17s5.83,1,6.5,1.83s1.33,0.83,2.83,0.5
		s5.67-1,5.67-2.17c0-1.16,0-3,0.67-3.5c0.66-0.5,1.66-0.83,1.66-0.83s2.17,1.83,1.34,4.17c-0.84,2.33-3,6.33-2.34,7.33
		c0.67,1,4,1.83,5,1.17c1-0.67,1.67-2,2.5-1.17c0.84,0.83,2.34,1,3.17,1s3-0.17,3-0.17l1.33-3.66h2l-1.16,5.33l2.66,1.17l1.17-6.17
		c0,0,2.83-0.33,3.17,0.83c0.33,1.17,0.5,2.34,1.83,2.34s4-0.84,4.5,0.33s1.5,3.67,1.5,3.67l4.83-1.17v3.67h3.5l0.5-4.5
		c0,0,3.34-0.34,4-0.34c0.67,0,2,3,3.17,2.34c1.17-0.67,3.33-3,3.83-2.17s1.67,5.33,1.67,5.33s4.67,0,6.33-0.16
		c1.67-0.17,4.84-1,4.84-1l2.66-6.17c0,0,5.67-0.67,5,1c-0.66,1.67-0.33,3.5-1.5,3.83C293.867,455.67,292.027,455.33,292.867,456.5z
		"/>
</g>
<g >
	<path fill="none" stroke="#FFFFFF" d="M378.062,267.472l3.5-2.25l1,1.25l6.375-3.5l0.875-3l4.625-5.375
		c0,0,10.875-1.75,14.25-2.125s4.875-5,4.875-5l1.375-9.625l5.375-0.375l1.5,6.5l1.375-0.125l3.75,1.875l1.375-0.125
		c0,0,0.875-1.25,1-2.375s-0.125-6.25-0.125-6.25l9,1.25l0.375-5.625c0,0,1.375,1,2.375,1.75s2.625,1.625,3,2.625
		s0.625,2.625,3.5,3.5s18,5.875,18,5.875s5.125-0.125,7,0.25s2.875,1.125,4.125,3.375s5.625,10.375,4.875,12.625
		s-3.375,10.125,0.875,12.25s9,4.75,10.375,6.375s3.125,4,4.125,4.125s5.125,1.125,6.875,2.375s8.625,7.25,10.5,8.125
		s14.25,8.5,16.375,9.5s18.125,11.75,21,14.5"/>
	<path fill="none" stroke="#FFFFFF" d="M477.938,252.597l-8,7.5l-2.5-2.375l-1.875,0.25c0,0-0.625,2.5-1,3.75
		s-1.125,4.875-1.125,4.875l-5.875,0.25c0,0-1.25,0.625-1,1.625s0.875,3,0.875,3.5s-0.125,1.25-0.875,2.25l5.25,2.375
		c0,0,6.75,4.75,8.125,6.375c0,0,0,4.5,0.5,5.125l-2.5,5.75l-5-4.5l0.25,2.5l-3,2.25l-4.375,2.375l-2.125-5.125l-2.375,1.375
		c0,0,1.625,4.125,1.625,5.375s0.25,4.75,0.625,7.125s1.625,8.875,1.5,10.25s-0.375,3.5-0.375,3.5s2.75,0.5,3.125,1.25
		s0.75,1,1.875,1.25s7.75,1.25,9.375,2s7,3.25,7.875,5.75s1.625,8.125-1.75,10s-15.875,7.5-16.625,9.625s-1.75,11.875-1.75,11.875
		s9.125,7.625,11.375,8.875s8.375,4,10.125,3.875s5.875-1.5,7.625-1.25s7.625,1,9.625,0.25s13.625-6.625,15.125-6.875
		s3-1.625,2.875,0.875s-0.125,7.125-0.125,8.875s1.5,6.625,1.875,8.625s2.5,4,3.625,4.75"/>
	<path fill="none" stroke="#FFFFFF" d="M400.312,311.348c0,0-10.583,14-11.666,15.167c-1.084,1.167-11.75,11.584-11.75,11.584
		l5.916,5.5l-7.666,9.583l-25.75,22.332"/>
	<path fill="none" stroke="#FFFFFF" d="M304.146,253.764l2.333,2.167l4.833-0.333l2,1.083c0,0,8.5-0.417,10.667-1.25l2-2.917
		c0,0,8.667,2,11.75,1.167s5.75-2.667,7.5-2.417s2.916,1.417,3.833,3.417s2.084,4.25,2.667,5.333s1.25,2.5,1.167,3.417
		c-0.084,0.917-1.25,4.5-2.417,5.583s-3.083,3.5-5.333,3.917c-2.25,0.416-5.417,1.75-5.75,2.166
		c-0.334,0.417-2.584,2.334-0.167,4.334s6.583,5.833,10.417,4c3.833-1.834,8.999-4.75,8.916-11.5
		c-0.083-6.75-0.25-11.417,1.417-12.084s2.583-0.625,2.583-0.625c1.75-0.125,3.875-0.25,6.625,1.875s5,3.5,5.875,4.125
		s3.375,2.125,4,4.25c0,0,1.833,6.875,2.75,8.292s5,5.083,8.917,2.25s7.501-6.333,9.417-6.916c1.916-0.584,6.999-1.668,7.416,1.916
		s0.084,7.583-2.666,11s-7.251,7.25-9.334,8.75s-5.083,3.583-4.333,7.5s4.083,10.25,10.25,8.834c6.167-1.417,7.833-3.5,7.833-3.5
		s4.917,6.333,5.417,7.333s3.167,5.833,3.917,7.667s4.083,6.166,4.833,6.75l-0.167,3.834l1.917,1.082l2.333-0.416l0.834,3.5
		c0,0-1.251,1.416-1.334,1.916s-0.166,1.168-0.583,1.668s-2.667,2-2.75,2.582c-0.083,0.584-0.416,1.085-0.083,1.668
		c0.333,0.582,0.666,0.832,0.666,0.832l0.083,2l2.417,2.584l-2.083-0.25l-0.5,1.5c0,0,2.249,0.916,3.416,1l-3.833,6.084
		l0.083,13.166c0,0-5.249,0.167-6.666-0.416c-1.417-0.584-5.834-3-5.834-3l-0.75,1.5c0,0,2.25,1.167,1.75,3.25
		c-0.5,2.082-0.583,2.416-0.583,2.416l-1.583,1.834l-0.25,1.582l4.416,1.084l-2.749,7.584c0,0-2.001,0.417-2.334,1
		c-0.333,0.582-1.167,2.167-0.5,2.167s1.751-0.917,1.584-0.25c-0.167,0.665-0.584,1.415-0.084,1.583
		c0.5,0.167,0.834,0.417,0.584,0.75c-0.25,0.332-0.5,0.748-0.5,1.332c0,0.585,0.082,1.085-0.334,1.335s-0.583,0.415-0.583,0.915
		s0.584,3.25-0.333,3.418c-0.917,0.167-2.75,0.25-2.167,1.417c0.583,1.165,0.501,1.915,0.917,1.833
		c0.416-0.083,0.916-0.333,0.916-0.333l1.25,2l1.5-0.085l-1.083,5.168l1.667,0.582c0,0-0.333,1.751-1.5,1.835l-0.917,6.333
		l0.917,1.75l-1.917,5.167l9.083,3.833l2.917,5.75v2l1.167-0.167"/>
	<path fill="none" stroke="#FFFFFF" d="M339.312,160.764c0,0,4.584,5.584,5.75,6.167s2.416,1.083,2.416,1.083
		s0.001,3.667,0.418,4.75c0.416,1.083,12,29.167,12,30s-0.084,2.083-1.75,2.25l1.332,1.75l6.584-0.333l1.167,2.583
		c0,0-4.083,3.25-3.5,7.25s1.749,5.75,2.083,6.667s5.833,11.5,6.5,15.167s1.25,11.333,2.084,13.25
		c0.833,1.917,7.166,13.875,7.166,13.875"/>
	<path fill="none" stroke="#FFFFFF" d="M388.801,134.228l1.599,4.264c0,0,6.262,3.998,6.729,4.397s1.532,1.732,1.865,1.732
		s0.6-0.066,0.6-0.066s3.731,2.065,4.064,4.33s1.133,11.592,1.466,13.458s2.797,12.392,2.73,13.391s-0.199,7.461,0.067,8.793
		s2.332,9.061,2.665,9.994c0,0-1.865,5.996-1.865,7.995s-0.4,6.862-0.2,7.661s1.001,2.265,1.267,3.531s1.332,6.262,1.332,6.262
		l3.531,2.465l-3.531,0.999c0,0,1.532,4.73,1.599,6.196s0.134,5.596,0.134,5.596l2.086,2.623"/>
	<path fill="none" stroke="#FFFFFF" d="M488.688,159.722l-2.188,2.188l0.25,1.75l-3.25,1.438l-2.812-1.812l-0.562,1.188l1,0.75
		l-6.438,6.312l0.625,0.75l-4.375,3.562l9.812,0.062c0,0,0.312,2.25,0.5,3.5s0.875,5-0.938,7s-1.812,2-1.812,2l-0.438,0.438
		l-5.188-0.562l-1.812-0.875l-1.812,0.812c0,0-1.562-1.812,0.125-2.875l-1.438-1.688l0.75-0.812l-0.938-2l-2.75-1l-1.312,1.812
		l2.812,1.625l-1.5,2.188l1.812,1.188l-6.625,6.5c0,0-0.188,2.062-1.062,2.562s-2.125,0.75-2.875,0.25
		c0,0,0.625,10.188,0.125,12.125s-2.812,6.875-3.312,8.062s-6.625,14.625-6.625,14.625v9.312"/>
	<path fill="none" stroke="#FFFFFF" d="M452.479,296.265l-2.833,0.166c0,0-1-1.749-1.5-2.166l-0.917,0.916l-3.333-1.416
		c0,0-1.083,3.833-1,5.916l-1,0.334l-2.5-1.334l-0.5,1.834c0,0-0.917-0.917-2.167-0.5c-1.25,0.416-8.167,2.166-8.167,2.166
		l-0.25-0.833l-2.25-0.333l-0.333,1.666l-4.667-1.583l-8.75,10.583"/>
	<polyline fill="none" stroke="#FFFFFF" points="315.581,130.303 311.339,130.046 311.811,128.204 309.154,129.832 308.812,131.16
		304.956,133.559 	"/>
	<path fill="none" stroke="#FFFFFF" d="M294.81,350.599c0,0-1.185,2.581-1.673,3c-0.488,0.417-1.813,1.114-1.534,1.603
		c0.279,0.489,1.812,3.068,1.464,3.697c-0.349,0.627-1.115,0.836-1.604,1.254c-0.488,0.418-1.882,0.976-2.161,1.254
		c-0.279,0.279-1.813,2.303-2.162,2.791c-0.349,0.486-2.022,2.438-1.743,3.066c0.279,0.629,1.115,2.371,0.558,3
		c-0.558,0.627-1.535,1.324-1.325,2.16c0.209,0.837,0.836,1.675,1.395,1.814c0.558,0.139,1.813,1.742,1.883,2.092
		c0.07,0.348,0.418,1.323,0.627,1.394c0.209,0.069,2.023,1.187,2.023,1.187s1.464-0.42,2.022-0.768
		c0.558-0.35,1.952-1.674,1.952-1.674l2.789,1.674l1.255,0.07l1.813,1.254l-0.279,1.673l1.465,1.745l1.534-0.768l1.464,1.254
		l-0.209,2.021l4.044,3.627l0.697-0.977l-0.836-1.115l5.299-5.926l1.046,0.209l-0.488,2.509c0,0,3.138,0.976,4.881,0.279
		l0.349-2.022c0,0,3.975,0.21,5.509,1.186l0.768-3.626c0,0,0.348-1.812,0.627-2.162c0.279-0.347,1.604-0.626,2.092-0.976
		c0.488-0.348,0.768-2.579,0.768-2.929c0-0.349,0.069-6.624,0.069-6.624s-0.906-0.279-0.906-0.697s-0.419-1.186-0.558-1.604
		c-0.14-0.418,0.906-1.534,1.185-1.884c0.279-0.347,0-2.161,0-2.161s-0.418-0.557-1.116-1.254c-0.697-0.698,0.07-3.277,0.07-3.277
		s2.231-0.697,2.998-0.697c0.768,0,5.16-0.279,5.16-0.279l33.889,52.506c0,0,4.253,5.508,9.482,7.809
		c5.23,2.303,14.086,6.137,14.086,6.137s0.488,0.906,0.697,1.185c0.208,0.279,0.208,0.559,0.558,0.769
		c0.349,0.209,0.837,0.836,0.906,1.186c0.069,0.348,0.977,1.812,1.534,1.883c0.559,0.068,1.534,0.557,1.395,0.977
		c-0.14,0.418-1.116,1.044-1.255,0.697c-0.14-0.35-1.395-1.326-1.743-0.838s-0.977,1.185-1.535,1.256
		c-0.557,0.068-2.021-0.279-2.51-0.35c-0.488-0.068-2.092,0.209-1.883,0.837c0.21,0.628,1.465,2.79,0.907,2.997
		c-0.559,0.211-1.325,1.047-0.907,1.326c0.419,0.279,3.208,1.812,3.766,1.882c0.559,0.07,1.674,0.558,1.674,0.558
		s-0.07,0.906,0.209,1.047s1.743,0.977,1.743,0.977l0.279,3.416l-0.907,0.627l0.418,1.117l1.953,0.696l-1.395,5.788l-0.697-0.071
		c0,0-1.812,2.651-3.765,2.163c-1.953-0.488-7.531-2.65-7.531-2.65s-6.764,5.369-7.252,5.857c-0.488,0.487-1.464,2.162-2.162,3.138
		c-0.696,0.978-3.556,2.86-5.438,3.696c-1.883,0.837-4.741,1.186-5.647,1.186s-1.604,0.209-2.231,0.418
		c-0.628,0.209-3.557,1.395-3.557,1.395s-0.278,1.673-0.627,2.51c-0.35,0.837-0.628,1.814-0.279,2.162
		c0.35,0.35,1.115,1.324,1.115,1.744c0,0.418-0.209,2.51,0.28,2.857c0.487,0.349,1.185,0.419,1.882-0.068
		c0.697-0.49,1.673-1.883,2.301-1.883s1.952,0.139,2.511,0.487c0.558,0.349,2.998,1.743,4.114,1.743c1.114,0,4.531,0.14,5.229,0.209
		s3.835,1.047,4.254,1.465s0.906,1.604,1.115,1.883c0.21,0.277,0.907,0.905,1.674,1.115c0.768,0.209,2.511,0.559,2.929,1.185
		c0.418,0.628,4.951,5.229,4.951,5.229s-0.141,1.953-0.697,2.232c-0.558,0.279-1.186,0.697-1.186,1.115s-0.279,2.091-0.279,2.091
		s-2.649-0.139-2.649,0.35c0,0.489-0.488,3.278,0,3.417s0.767,0.418,1.324-0.07c0.559-0.488,0.628-1.115,1.046-0.977
		c0.419,0.141,1.813,0.838,2.093,0.838c0.278,0,0.836-0.418,1.115-0.279c0.279,0.141,1.534,0.35,1.883,0.209
		c0.349-0.139,2.72-1.115,3.347-1.115c0.628,0,2.58-0.069,2.58-0.069l0.697-2.093l-6.694-4.323c0,0,6.206,2.163,9.345-3.417
		l7.181-0.068l-2.789,15.479"/>
	<path fill="none" stroke="#FFFFFF" d="M276.547,396.765c-0.209-0.418-0.14-0.767-0.558-0.906c-0.418-0.14-1.464-0.14-1.743-0.629
		c-0.279-0.486-1.255-1.186-1.255-1.186s-0.628,0.629-0.837,0.35s-0.488-0.487-0.906-0.627c-0.419-0.14-1.255-0.14-1.813-0.489
		c-0.558-0.347-1.255-0.417-1.673-0.068c-0.418,0.348-0.418,0.418-0.558,0.977c-0.139,0.558-0.767,1.253-0.767,1.253l-2.371-1.951
		c0,0-2.65,2.161-3.417,2.161c-0.767,0-4.393-4.184-4.393-4.184l-5.021,3.974l-2.441-2.996l-3.834,2.23l-0.209,1.186l-1.883,1.254
		l3.487,4.324c0,0-1.743,2.231-2.162,3.348c-0.418,1.114-2.092,6.135-3.347,7.391s-3.277,3.068-3.277,3.068l0.976,2.23l-1.882-0.068
		l-0.07,5.158l1.743-0.628l6.276,3.349l31.936-14.365l-0.627-2.789l-1.046-0.627l-0.07-1.883l-1.604-1.047
		c0,0-0.14-3.067,0.627-3.137c0.768-0.07,2.65-0.141,2.65-0.141L276.547,396.765z"/>
	<path fill="none" stroke="#FFFFFF" d="M228.283,387.883l-10.609,7.381c0,0,0,2.538-1.153,3.46s-3.459,2.768-3.459,2.768
		l0.692,4.612l2.306-1.614l4.843,3.229l1.384-0.922l-1.845-2.537l-0.923-3.46l2.537-1.614l5.535,5.766l2.537-0.691l-1.153-3.921
		l2.999-2.076l-0.922-2.768l1.845-2.768L228.283,387.883z"/>
	<path fill="none" stroke="#FFFFFF" d="M592.927,299.985l-3.558,4.448c0,0-5.041-1.187-5.338,1.186s-0.89,6.523-3.262,7.71
		s-7.117,1.187-7.117,1.187"/>
	<path fill="none" stroke="#FFFFFF" d="M182.864,446.834l24.5-11.833c0,0,2.167-1.333,2.167,0.5s-0.333,7.166-0.333,7.166
		s5.833,1.001,6.5,1.834s1.333,0.834,2.833,0.5s5.667-1,5.667-2.167s0-3,0.667-3.5s1.667-0.833,1.667-0.833s2.166,1.832,1.333,4.166
		s-3,6.334-2.333,7.334s4,1.832,5,1.166s1.667-1.999,2.5-1.166s2.333,1,3.167,1s3-0.167,3-0.167l1.333-3.667h2l-1.167,5.334
		l2.667,1.166l1.167-6.166c0,0,2.833-0.334,3.167,0.833s0.5,2.333,1.833,2.333s4-0.832,4.5,0.334s1.5,3.666,1.5,3.666l4.833-1.166
		v3.666h3.5l0.5-4.5c0,0,3.333-0.333,4-0.333s2,2.999,3.167,2.333s3.333-2.999,3.833-2.166s1.667,5.333,1.667,5.333
		s4.667,0.001,6.333-0.166s4.833-1,4.833-1l2.667-6.167c0,0,5.667-0.667,5,1s-0.333,3.499-1.5,3.833s-3,0-2.167,1.167
		s3,4.334,1.5,4.167s-3.167-0.667-3.167-0.667l-1.333,1.5c0,0,5.667,2.999,4.5,8.333c0,0-3.167,0.334-4,1.167s-3,2.5-3,2.5l-3-0.167
		l-1.333,3.834l3.167,1.333l-0.833,2.667c0,0-2.833,0-3.333,0s-3.667-0.166-2.167,1.5s2.5,1,2,2.5s-2.333,1.834-2.333,3
		s-0.167,4.333-0.167,4.333l4.833,3.5c0,0-1.5,1.167-1.5,3s0.5,4.834-0.5,6.167s-4,7.666-4,7.666l1.5,2.167l17.333,0.333
		c0,0,0.5,2.501-0.5,3.834s-2.833,2.333-2.833,2.333l-4.167-1.5l-2.167,2.667l4,1.333c0,0,1.5,2.333,0,2.333
		s-2.667,0.167-2.667,0.167s0.334,2.333-0.333,4s-1.667,4.167-1.667,4.167l7.167-1.167v-3.833l5.167-1.167
		c0,0-0.333,2.999,0.667,3.833s2.667,2.167,2.667,2.167s1.5-1.999,3.333-0.833s2.5,1.5,3.5,1.5s7.667,0,7.667,0"/>
</g>
</svg>
