<?xml version="1.0" encoding="UTF-8" standalone="no"?>
<svg width="189px" height="244px" viewBox="0 0 189 244" version="1.1" xmlns="http://www.w3.org/2000/svg" xmlns:xlink="http://www.w3.org/1999/xlink">
    <!-- Generator: Sketch 3.6.1 (26313) - http://www.bohemiancoding.com/sketch -->
    <title>msk-map</title>
    <desc>Created with Sketch.</desc>
    <defs></defs>
    <g stroke="none" stroke-width="1" fill="none" fill-rule="evenodd">
        <g fill="#3F51B5">
            <path d="M100.578,122.682 C100.578,122.682 99.642,121.81 99.472,124.093 C99.298,126.374 99.438,125.739 97.925,125.443 C96.411,125.149 95.211,125.638 93.166,126.34 C91.123,127.04 87.952,127.602 86.405,126.486 C84.86,125.371 84.513,125.554 84.03,126.605 C83.546,127.654 84.03,131.186 82.915,131.363 C81.8,131.54 80.333,131.009 81.535,131.865 C82.737,132.719 85.702,138.143 86.353,139.78 C87.004,141.417 87.315,141.609 87.414,142.517 C87.515,143.424 87.023,143.885 87.528,144.387 C88.031,144.886 89.187,144.699 89.743,144.616 C90.301,144.532 91.98,146.386 91.23,147.388 C90.48,148.389 88.568,149.327 88.357,150.443 C88.145,151.556 88.335,151.831 88.528,152.683 C88.724,153.537 89.424,153.727 89.803,154.447 C90.18,155.166 90.432,156.529 89.55,157.844 C88.668,159.158 88.433,160.177 88.316,163.89 C88.2,167.601 89.072,167.793 87.918,168.124 C86.764,168.454 82.623,167.387 81.256,167.181 C79.889,166.974 80.559,167.387 81.018,168.726 C81.475,170.064 79.179,170.825 79.292,171.715 C79.404,172.606 81.893,171.096 82.569,172.287 C83.246,173.479 83.458,174.458 83.14,174.641 C82.821,174.825 81.863,174.385 81.59,175.408 C81.316,176.429 82.274,177.178 81.378,178.026 C80.482,178.876 79.567,178.51 80.084,179.33 C80.601,180.149 82.347,180.173 80.496,181.412 C78.644,182.649 78.998,183.27 78.923,184.714 C78.848,186.158 78.683,187.917 79.513,187.597 C80.345,187.28 80.9,186.295 80.656,187.757 C80.409,189.219 79.859,189.868 80.098,190.41 C80.336,190.953 80.907,192.179 80.336,193.163 C79.767,194.148 79.66,194.113 79.732,195.493 C79.805,196.874 80.144,198.219 79.307,198.754 C78.473,199.291 78.323,199.233 78.286,199.616 C78.25,199.997 77.49,200.819 83.342,201.916 C83.342,201.916 84.994,204.564 85.285,205.879 C85.577,207.194 86.533,208.303 85.989,206.357 C85.445,204.411 83.786,203.474 85.114,202.8 C86.442,202.129 87.543,202.618 88.119,202.688 C88.697,202.759 98.318,204.742 102.91,204.735 C107.501,204.73 109.467,204.783 111.961,203.214 C114.456,201.645 120.522,196.355 122.187,195.985 C123.853,195.612 124.682,196.74 125.373,194.941 C126.064,193.142 130.269,190.305 133.07,187.596 C135.87,184.89 140.514,181.286 141.278,180.249 C142.041,179.21 144.269,179.116 143.348,177.89 C142.425,176.662 140.494,171.325 140.409,168.223 C140.322,165.12 140.117,164.713 136.302,166.194 C132.486,167.674 129.453,169.915 128.365,169.561 C127.276,169.207 125.16,169.179 123.037,169.568 C120.914,169.956 120.199,170.951 117.128,169.223 C114.055,167.494 109.908,165.996 108.27,164.539 C106.629,163.082 106.119,160.617 106.153,158.352 C106.185,156.086 107.367,153.291 108.468,152.441 C109.57,151.593 110.565,151.209 112.244,150.673 C113.922,150.136 117.974,147.132 118.5,145.794 C119.184,144.055 120.035,140.784 111.123,138.825 C107.341,137.994 107.499,136.254 106.377,135.852 C105.255,135.45 104.603,132.66 104.045,130.352 C103.487,128.047 104.734,125.179 104.436,124.094 C104.138,123.012 103.965,123.948 102.797,124.125 C101.629,124.302 100.728,123.023 100.578,122.682 L100.578,122.682 L100.578,122.682 Z" ></path>
            <path d="M83.365,243.029 C83.365,243.029 82.324,241.173 82.843,240.088 C83.362,239.003 84.665,239.278 84.665,239.278 C84.665,239.278 83.93,238.721 83.747,238.264 C83.561,237.804 84.851,237.182 83.659,237.044 C82.465,236.906 82.366,236.62 82.092,235.802 C81.818,234.984 80.677,233.039 78.828,231.98 C76.979,230.921 78.51,230.612 79.243,229.165 C79.978,227.719 80.793,225.469 80.774,224.565 C80.755,223.66 79.969,221.906 80.509,221.183 C81.048,220.46 82.314,220.334 82.049,219.531 C81.783,218.73 81.466,219.067 81.226,218.179 C80.988,217.29 81.107,213.633 82.386,212.352 C83.663,211.07 84.009,209.861 84.932,209.717 C85.857,209.574 86.757,209.794 86.357,209.285 C85.958,208.776 85.826,208.475 85.826,208.475 C85.826,208.475 85.19,209.055 84.676,208.616 C84.161,208.178 84.11,207.611 84.135,206.997 C84.161,206.381 83.295,203.639 82.65,203.198 C82.004,202.758 77.625,201.492 77.625,201.492 C77.625,201.492 76.66,200.335 76.97,199.367 C77.278,198.401 78.217,198.445 78.297,197.576 C78.375,196.705 77.88,193.703 78.526,192.809 C79.172,191.916 79.739,192.08 79.057,191.449 C78.375,190.819 77.943,190.678 77.943,190.678 C77.943,190.678 78.624,189.836 79.022,189.247 C79.42,188.657 78.297,188.531 78.297,188.531 C78.297,188.531 78.731,187.352 77.722,187.242 C76.713,187.132 76.244,187.659 76.139,186.96 C76.032,186.259 76.227,186.417 75.722,185.835 C75.219,185.253 75.086,184.403 76.051,184.475 C77.015,184.546 77.386,184.529 77.386,184.529 C77.386,184.529 76.741,183.223 77.359,182.383 C77.978,181.544 79.403,181.315 79.058,180.812 C78.713,180.308 76.367,179.446 77.422,178.201 C78.477,176.956 78.766,178.328 79.518,177.642 C80.271,176.955 80.202,176.846 79.987,176.053 C79.773,175.259 81.251,174.528 80.412,174.245 C79.574,173.963 79.244,174.865 78.731,174.221 C78.217,173.576 77.323,172.474 78.234,171.272 C79.146,170.069 79.676,170.509 79.845,169.613 C80.014,168.717 79.867,168.356 79.42,167.718 C78.974,167.08 78.495,165.895 79.483,165.689 C80.471,165.483 80.96,165.98 81.694,166.389 C82.429,166.797 85.734,167.464 86.294,167.074 C86.855,166.68 86.367,162.998 86.836,161.393 C87.305,159.789 88.707,158.288 88.58,157.447 C88.451,156.605 88.308,157.449 87.331,156.779 C86.354,156.106 86.077,155.712 86.764,154.962 C87.452,154.212 87.827,153.925 87.286,152.783 C86.747,151.643 86.119,151.07 87.385,149.798 C88.649,148.527 89.979,148.038 89.614,147.235 C89.249,146.432 88.568,146.729 87.411,146.181 C86.256,145.633 86.676,144.963 86.535,143.585 C86.394,142.209 82.616,137.681 82.146,135.627 C81.678,133.576 79.882,130.908 78.829,130.939 C77.776,130.969 76.555,132.711 75.371,132.488 C74.185,132.265 74.677,131.895 73.035,133.377 C71.392,134.86 61.114,146.355 60.966,147.391 C60.818,148.427 63.392,151.78 63.392,151.78 C62.674,153.172 44.831,168.708 43.848,170.04 C42.863,171.37 52.343,181.099 52.442,182.669 C52.539,184.239 52.619,184.794 53.477,184.966 C54.336,185.137 58.519,192.388 60.467,193.301 C62.416,194.215 63.343,193.727 63.652,194.417 C63.962,195.109 64.166,195.126 64.759,195.172 C65.351,195.22 66.385,195.999 66.385,195.999 C66.385,195.999 70.178,196.659 70.287,197.531 C70.396,198.404 72.827,200.055 71.579,201.022 C70.332,201.99 70.818,202.942 69.473,202.382 C68.129,201.824 67.183,202.202 67.183,202.202 L69.359,203.287 C69.359,203.287 69.519,203.585 68.776,204.576 C68.033,205.566 70.528,205.254 70.663,206.018 C70.795,206.783 71.575,206.772 71.575,206.772 C71.575,206.772 71.308,209.053 71.565,209.918 C71.822,210.784 73.69,210.415 73.69,210.415 C73.69,210.415 73.641,210.911 72.468,211.789 C71.296,212.669 72.539,214.693 70.619,215.572 C68.699,216.454 67.64,214.813 66.576,215.336 C65.51,215.86 54.978,223.29 53.809,222.817 C52.642,222.344 52.907,222.023 52.482,221.888 C52.059,221.755 51.067,222.007 50.014,223.123 C48.961,224.24 49.102,225.348 48.944,226.702 C48.784,228.055 48.156,230.672 49.378,229.029 C50.598,227.385 50.666,225.79 51.704,226.111 C52.742,226.432 52.74,227.385 53.722,227.959 C54.705,228.534 55.59,228.558 56.359,228.163 C57.13,227.77 56.606,229.255 57.917,229.392 C59.227,229.526 60.419,228.991 60.419,228.991 C60.419,228.991 62.376,229.863 62.906,230.751 C63.437,231.641 64.976,231.333 64.976,231.333 C64.976,231.333 64.348,232.459 65.728,233.087 C67.107,233.717 67.257,234.334 67.231,234.873 C67.206,235.412 68.585,235.203 68.39,235.989 C68.196,236.775 66.857,236.732 66.532,237.768 C66.209,238.802 68.113,239.536 67.161,239.717 C66.208,239.9 65.13,238.77 64.771,239.584 C64.412,240.399 63.197,241.64 64.063,242.769 C64.931,243.897 65.506,241.648 66.161,242.081 C66.816,242.514 67.505,242.529 67.585,242.002 C67.665,241.476 67.842,240.421 68.408,240.453 C68.974,240.484 69.451,241.365 69.796,240.799 C70.141,240.233 69.151,238.848 70.071,239.446 C70.99,240.044 72.028,241.369 72.46,240.184 C72.892,239.002 70.903,237.408 71.398,237.15 C71.893,236.889 71.197,236.02 72.194,235.915 C73.191,235.81 73.769,234.099 73.769,234.099 C73.769,234.099 74.671,230.961 76.387,233.462 C78.103,235.963 78.838,235.199 79.298,235.333 C79.759,235.468 78.567,238.148 78.272,239.423 C77.976,240.698 77.401,244.46 83.365,243.029 L83.365,243.029 L83.365,243.029 Z" ></path>
            <path d="M119.183,97.926 C119.183,97.926 116.819,100.635 115.94,101.311 C115.059,101.99 114.951,101.937 114.274,101.466 C113.597,100.993 112.957,101.496 112.548,102.267 C112.142,103.038 112.993,105.895 111.586,106.184 C110.18,106.473 108.225,105.631 107.864,106.467 C107.502,107.302 109.156,107.992 108.554,108.619 C107.95,109.246 106.968,109.468 108.042,109.668 C109.116,109.869 115.991,113.172 116.382,115.448 C116.775,117.726 117.651,118.392 116.455,119.329 C115.262,120.267 115.182,120.361 114.631,121.164 C114.08,121.966 113.332,120.56 112.588,120.628 C111.841,120.694 112.141,121.879 111.804,122.071 C111.468,122.265 108.884,122.316 107.857,123.599 C106.829,124.882 106.655,124.148 106.568,123.37 C106.484,122.592 106.237,121.099 105.448,121.158 C104.66,121.218 105.346,122.144 105.302,123.363 C105.257,124.584 106.05,129.558 106.177,131.374 C106.305,133.187 105.99,134.52 106.822,135.088 C107.651,135.656 107.884,135.219 108.141,135.962 C108.399,136.703 107.524,137.111 109.959,137.153 C112.394,137.194 121.644,140.196 120.819,144.661 C119.996,149.123 117.799,149.786 115.278,150.747 C112.757,151.707 108.669,154.015 108.451,155.053 C108.232,156.09 108.052,161.163 108.404,161.492 C108.756,161.822 112.76,166.616 116.542,167.572 C120.324,168.527 120.604,168.727 121.632,168.215 C122.66,167.701 123.378,166.841 124.843,167.319 C126.31,167.797 128.566,168.599 130.219,167.637 C131.871,166.676 138.166,162.561 140.078,163.137 C141.991,163.713 142.462,163.225 142.141,164.93 C141.824,166.635 141.584,171.04 142.102,172.409 C142.62,173.778 142.898,176.638 144.02,176.179 C145.14,175.718 146.987,171.578 149.275,170.227 C151.565,168.877 152.082,169.109 152.049,168.058 C152.017,167.005 151.67,166.936 152.765,166.188 C153.86,165.438 158.771,163.286 156.933,155.66 C155.094,148.034 153.392,143.427 154.388,143.208 C155.383,142.99 161.681,148.068 162.662,147.738 C163.644,147.408 165.416,144.041 164.858,142.997 C164.3,141.953 163.178,142.123 163.589,141.375 C164.002,140.625 165.021,140.991 164.466,140.083 C163.91,139.176 163.045,139.729 163.258,138.803 C163.47,137.877 164.128,137.564 163.929,137.222 C163.731,136.88 142.974,124.779 139.723,122.314 C136.471,119.846 135.961,118.703 134.713,117.731 C133.465,116.758 133.538,117.413 131.103,116.534 C128.668,115.655 128.913,113.94 127.128,113.079 C125.343,112.218 122.815,112.612 121.103,110.62 C119.391,108.626 120.127,106.545 120.578,104.486 C121.032,102.424 120.093,96.982 119.183,97.926 L119.183,97.926 L119.183,97.926 Z" ></path>
            <path d="M61.803,151.415 C61.803,151.415 44.087,169.603 42.693,168.672 C41.299,167.741 36.925,157.894 35.779,157.324 C34.632,156.755 34.904,157.341 33.496,157.797 C32.088,158.251 31.061,156.712 30.378,157.632 C29.694,158.55 29.926,159.565 29.926,159.565 C29.926,159.565 28.36,158.706 28.705,159.801 C29.05,160.9 30.39,161.7 30.39,161.7 L28.957,162.798 C28.957,162.798 30.163,163.621 30.378,164.826 C30.592,166.031 29.531,174.297 28.042,173.98 C26.551,173.663 25.718,173.025 25.718,173.025 C25.718,173.025 24.81,175.223 23.436,175.042 C22.062,174.859 23.458,172.819 22.161,172.942 C20.866,173.064 21.425,173.819 18.751,175.536 C16.077,177.253 16.322,175.878 16.349,174.547 C16.376,173.214 16.041,172.677 14.637,173.319 C13.234,173.962 13.785,173.122 13.51,171.822 C13.235,170.521 11.941,171.684 11.465,170.654 C10.989,169.624 10.446,170.023 9.819,170.57 C9.193,171.12 8.173,172.08 8.173,172.08 C8.173,172.08 8.683,170.912 7.217,170.866 C5.751,170.82 5.637,171.55 5.054,169.214 C4.47,166.88 4.408,162.591 8.371,162.068 C12.333,161.545 9.566,160.829 9.579,158.965 C9.593,157.1 10.206,154.055 10.747,155.779 C11.286,157.503 10.771,160.102 11.703,158.953 C12.635,157.802 11.876,156.345 13.15,155.473 C14.423,154.6 16.324,154.777 15.751,157.112 C15.178,159.448 17.794,160.829 18.565,160.299 C19.333,159.767 17.564,154.665 19.813,155.487 C22.062,156.307 21.802,158.932 23.728,158.517 C25.652,158.103 29.046,157.183 29.819,156.146 C30.59,155.111 31.143,154.912 30.043,154.412 C28.945,153.914 26.089,152.401 27.218,151.513 C28.345,150.621 28.425,149.719 28.425,149.719 C28.425,149.719 30.723,148.184 31.106,147.383 C31.489,146.582 30.204,142.04 30.204,142.04 C30.204,142.04 22.62,132.71 22.042,130.444 C21.464,128.176 20.64,131.206 21.126,127.895 C21.614,124.585 20.208,121.902 19.414,121.148 C18.62,120.396 18.287,119.792 18.712,118.635 C19.137,117.48 16.337,111.585 16.879,107.312 C17.423,103.039 15.91,104.091 15.606,102.688 C15.3,101.285 14.946,99.253 16.111,99.126 C17.274,98.998 18.379,98.713 18.379,98.713 C18.379,98.713 20.065,98.394 21.405,98.961 C22.746,99.526 24.41,99.732 25.706,98.842 C27,97.951 27.571,97.329 29.155,97.415 C30.741,97.503 34.995,98.866 36.627,97.91 C38.261,96.955 39.296,95.409 40.45,96.377 C41.604,97.345 44.605,101.336 44.032,103.159 C43.459,104.983 42.48,106.522 40.688,107.583 C38.896,108.644 37.675,109.718 36.507,109.494 C35.34,109.269 35.405,111.605 37.012,112.89 C38.617,114.177 39.421,116.797 42.413,115.828 C45.405,114.859 46.918,113.643 48.106,111.782 C49.294,109.921 49.449,107.143 49.446,104.717 C49.444,102.29 49.788,101.318 50.588,101.355 C51.389,101.392 59.2,104.328 59.454,106.039 C59.705,107.749 60.236,115.451 64.51,114.143 C68.782,112.832 69.168,112.455 72.38,110.097 C75.591,107.738 79.759,111.496 74.702,116.619 C69.646,121.744 66.129,125.655 67.576,128.013 C69.022,130.373 72.089,131.211 71.651,132.26 C71.213,133.311 59.069,146.628 59.069,146.628 C59.069,146.628 60.611,150.697 61.803,151.415 L61.803,151.415 L61.803,151.415 Z" ></path>
            <path d="M59.912,105.047 C59.912,105.047 53.508,99.297 51.451,99.692 C49.394,100.087 48.131,100.446 48.041,103.838 C47.951,107.227 46.939,115.904 42.069,114.241 C37.198,112.578 36.759,111.87 38.14,110.75 C39.521,109.629 46.056,107.765 45.584,104.256 C45.112,100.747 42.989,95.294 41.504,95.126 C40.019,94.957 38.975,96.312 36.919,96.736 C34.863,97.16 30.284,95.439 28.679,95.922 C27.072,96.404 26.561,97.951 24.544,98.115 C22.527,98.281 21.333,97.597 19.68,97.709 C18.029,97.822 17.457,97.602 17.153,97.545 C16.847,97.484 16.291,93.078 16.906,91.522 C17.523,89.966 18.394,89.717 17.405,89.747 C16.417,89.778 13.822,90.286 13.604,91.276 C13.386,92.264 11.646,94.125 11.155,94.813 C10.665,95.504 11.123,96.89 11.123,96.89 C11.123,96.89 9.351,95.905 8.98,96.907 C8.607,97.911 9.79,97.863 9.808,98.991 C9.829,100.117 8.621,101.692 8.097,100.353 C7.573,99.012 8.456,98.159 7.168,98.004 C5.88,97.851 5.183,98.106 5.032,98.424 C4.879,98.742 6.338,100.653 5.581,101.106 C4.826,101.561 0.37,101.936 0.406,100.954 C0.443,99.971 1.11,100.936 2.43,99.952 C3.75,98.968 8.655,93.534 9.803,91.925 C10.951,90.316 9.304,85.743 10.419,85.956 C11.535,86.169 13.669,87.779 13.677,88.451 C13.686,89.123 12.902,89.659 13.219,89.847 C13.537,90.035 16.139,90.289 16.743,89.098 C17.347,87.909 17.829,88.279 18.195,88.102 C18.559,87.925 22.724,81.643 22.058,80.483 C21.391,79.321 21.262,79.132 21.925,78.889 C22.589,78.647 23.144,79.408 22.495,77.497 C21.845,75.587 21.429,75.284 22.383,74.908 C23.336,74.533 25.388,69.517 24.16,68.101 C22.934,66.687 21.587,66.61 19.27,66.857 C16.954,67.105 15.515,68.85 14.726,70.035 C13.935,71.221 13.847,71.808 13.391,69.316 C12.937,66.826 10.903,68.8 11.321,69.982 C11.739,71.165 12.867,72.461 12.078,72.642 C11.287,72.826 9.964,73.256 9.954,71.912 C9.944,70.566 9.821,70.071 9.821,70.071 C9.821,70.071 8.447,70.057 8.746,69.564 C9.047,69.071 10.06,69.712 10.12,68.307 C10.18,66.904 9.018,65.554 9.349,64.633 C9.681,63.713 9.953,63.407 9.953,63.407 C9.953,63.407 6.948,62.669 8.116,62.444 C9.283,62.221 10.75,62.715 10.789,62.056 C10.828,61.394 9.26,58.694 7.124,58.735 C4.986,58.775 5.478,58.77 7.11,57.343 C8.742,55.916 7.214,53.551 8.091,52.706 C8.97,51.861 9.763,52.83 10.241,52.051 C10.719,51.273 9.763,51.362 10.732,50.412 C11.7,49.463 13.056,47.824 13.93,47.711 C14.806,47.598 15.517,47.34 16.672,47.782 C17.827,48.224 17.859,47.35 18.808,47.734 C19.757,48.117 19.624,48.371 18.829,48.967 C18.031,49.562 17.939,50.141 18.045,50.719 C18.152,51.296 20.229,51.921 19.856,52.818 C19.485,53.714 18.457,54.039 19.359,54.722 C20.26,55.407 22.975,55.702 23.997,54.775 C25.019,53.85 24.726,52.593 25.842,50.853 C26.956,49.114 28.05,48.843 28.004,47.798 C27.958,46.754 26.83,45.887 24.597,44.497 C22.362,43.107 21.915,41.241 20.409,40.368 C18.902,39.495 17.415,40.598 17.541,39.559 C17.667,38.522 18.895,38.723 19.062,37.855 C19.227,36.988 17.791,36.21 18.617,35.543 C19.443,34.877 19.809,34.203 19.328,33.342 C18.845,32.483 18.16,33.184 16.899,32.719 C15.639,32.252 16.567,31.71 16.295,30.89 C16.023,30.071 14.152,29.895 15.227,29.58 C16.3,29.266 17.462,29.504 17.462,29.504 C17.462,29.504 18.392,28.118 17.855,27.073 C17.318,26.028 16.746,24.49 16.792,23.67 C16.84,22.85 15.061,22.903 15.778,22.415 C16.494,21.925 17.105,22.614 17.164,21.571 C17.224,20.527 17.774,19.742 18.385,20.137 C18.995,20.532 19.54,20.606 18.995,18.778 C18.451,16.95 14.417,14.036 13.275,13.864 C12.134,13.694 11.391,14.39 10.794,15.186 C10.197,15.982 9.546,16.312 9.838,16.685 C10.13,17.056 10.981,17.673 10.236,17.746 C9.491,17.817 9.188,16.142 9.188,14.926 C9.188,13.712 8.392,12.78 6.865,12.497 C5.34,12.213 3.302,12.82 5.2,11.429 C7.098,10.038 8.342,8.254 9.029,9.482 C9.716,10.71 9.825,12.096 11.106,11.482 C12.387,10.868 13.091,10.337 12.693,9.494 C12.295,8.652 7.63,6.102 7.364,3.543 C7.098,0.985 8.83,-0.047 9.52,1.516 C10.211,3.079 10.675,4.558 11.563,3.975 C12.452,3.39 12.771,1.485 13.701,1.108 C14.63,0.73 17.422,0.223 17.688,1.309 C17.953,2.394 19.128,3.515 20.304,3.197 C21.477,2.879 21.325,1.398 22.029,2.418 C22.733,3.438 21.379,4.165 22.646,4.382 C23.913,4.599 24.007,4.287 25.187,3.768 C26.369,3.249 28.471,3.273 28.611,2.872 C28.751,2.471 27.114,1.447 28.89,1.739 C30.666,2.033 31.996,2.836 31.943,3.35 C31.89,3.864 31.616,4.612 31.479,4.93 C31.339,5.249 28.021,5.343 28.021,5.343 C28.021,5.343 26.834,8.954 26.939,9.59 C27.044,10.226 29.574,13.122 28.233,13.411 C26.893,13.701 26.786,12.479 25.665,11.836 C24.544,11.193 24.743,13.736 24.743,13.736 L23.899,18.932 C23.899,18.932 24.729,20.548 24.743,21.002 C24.755,21.456 23.588,22.931 22.985,23.113 C22.381,23.297 22.243,28.768 22.939,29.577 C23.633,30.389 25.155,30.557 25.155,30.557 C25.155,30.557 27.25,36.211 27.284,36.573 C27.316,36.932 27.941,38.542 27.941,38.542 C27.941,38.542 26.795,38.91 26.859,40.335 C26.925,41.761 27.978,41.781 29.023,41.958 C30.068,42.135 31.484,42.004 32.035,42.835 C32.586,43.667 34.717,42.032 35.834,42.346 C36.95,42.659 38.986,45.89 39.45,45.862 C39.914,45.832 40.849,45.406 41.069,46.015 C41.29,46.623 41.394,49.005 41.394,49.005 L45.282,58.087 C45.282,58.087 44.579,59.267 44.991,59.815 C45.403,60.365 46.596,61.478 46.596,61.478 L48.78,67.642 C48.78,67.642 48.851,69.913 50.531,69.715 C52.212,69.518 53.118,70.263 52.853,70.77 C52.588,71.279 51.29,72.402 51.077,73.355 C50.865,74.306 55.536,84.679 56.088,86.577 C56.639,88.476 56.532,90.205 56.459,91.037 C56.386,91.869 60.157,101.787 60.72,102.514 C61.284,103.239 61.258,103.848 61.258,103.848 L59.912,105.047 L59.912,105.047 L59.912,105.047 Z" ></path>
            <path d="M81.458,88.136 C81.458,88.136 82.368,94.344 78.736,95.698 C75.107,97.053 71.431,95.958 69.203,97.504 C66.973,99.05 65.515,102.608 64.139,102.711 C62.764,102.814 62.029,106.686 58.918,96.595 C55.805,86.503 58.644,91.7 57.478,86.068 C56.31,80.435 51.538,77.535 52.461,74.556 C53.382,71.576 54.644,71.245 54,70.062 C53.357,68.876 51.817,69.56 50.902,68.581 C49.986,67.602 49.763,64.832 48.371,62.5 C46.977,60.17 46.628,60.185 46.465,58.979 C46.303,57.775 43.758,50.363 43.062,48.852 C42.365,47.342 42.55,46.741 42.378,45.804 C42.205,44.866 42.451,44.548 41.085,44.324 C39.719,44.1 38.207,43.457 38.065,41.787 C37.924,40.119 38.881,39.334 39.558,39.599 C40.235,39.865 41.947,40.294 43.135,40.337 C44.323,40.377 49.333,39.177 50.324,37.927 C51.315,36.677 51.817,36.782 52.335,36.724 C52.852,36.665 53.828,35.675 55.361,34.484 C56.895,33.293 62.924,27.191 64.976,27.259 C67.026,27.325 67.763,29.064 68.48,30.29 C69.196,31.516 74.784,32.867 75.074,34.661 C75.366,36.453 75.473,44.355 76.102,46.438 C76.733,48.521 77.754,50.867 77.112,53.15 C76.468,55.433 78.1,59.902 78.399,61.719 C78.698,63.536 77.165,65.995 77.108,67.945 C77.05,69.895 78.176,76.261 79.019,77.133 C79.862,78.007 80.605,78.413 79.956,79.038 C79.305,79.663 79.975,84.635 80.518,85.886 C81.064,87.135 81.458,88.136 81.458,88.136 L81.458,88.136 L81.458,88.136 Z" ></path>
            <path d="M89.674,91.719 C89.674,91.719 89.488,91.849 88.785,91.178 C88.081,90.504 87.807,91.438 87.219,90.729 C86.629,90.02 86.986,88.352 86.25,87.502 C85.514,86.652 83.091,88.268 82.401,87.025 C81.711,85.781 81.274,84.091 81.048,82.175 C80.823,80.259 80.017,79.398 80.743,79.433 C81.468,79.469 82.142,79.864 81.957,79.049 C81.772,78.237 81.26,77.534 80.431,76.702 C79.601,75.871 79.9,74.138 79.217,72.815 C78.534,71.495 78.488,68.44 78.447,67.153 C78.408,65.867 80.19,65.345 80.193,63.803 C80.196,62.26 80.411,61.981 80.086,61.266 C79.761,60.553 78.865,59.202 78.513,57.155 C78.161,55.11 78.997,50.485 78.334,48.114 C77.671,45.744 76.178,45.366 76.483,41.762 C76.789,38.158 77.678,34.95 76.549,34.125 C75.422,33.298 73.511,32.744 73.305,31.583 C73.099,30.42 73.728,30.427 72.56,30.303 C71.393,30.179 68.36,29.223 67.869,27.301 C67.378,25.379 62.09,7.919 62.09,7.919 C62.09,7.919 66.655,7.795 67.153,6.632 C67.65,5.471 67.039,2.722 67.039,2.722 C67.039,2.722 70.138,0.78 70.602,1.295 C71.066,1.81 70.961,3.856 72.056,3.873 C73.151,3.89 74.04,3.961 74.04,3.961 L74.225,23.907 C74.225,23.907 73.261,25.359 75.494,25.07 C77.726,24.779 80.582,23.814 88.153,28.703 C95.724,33.59 104.065,34.14 107.423,33.574 C110.78,33.009 112.393,31.575 113.62,32.803 C114.847,34.029 114.963,34.481 115.683,34.418 C116.404,34.355 119.553,37.578 121.391,38.723 C123.229,39.867 124.219,38.044 123.978,39.456 C123.735,40.864 124.024,40.864 124.529,41.343 C125.033,41.821 124.715,42.114 123.792,42.977 C122.87,43.837 123.865,45.111 122.081,44.05 C120.296,42.987 114.781,51.54 114.781,51.54 C114.781,51.54 118.159,51.851 119.903,52.034 C121.649,52.217 121.141,55.037 120.268,56.294 C119.396,57.548 117.909,57.778 116.746,57.515 C115.582,57.249 114.828,56.825 114.981,56.476 C115.132,56.127 115.132,54.513 115.132,54.513 C115.132,54.512 114.051,53.468 113.785,53.409 C113.52,53.348 111.243,55.097 111.589,55.746 C111.934,56.393 110.183,58.747 109.161,60.075 C108.139,61.401 107.84,62.817 106.885,63.384 C105.929,63.95 106.354,70.124 105.842,71.394 C105.33,72.662 100.354,83.331 100.183,83.925 C100.011,84.522 100.959,85.997 100.301,86.362 C99.645,86.727 97.131,84.015 96.388,83.437 C95.645,82.859 95.638,84.238 95.471,85.82 C95.307,87.4 93.295,87.742 91.949,87.188 C90.601,86.634 90.241,86.387 89.819,87.455 C89.396,88.523 90.277,90.416 89.674,91.719 L89.674,91.719 L89.674,91.719 Z" ></path>
            <path d="M125.736,42.867 C125.736,42.867 125.396,43.642 125.426,44.511 C125.456,45.38 124.532,45.871 123.117,45.44 C121.701,45.006 120.902,46.558 119.888,47.665 C118.874,48.771 116.359,50.354 117.695,50.394 C119.029,50.433 121.561,50.403 121.809,51.322 C122.055,52.242 122.956,56.841 121.064,57.944 C119.173,59.047 115.368,59.367 114.464,58.834 C113.562,58.298 114.026,55.994 113.208,56.623 C112.389,57.252 113.376,58.432 112.154,58.873 C110.933,59.312 109.977,60.586 109.713,61.641 C109.447,62.694 109.723,64.264 108.962,64 C108.2,63.736 107.909,63.401 107.722,64.652 C107.537,65.902 107.953,70.597 107.201,71.58 C106.45,72.562 101.601,82.637 101.513,83.793 C101.425,84.949 101.26,88.531 101.938,88.803 C102.615,89.073 104.955,89.444 106.777,90.555 C108.601,91.667 111.514,92.432 113.049,92.2 C114.584,91.968 119.419,92.38 119.871,93.788 C120.322,95.196 119.309,96.103 120.04,97.028 C120.77,97.953 121.658,100.071 121.923,101.032 C122.189,101.991 120.653,106.912 122.508,108.718 C124.362,110.521 125.684,110.308 127.117,111.162 C128.55,112.016 129.681,114.6 131.001,115.165 C132.318,115.731 134.982,115.44 135.654,116.462 C136.327,117.485 148.314,125.608 149.749,126.237 C151.182,126.866 165.283,135.847 166.169,137.082 C167.055,138.317 166.912,139.118 168.602,137.034 C170.292,134.95 173.114,132.74 175.858,132.497 C178.6,132.254 181.104,132.913 181.971,131.35 C182.838,129.785 182.735,129.305 183.325,128.541 C183.915,127.779 183.573,127.244 185.315,127.157 C187.059,127.07 187.038,127.175 187.421,126.528 C187.805,125.883 188.949,125.163 187.737,124.33 C186.525,123.497 186.533,123.474 186.125,122.953 C185.719,122.434 186.375,121.569 185.666,121.971 C184.959,122.372 184.479,122.969 184.048,123.229 C183.614,123.491 182.423,123.729 183.118,122.114 C183.815,120.498 182.728,120.202 181.721,120.516 C180.714,120.83 179.652,123.761 178.491,123.875 C177.331,123.988 177.49,122.921 176.563,123.354 C175.635,123.79 173.494,125.163 172.37,124.825 C171.246,124.486 171.629,126.092 171.388,127.184 C171.146,128.277 168.292,127.106 168.292,126.004 C168.292,124.904 168.565,125.477 167.071,125.266 C165.575,125.054 162.364,123.551 162.982,122.128 C163.601,120.705 163.567,120.537 163.565,119.918 C163.565,119.299 163.23,119.289 164.567,118.07 C165.903,116.851 164.953,116.599 166.353,116.252 C167.754,115.907 168.115,115.971 168.538,114.704 C168.963,113.437 169.349,113.529 170.548,113.572 C171.744,113.612 173.105,114.17 172.484,113.367 C171.866,112.565 171.416,111.512 171.416,111.512 C171.416,111.512 174.397,109.891 172.636,109.774 C170.875,109.655 170.072,111.063 169.337,111.126 C168.602,111.189 164.893,114.545 162.834,113.581 C160.773,112.617 161.435,113.037 159.472,112.597 C157.506,112.158 158.282,111.681 158.331,110.404 C158.378,109.127 157.923,99.001 158.251,97.443 C158.577,95.886 159.38,96.533 159.029,95.595 C158.678,94.66 158.207,93.992 158.242,93.166 C158.276,92.34 156.693,78.728 157.012,77.335 C157.329,75.943 158.304,75.983 157.658,75.599 C157.012,75.212 156.791,74.616 156.774,73.703 C156.755,72.793 154.674,68.039 146.394,61.402 C138.109,54.762 128.142,42.316 125.736,42.867 L125.736,42.867 L125.736,42.867 Z" ></path>
            <path d="M161.758,76.906 C161.758,76.906 160.016,77.291 160.024,78.078 C160.035,78.864 160.521,81.154 161.52,80.523 C162.52,79.894 163.25,79.114 163.458,79.603 C163.663,80.093 163.925,81.664 164.554,81.097 C165.182,80.531 164.833,78.85 165.545,78.573 C166.258,78.298 166.862,78.298 167.456,77.818 C168.05,77.339 168.814,77.448 168.784,76.725 C168.752,76.002 167.474,71.676 166.465,71.7 C165.457,71.724 164.491,72.841 164.491,72.841 L164.35,74.47 C164.35,74.47 160.713,74.664 161.041,75.483 C161.37,76.303 161.758,76.906 161.758,76.906 L161.758,76.906 L161.758,76.906 Z" ></path>
            <path d="M84.428,123.971 C83.705,124.428 82.794,125.341 82.617,126.048 C82.438,126.753 82.562,130.135 81.376,130.135 C80.188,130.135 78.88,129.119 78.88,129.119 C78.88,129.119 76.889,130.252 75.603,130.782 C74.316,131.314 72.252,131.142 71.311,130.376 C70.367,129.609 67.832,127.314 68.968,124.868 C70.102,122.42 70.653,122.1 72.292,121.045 C73.931,119.99 76.865,117.359 77.27,116.045 C77.674,114.729 79.339,111.414 78.139,110.122 C76.937,108.83 74.178,107.474 71.788,108.973 C69.399,110.471 64.41,113.838 63.255,112.446 C62.101,111.054 61.348,106.602 61.045,105.831 C60.743,105.059 62.694,105.222 63.214,105.253 C63.736,105.283 65.218,103.901 65.218,103.901 C65.218,103.901 67.686,99.663 69.9,98.88 C72.115,98.1 74.194,97.636 75.554,97.689 C76.914,97.743 78.546,97.643 79.183,97.242 C79.82,96.841 80.934,96.864 81.599,95.131 C82.262,93.398 82.106,90.374 82.534,89.151 C82.963,87.925 85.157,87.791 85.295,88.195 C85.431,88.6 85.209,91.752 85.78,91.769 C86.349,91.788 87.485,92.07 88.42,92.965 C89.357,93.862 90.179,94.541 90.643,93.71 C91.107,92.876 89.919,89.032 91.135,88.52 C92.349,88.006 94.869,87.794 95.395,87.912 C95.918,88.031 95.553,86.767 96.703,86.632 C97.85,86.498 99.967,87.022 100.145,87.953 C100.326,88.886 101.573,90.171 104.22,91.226 C106.866,92.283 109.529,93.486 111.174,93.555 C112.819,93.626 116.025,92.812 117.067,94.394 C118.107,95.974 118.626,96.853 118.626,96.853 L115.195,99.96 C115.195,99.96 114.571,98.499 113.37,99.411 C112.17,100.326 110.544,103.198 110.412,103.688 C110.277,104.178 109.004,104.868 107.704,104.879 C106.403,104.89 106.35,105.592 106.211,105.964 C106.072,106.336 107.073,107.049 106.748,108.051 C106.424,109.055 105.633,109.402 105.508,109.686 C105.382,109.969 105.528,110.723 106.39,110.793 C107.253,110.865 114.373,112.322 114.798,116.031 C115.223,119.74 115.563,120.304 113.404,119.451 C111.245,118.597 111.758,119.965 110.901,120.538 C110.046,121.109 107.658,122.029 107.658,122.029 C107.658,122.029 108.106,120.293 106.794,119.781 C105.483,119.271 104.668,119.898 104.028,121.045 C103.389,122.191 103.198,123.593 101.971,122.318 C100.743,121.045 100.053,119.606 99.176,121.309 C98.3,123.013 98.712,124.606 98.268,124.464 C97.823,124.323 94.499,124.335 92.634,125.107 C90.769,125.88 86.754,125.325 85.819,124.383 C84.884,123.439 84.79,123.742 84.428,123.971 L84.428,123.971 L84.428,123.971 Z" ></path>
        </g>
    </g>
</svg>
