<?xml version="1.0" encoding="utf-8"?>
<!-- Generator: Adobe Illustrator 16.0.0, SVG Export Plug-In . SVG Version: 6.00 Build 0)  -->
<!DOCTYPE svg PUBLIC "-//W3C//DTD SVG 1.1//EN" "http://www.w3.org/Graphics/SVG/1.1/DTD/svg11.dtd">
<svg version="1.1" xmlns="http://www.w3.org/2000/svg" xmlns:xlink="http://www.w3.org/1999/xlink" x="0px" y="0px"
	 width="131px" height="131px" viewBox="0 0 131 131" enable-background="new 0 0 131 131" xml:space="preserve">
<rect fill="#F0F0ED" width="131" height="131"/>
<rect x="6.242" y="6.242" fill="none" width="117.516" height="117.516"/>
<g>
	<path fill="#E3E3DF" d="M82.438,99.843c-0.779-0.253-5.696-2.471-2.624-11.812h-0.043c8.009-8.248,14.13-21.527,14.13-34.598
		c0-20.098-13.365-30.63-28.895-30.63c-15.54,0-28.83,10.532-28.83,30.63c0,13.123,6.088,26.455,14.145,34.685
		c3.14,8.238-2.475,11.296-3.65,11.726c-16.267,5.883-35.347,16.606-35.347,27.189c0,2.858,0,3.968,0,3.968h107.356
		c0,0,0-1.109,0-3.968C118.679,116.128,99.501,105.491,82.438,99.843z"/>
</g>
<rect x="11" y="131" fill="none" width="112" height="22"/>
</svg>
