<?xml version="1.0" encoding="UTF-8" standalone="no"?>
<svg width="24px" height="24px" viewBox="0 0 24 24" version="1.1" xmlns="http://www.w3.org/2000/svg" xmlns:xlink="http://www.w3.org/1999/xlink">
    <!-- Generator: Sketch 3.6.1 (26313) - http://www.bohemiancoding.com/sketch -->
    <title>notification</title>
    <desc>Created with Sketch.</desc>
    <defs></defs>
    <g stroke="none" stroke-width="1" fill="none" fill-rule="evenodd">
        <g fill="#231F20">
            <path d="M22.449,21.908 C22.383,21.908 22.314,21.9 22.246,21.887 C15.275,20.444 8.207,20.444 1.238,21.887 C0.699,21.995 0.168,21.652 0.056,21.111 C-0.055,20.571 0.292,20.042 0.831,19.929 C8.073,18.428 15.411,18.429 22.651,19.929 C23.19,20.041 23.538,20.571 23.426,21.111 C23.33,21.583 22.914,21.908 22.449,21.908 L22.449,21.908 L22.449,21.908 Z" ></path>
            <path d="M11.742,4.303 C11.189,4.303 10.742,3.855 10.742,3.303 L10.742,1.283 C10.742,0.731 11.189,0.283 11.742,0.283 C12.295,0.283 12.742,0.731 12.742,1.283 L12.742,3.303 C12.742,3.855 12.295,4.303 11.742,4.303 L11.742,4.303 L11.742,4.303 Z" ></path>
            <path d="M11.74,23.773 C10.092,23.773 8.752,22.432 8.752,20.784 C8.752,20.232 9.199,19.784 9.752,19.784 C10.305,19.784 10.752,20.232 10.752,20.784 C10.752,21.33 11.195,21.773 11.74,21.773 C12.289,21.773 12.734,21.33 12.734,20.784 C12.734,20.232 13.181,19.784 13.734,19.784 C14.287,19.784 14.734,20.232 14.734,20.784 C14.734,22.433 13.391,23.773 11.74,23.773 L11.74,23.773 L11.74,23.773 Z" ></path>
            <path d="M1.203,21.871 C1.053,21.871 0.898,21.837 0.752,21.764 C0.26,21.514 0.063,20.912 0.313,20.42 L0.594,19.874 C1.455,18.207 1.717,17.703 2.153,12.062 C2.591,6.437 6.444,2.51 11.526,2.51 L11.532,2.51 L12.137,2.51 C12.69,2.51 13.137,2.958 13.137,3.51 C13.137,4.062 12.69,4.51 12.137,4.51 L11.53,4.51 L11.528,4.51 C7.469,4.51 4.505,7.607 4.147,12.217 C3.698,18.024 3.409,18.788 2.37,20.794 L2.099,21.324 C1.92,21.672 1.568,21.871 1.203,21.871 L1.203,21.871 L1.203,21.871 Z" ></path>
            <path d="M22.279,21.871 C21.914,21.871 21.562,21.671 21.386,21.322 L21.113,20.792 C20.078,18.786 19.787,18.021 19.338,12.216 C18.979,7.606 16.014,4.509 11.959,4.509 L11.955,4.509 L11.348,4.509 C10.795,4.509 10.348,4.061 10.348,3.509 C10.348,2.957 10.795,2.509 11.348,2.509 L11.953,2.509 L11.957,2.509 C17.039,2.509 20.895,6.436 21.332,12.061 C21.77,17.703 22.029,18.206 22.891,19.873 L23.172,20.42 C23.42,20.913 23.223,21.515 22.731,21.764 C22.586,21.837 22.432,21.871 22.279,21.871 L22.279,21.871 L22.279,21.871 Z" ></path>
        </g>
    </g>
</svg>