<?xml version="1.0" encoding="UTF-8" standalone="no"?>
<svg width="17px" height="19px" viewBox="0 0 17 19" version="1.1" xmlns="http://www.w3.org/2000/svg" xmlns:xlink="http://www.w3.org/1999/xlink">
    <!-- Generator: Sketch 3.6.1 (26313) - http://www.bohemiancoding.com/sketch -->
    <title>pause</title>
    <desc>Created with Sketch.</desc>
    <defs></defs>
    <g stroke="none" stroke-width="1" fill="none" fill-rule="evenodd">
        <g fill="#231F20">
            <path d="M5.369,18.93 L2.531,18.93 C1.267,18.93 0.238,18.058 0.238,16.987 L0.238,2.873 C0.238,1.802 1.267,0.931 2.531,0.931 L5.369,0.931 C6.633,0.931 7.662,1.802 7.662,2.873 L7.662,16.987 C7.662,18.058 6.633,18.93 5.369,18.93 L5.369,18.93 L5.369,18.93 Z M2.531,2.625 C2.373,2.625 2.238,2.737 2.238,2.872 L2.238,16.986 C2.238,17.121 2.373,17.234 2.531,17.234 L5.369,17.234 C5.527,17.234 5.662,17.121 5.662,16.986 L5.662,2.872 C5.662,2.738 5.527,2.625 5.369,2.625 L2.531,2.625 L2.531,2.625 L2.531,2.625 Z" ></path>
            <path d="M14.619,18.93 L11.781,18.93 C10.517,18.93 9.488,18.058 9.488,16.987 L9.488,2.873 C9.488,1.802 10.517,0.931 11.781,0.931 L14.619,0.931 C15.883,0.931 16.912,1.802 16.912,2.873 L16.912,16.987 C16.912,18.058 15.883,18.93 14.619,18.93 L14.619,18.93 L14.619,18.93 Z M11.781,2.625 C11.623,2.625 11.488,2.737 11.488,2.872 L11.488,16.986 C11.488,17.121 11.623,17.234 11.781,17.234 L14.619,17.234 C14.777,17.234 14.912,17.121 14.912,16.986 L14.912,2.872 C14.912,2.738 14.777,2.625 14.619,2.625 L11.781,2.625 L11.781,2.625 L11.781,2.625 Z" ></path>
        </g>
    </g>
</svg>