<?xml version="1.0" encoding="UTF-8" standalone="no"?>
<svg width="17px" height="19px" viewBox="0 0 17 19" version="1.1" xmlns="http://www.w3.org/2000/svg" xmlns:xlink="http://www.w3.org/1999/xlink">
    <!-- Generator: Sketch 3.6.1 (26313) - http://www.bohemiancoding.com/sketch -->
    <title>play</title>
    <desc>Created with Sketch.</desc>
    <defs></defs>
    <g stroke="none" stroke-width="1" fill="none" fill-rule="evenodd">
        <g fill="#231F20">
            <path d="M2.543,18.879 C1.554,18.879 0.862,18.091 0.862,16.962 L0.862,2.797 C0.862,1.667 1.554,0.879 2.543,0.879 C2.902,0.879 3.27,0.986 3.634,1.196 L15.902,8.279 C16.566,8.661 16.947,9.244 16.947,9.878 C16.947,10.513 16.566,11.096 15.902,11.479 L3.634,18.563 C3.27,18.772 2.902,18.879 2.543,18.879 L2.543,18.879 L2.543,18.879 Z M2.57,2.569 C2.571,2.595 2.55,2.669 2.55,2.798 L2.55,16.963 C2.55,17.078 2.567,17.15 2.581,17.189 C2.621,17.181 2.69,17.16 2.792,17.102 L15.059,10.018 C15.171,9.955 15.224,9.9 15.248,9.871 C15.224,9.86 15.171,9.806 15.06,9.742 L2.79,2.66 C2.68,2.594 2.606,2.575 2.57,2.569 L2.57,2.569 L2.57,2.569 Z" ></path>
        </g>
    </g>
</svg>