<svg xmlns="http://www.w3.org/2000/svg" xmlns:xlink="http://www.w3.org/1999/xlink" width="24" height="23" viewBox="0 0 24 23">
    <defs>
        <path id="a" d="M46.234 31.847C40.586 31.847 36 27.298 36 21.694c0-5.602 4.582-10.15 10.226-10.154a.25.25 0 0 1 .22.123.246.246 0 0 1 0 .25.25.25 0 0 1-.22.122c-5.374.004-9.726 4.324-9.726 9.659 0 5.337 4.356 9.658 9.734 9.658 4.537 0 8.341-3.079 9.421-7.244l-2.758 1.602a.256.256 0 0 1-.254.002.251.251 0 0 1-.003-.435l3.148-1.819a.252.252 0 0 1 .344.093l1.835 3.39a.246.246 0 0 1-.016.27.251.251 0 0 1-.257.093.25.25 0 0 1-.164-.131l-1.453-2.686c-1.224 4.249-5.172 7.36-9.843 7.36z"/>
    </defs>
    <g fill="none" fill-rule="nonzero" transform="matrix(-1 0 0 1 59 -10)">
        <use fill="#FFF" fill-rule="evenodd" xlink:href="#a"/>
        <path stroke="#FFF" stroke-width=".765" d="M56.16 25.443c.106-.277.201-.56.284-.85l-.703.076.418.774zm-1.167-.508l.854-.496-.562-.427c-.082.315-.18.623-.292.923zm1.166.508l1.035 1.912a.624.624 0 0 0 .408.32.636.636 0 0 0 .654-.234.628.628 0 0 0 .043-.69l-1.831-3.382a.636.636 0 0 0-.871-.242l-3.149 1.819a.634.634 0 1 0 .642 1.094l1.903-1.105c-1.34 3.573-4.8 6.035-8.76 6.035-5.167 0-9.35-4.151-9.35-9.276 0-5.123 4.179-9.273 9.343-9.277a.63.63 0 1 0-.005-1.26c-5.85.005-10.603 4.724-10.603 10.537 0 5.816 4.757 10.536 10.616 10.536 4.46 0 8.38-2.759 9.925-6.787z"/>
    </g>
</svg>
