<?xml version="1.0" encoding="UTF-8" standalone="no"?>
<svg width="22px" height="19px" viewBox="0 0 22 19" version="1.1" xmlns="http://www.w3.org/2000/svg" xmlns:xlink="http://www.w3.org/1999/xlink">
    <!-- Generator: Sketch 3.6.1 (26313) - http://www.bohemiancoding.com/sketch -->
    <title>renew</title>
    <desc>Created with Sketch.</desc>
    <defs></defs>
    <g stroke="none" stroke-width="1" fill="none" fill-rule="evenodd">
        <g fill="#231F20">
            <g >
                <g >
                    <path d="M9.558,18.628 C4.595,18.628 0.557,14.59 0.557,9.627 C0.557,4.665 4.595,0.628 9.558,0.628 C14.521,0.628 18.559,4.665 18.559,9.627 C18.559,10.093 18.181,10.471 17.715,10.471 C17.248,10.471 16.87,10.094 16.87,9.627 C16.87,5.596 13.589,2.316 9.558,2.316 C5.525,2.316 2.245,5.596 2.245,9.627 C2.245,13.659 5.525,16.939 9.558,16.939 C11.436,16.939 13.22,16.228 14.583,14.937 C14.873,14.663 15.143,14.365 15.381,14.049 C15.663,13.678 16.193,13.606 16.566,13.888 C16.937,14.17 17.007,14.7 16.725,15.072 C16.43,15.461 16.099,15.829 15.743,16.165 C14.067,17.752 11.869,18.628 9.558,18.628 L9.558,18.628 L9.558,18.628 L9.558,18.628 Z" ></path>
                    <path d="M17.67,11.622 C17.467,11.622 17.266,11.55 17.106,11.406 L14.543,9.106 C14.195,8.795 14.167,8.261 14.479,7.914 C14.791,7.568 15.325,7.538 15.671,7.85 L17.671,9.644 L19.671,7.85 C20.018,7.538 20.552,7.567 20.863,7.914 C21.174,8.261 21.145,8.795 20.799,9.106 L18.235,11.406 C18.072,11.55 17.871,11.622 17.67,11.622 L17.67,11.622 L17.67,11.622 L17.67,11.622 Z" ></path>
                </g>
            </g>
        </g>
    </g>
</svg>