<svg width="22px" height="22px" viewBox="0 0 22 22" version="1.1" xmlns="http://www.w3.org/2000/svg" xmlns:xlink="http://www.w3.org/1999/xlink">
    <g stroke="none" stroke-width="1" fill="none" fill-rule="evenodd">
        <g transform="translate(-632.000000, -733.000000)" id="Menu" fill="#FFFFFF">
            <g transform="translate(515.000000, 722.000000)">
                <g transform="translate(101.000000, 5.000000)">
                    <g transform="translate(16.000000, 6.000000)">
                        <g>
                            <path d="M16.0432619,0.170948489 C14.3563446,0.062781608 12.6361099,0.647672329 11.3496634,1.9344975 C9.76633278,3.51822934 9.28878206,5.75594234 9.81688083,7.78121855 L1.64476817,15.955504 C0.459494049,17.1411682 0.459417807,19.0833981 1.64476817,20.2690623 C2.83009323,21.454701 4.77183488,21.454701 5.95718535,20.2690623 L14.1292978,12.0947616 C16.1547522,12.6242203 18.3904042,12.1460348 19.9744718,10.5615734 C21.6897508,8.84583782 22.1662596,6.35423731 21.403998,4.20645704 C21.3158096,3.95879219 21.1063171,3.7740197 20.8496267,3.71750114 C20.5929363,3.66098257 20.3252416,3.74068712 20.1412371,3.92842003 L17.2345592,6.82794881 L15.558824,6.35925786 L15.0823153,4.67514799 L17.9890186,1.7676753 C18.1725516,1.5822977 18.2486192,1.31594391 18.1906752,1.06156673 C18.1327312,0.80718954 17.9488162,0.600087966 17.7031134,0.512536812 C17.1663231,0.321920995 16.605593,0.207004964 16.0432619,0.170948489 L16.0432619,0.170948489 Z M15.6663361,2.16546916 L13.5613036,4.27003656 C13.3778143,4.45561142 13.3088235,4.72576571 13.3808723,4.9765699 L14.0574898,7.35924085 C14.12595,7.59926051 14.3136034,7.78687237 14.5536761,7.85531745 L16.9368615,8.53930185 C17.1890855,8.6094358 17.4595205,8.53752995 17.643575,8.35139405 L19.7486074,6.24682665 C19.8165939,7.43092843 19.4017943,8.63796878 18.4930939,9.54648768 C17.2686867,10.7705979 15.5085428,11.0953507 13.9823101,10.5536711 C13.7193467,10.4613466 13.4267141,10.5286326 13.2305128,10.7265342 L5.22388363,18.7239144 L5.23134146,18.7313706 L5.22388363,18.7239144 C4.64955861,19.2980644 3.76077783,19.3055687 3.18650069,18.7313706 C2.61219973,18.1572206 2.61222378,17.2611078 3.18650069,16.6869337 L11.1931301,8.68209976 C11.3884486,8.48431161 11.4527906,8.19195497 11.3585496,7.93046854 C10.8167263,6.40458502 11.1490567,4.64479387 12.3734639,3.42068126 C13.2820921,2.5122249 14.4820328,2.09753373 15.6663361,2.16545714 L15.6663361,2.16546916 Z" id="Shape"></path>
                        </g>
                    </g>
                </g>
            </g>
        </g>
    </g>
</svg>
