<?xml version="1.0" encoding="utf-8"?>
<!-- Generator: Adobe Illustrator 15.0.0, SVG Export Plug-In . SVG Version: 6.00 Build 0)  -->
<!DOCTYPE svg PUBLIC "-//W3C//DTD SVG 1.1//EN" "http://www.w3.org/Graphics/SVG/1.1/DTD/svg11.dtd">
<svg version="1.1" xmlns="http://www.w3.org/2000/svg" xmlns:xlink="http://www.w3.org/1999/xlink" x="0px" y="0px"
	 width="26px" height="26px" viewBox="0 0 26 26" enable-background="new 0 0 26 26" xml:space="preserve">
<path d="M14.285,24.749h-2.57c-0.938,0-1.701-0.763-1.701-1.701v-1.662l-0.797-0.31l-1.211,1.142
	c-0.641,0.643-1.764,0.643-2.404,0L3.783,20.4c-0.319-0.318-0.498-0.746-0.498-1.202s0.179-0.884,0.502-1.204l1.173-1.176
	l-0.345-0.786l-1.664-0.046c-0.938,0-1.7-0.764-1.7-1.699v-2.571c0-0.938,0.764-1.7,1.7-1.7h1.664l0.31-0.797L3.783,8.007
	C3.464,7.689,3.285,7.262,3.285,6.805c0-0.455,0.179-0.884,0.502-1.205l1.814-1.816C6.24,3.143,7.367,3.141,8.008,3.784l1.174,1.175
	l0.783-0.345l0.049-1.662c0-0.938,0.764-1.701,1.701-1.701h2.57c0.938,0,1.703,0.763,1.703,1.701v1.663l0.797,0.31l1.209-1.142
	c0.32-0.321,0.75-0.497,1.203-0.497l0,0c0.453,0,0.881,0.176,1.201,0.496l1.818,1.821c0.318,0.316,0.496,0.744,0.496,1.201
	s-0.178,0.885-0.5,1.205l-1.174,1.174l0.346,0.785l1.664,0.047c0.938,0,1.699,0.762,1.699,1.7v2.571c0,0.938-0.762,1.7-1.699,1.7
	h-1.664l-0.311,0.799l1.141,1.21c0.32,0.318,0.498,0.746,0.498,1.202s-0.178,0.884-0.5,1.204L20.4,22.217
	c-0.646,0.646-1.764,0.643-2.402,0.004l-1.182-1.179l-0.781,0.345l-0.048,1.661C15.988,23.986,15.225,24.749,14.285,24.749
	L14.285,24.749z M12.014,22.749h1.975v-1.363c0-0.809,0.578-1.611,1.348-1.872l0.688-0.285c0.191-0.1,0.486-0.166,0.791-0.166
	c0.543,0,1.062,0.205,1.42,0.565l0.967,0.964l1.395-1.396l-0.965-0.964c-0.572-0.574-0.73-1.553-0.369-2.276l0.281-0.688
	c0.229-0.701,1.035-1.283,1.848-1.283h1.363v-1.971h-1.363c-0.812,0-1.617-0.582-1.873-1.352l-0.285-0.684
	c-0.33-0.658-0.174-1.636,0.396-2.209l0.967-0.967l-1.395-1.396l-0.967,0.964c-0.562,0.562-1.561,0.727-2.275,0.37L15.271,6.46
	c-0.701-0.231-1.279-1.037-1.279-1.847V3.249h-1.977v1.364c0,0.811-0.58,1.615-1.35,1.871L9.98,6.771
	C9.791,6.87,9.494,6.938,9.188,6.938c-0.543,0-1.062-0.207-1.42-0.566L6.805,5.408L5.41,6.805l0.963,0.963
	c0.572,0.576,0.729,1.555,0.369,2.276l-0.277,0.685c-0.234,0.707-1.039,1.285-1.85,1.285H3.25v1.973h1.365
	c0.811,0,1.614,0.578,1.873,1.348l0.284,0.689c0.33,0.656,0.173,1.637-0.397,2.21L5.41,19.198l1.395,1.396l0.963-0.964
	c0.557-0.56,1.562-0.729,2.277-0.37l0.686,0.279c0.717,0.238,1.283,1.023,1.283,1.849V22.749L12.014,22.749z M13,17.389
	c-2.418,0-4.387-1.97-4.387-4.39s1.969-4.39,4.387-4.39c2.42,0,4.389,1.97,4.389,4.39S15.42,17.389,13,17.389L13,17.389z M13,10.609
	c-1.316,0-2.389,1.072-2.389,2.39s1.07,2.39,2.389,2.39c1.317,0,2.389-1.072,2.389-2.39S14.318,10.609,13,10.609L13,10.609z"/>
</svg>
