<svg xmlns="http://www.w3.org/2000/svg" width="22" height="22" viewBox="0 0 22 22">
    <path fill="#FFF" fill-rule="nonzero" d="M16.043.17a6.062 6.062 0 0 0-4.693 1.764C9.766 3.518 9.289 5.756 9.817 7.781l-8.172 8.175a3.06 3.06 0 0 0 0 4.313 3.059 3.059 0 0 0 4.312 0l8.172-8.174c2.026.53 4.261.051 5.845-1.533a6.1 6.1 0 0 0 1.43-6.356.763.763 0 0 0-1.263-.278l-2.906 2.9-1.676-.469-.477-1.684 2.907-2.907a.763.763 0 0 0-.286-1.255 6.145 6.145 0 0 0-1.66-.342zm-.377 1.995L13.561 4.27a.722.722 0 0 0-.18.707l.676 2.382c.069.24.257.428.497.496l2.383.684a.722.722 0 0 0 .707-.188l2.105-2.104a4.298 4.298 0 0 1-1.256 3.3 4.315 4.315 0 0 1-4.51 1.007.722.722 0 0 0-.752.173l-8.007 7.997.007.007-.007-.007a1.42 1.42 0 0 1-2.037.007 1.428 1.428 0 0 1 0-2.044l8.006-8.005a.722.722 0 0 0 .166-.752 4.315 4.315 0 0 1 1.014-4.51 4.284 4.284 0 0 1 3.293-1.255z"/>
</svg>
