<svg width="24px" height="23px" viewBox="0 0 24 23" version="1.1" xmlns="http://www.w3.org/2000/svg" xmlns:xlink="http://www.w3.org/1999/xlink">    
    <defs>
        <path d="M10.2337279,20.3076923 C4.58576012,20.3076923 0,15.7585007 0,10.1538549 C0,4.55196543 4.58171038,0.00445788924 10.2259034,2.48724052e-05 C10.3160567,-0.00123823762 10.3999127,0.0456862574 10.4453614,0.122830051 C10.4908101,0.199973844 10.4908101,0.295385044 10.4453614,0.372528837 C10.3999127,0.44967263 10.3160567,0.496597125 10.2259034,0.495334015 C4.85224327,0.499544143 0.499968377,4.81903612 0.499968377,10.1538549 C0.499968377,15.4912814 4.856443,19.8123832 10.2337279,19.8123832 C14.7706909,19.8123832 18.5751003,16.7337644 19.655007,12.5684869 L16.8973814,14.1704901 C16.8192338,14.2161271 16.7224454,14.2169908 16.6434806,14.1727558 C16.5645158,14.1285208 16.5153733,14.0459086 16.5145672,13.9560429 C16.5137611,13.8661771 16.5614139,13.7827128 16.6395727,13.7370946 L19.7877986,11.9183937 C19.8456911,11.8850313 19.9146749,11.8760755 19.9792898,11.8935335 C20.0439047,11.9109916 20.0987474,11.9534035 20.1315268,12.0112642 L21.9673607,15.4010361 C22.0163611,15.4864709 22.0097466,15.5925237 21.9505024,15.6713325 C21.8912582,15.7501413 21.7905893,15.7868008 21.693928,15.7647664 C21.6223292,15.7470495 21.5622894,15.6988996 21.5298884,15.6332123 L20.0768553,12.9476956 C18.8530577,17.1963089 14.9050324,20.3076923 10.2337279,20.3076923 L10.2337279,20.3076923 Z" id="path-1qw"></path>
        <mask id="mask-3" maskContentUnits="userSpaceOnUse" maskUnits="objectBoundingBox" x="-0.764643706" y="-0.764643706" width="23.5292874" height="21.8369797">
            <rect x="-0.764643706" y="-0.764643706" width="23.5292874" height="21.8369797" fill="white"></rect>
            <use xlink:href="#path-1qw" fill="black"></use>
        </mask>
    </defs>
    <g stroke="none" stroke-width="1" fill="none" fill-rule="evenodd">
        <g transform="translate(-589.000000, -732.000000)">
            <g transform="translate(554.000000, 722.000000)">
                <g transform="translate(17.000000, 5.000000)">
                    <g transform="translate(19.000000, 6.000000)">
                        <g>
                            <g transform="translate(0.000000, 0.539694)">
                                <mask id="mask-2" fill="white">
                                    <use xlink:href="#path-1qw"></use>
                                </mask>
                                <g transform="translate(11.000000, 10.153846) scale(-1, 1) translate(-11.000000, -10.153846) ">
                                    <use fill="#FFFFFF" fill-rule="evenodd" xlink:href="#path-1qw"></use>
                                    <use stroke="#FFFFFF" mask="url(#mask-3)" stroke-width="1.52928741" xlink:href="#path-1qw"></use>
                                </g>
                            </g>
                        </g>
                    </g>
                </g>
            </g>
        </g>
    </g>
</svg>