<?xml version="1.0" encoding="UTF-8" standalone="no"?>
<svg width="24px" height="20px" viewBox="0 0 24 20" version="1.1" xmlns="http://www.w3.org/2000/svg" xmlns:xlink="http://www.w3.org/1999/xlink">
    <!-- Generator: Sketch 3.6.1 (26313) - http://www.bohemiancoding.com/sketch -->
    <title>sms</title>
    <desc>Created with Sketch.</desc>
    <defs></defs>
    <g stroke="none" stroke-width="1" fill="none" fill-rule="evenodd">
        <g fill="#231F20">
            <path d="M6.035,19.509 C5.887,19.509 5.738,19.476 5.599,19.409 C5.253,19.241 5.035,18.892 5.035,18.509 L5.035,15.759 L2.783,15.759 C1.681,15.759 0.783,14.862 0.783,13.759 L0.783,2.509 C0.783,1.406 1.681,0.509 2.783,0.509 L21.033,0.509 C22.137,0.509 23.033,1.406 23.033,2.509 L23.033,13.759 C23.033,14.862 22.137,15.759 21.033,15.759 L11.129,15.759 L6.656,19.293 C6.477,19.436 6.256,19.509 6.035,19.509 L6.035,19.509 L6.035,19.509 Z M2.783,2.509 L2.783,13.759 L6.035,13.759 C6.588,13.759 7.035,14.206 7.035,14.759 L7.035,16.445 L10.162,13.975 C10.338,13.835 10.557,13.759 10.781,13.759 L21.033,13.759 L21.033,2.509 L2.783,2.509 L2.783,2.509 L2.783,2.509 Z" ></path>
            <path d="M17.783,7.009 L6.533,7.009 C6.258,7.009 6.033,6.785 6.033,6.509 C6.033,6.233 6.258,6.009 6.533,6.009 L17.783,6.009 C18.06,6.009 18.283,6.233 18.283,6.509 C18.283,6.785 18.061,7.009 17.783,7.009 L17.783,7.009 L17.783,7.009 Z" ></path>
            <path d="M17.783,10.093 L6.533,10.093 C6.258,10.093 6.033,9.869 6.033,9.593 C6.033,9.317 6.258,9.093 6.533,9.093 L17.783,9.093 C18.06,9.093 18.283,9.317 18.283,9.593 C18.283,9.869 18.061,10.093 17.783,10.093 L17.783,10.093 L17.783,10.093 Z" ></path>
        </g>
    </g>
</svg>