<?xml version="1.0" encoding="UTF-8" standalone="no"?>
<svg width="10px" height="11px" viewBox="0 0 10 11" version="1.1" xmlns="http://www.w3.org/2000/svg" xmlns:xlink="http://www.w3.org/1999/xlink">
    <!-- Generator: Sketch 3.6.1 (26313) - http://www.bohemiancoding.com/sketch -->
    <title>sort</title>
    <desc>Created with Sketch.</desc>
    <defs></defs>
    <g stroke="none" stroke-width="1" fill="none" fill-rule="evenodd">
        <g fill="#231F20">
            <path d="M8.77,4.994 C8.514,4.994 8.258,5.092 8.063,5.287 L4.899,8.448 L1.735,5.287 C1.344,4.896 0.712,4.896 0.321,5.287 C-0.07,5.678 -0.07,6.311 0.321,6.701 L4.192,10.568 C4.583,10.959 5.215,10.959 5.606,10.568 L9.477,6.701 C9.868,6.311 9.868,5.678 9.477,5.287 C9.281,5.092 9.025,4.994 8.77,4.994 L8.77,4.994 L8.77,4.994 Z" ></path>
            <path d="M4.898,0.875 C4.345,0.875 3.898,1.322 3.898,1.875 L3.898,8.809 C3.898,9.362 4.345,9.809 4.898,9.809 C5.451,9.809 5.898,9.362 5.898,8.809 L5.898,1.875 C5.898,1.322 5.451,0.875 4.898,0.875 L4.898,0.875 L4.898,0.875 Z" ></path>
        </g>
    </g>
</svg>