<svg xmlns="http://www.w3.org/2000/svg" width="24" height="24" viewBox="0 0 24 24">
    <g fill="none" fill-rule="evenodd">
        <path stroke="#4E5366" stroke-width="2" d="M15.38 2.879a6.94 6.94 0 0 1 1.028.2c1.058.289 2.032.804 2.826 1.599.794.794 1.31 1.768 1.599 2.826.1.365.164.714.2 1.032L9.59 19.996 4 19.95v-5.54L15.38 2.88z"/>
        <path fill="#4E5366" d="M14.556 4.243l5.657 5.656-1.414 1.415-5.657-5.657zM4 13s2.132-.211 4.607 2.263C11.08 17.738 11 20 11 20H9s.667-.847-1.808-3.322C4.718 14.203 4 15 4 15v-2z"/>
    </g>
</svg>
