<?xml version="1.0" encoding="UTF-8"?>
<svg width="18px" height="20px" viewBox="0 0 18 20" version="1.1" xmlns="http://www.w3.org/2000/svg" xmlns:xlink="http://www.w3.org/1999/xlink">
    <!-- Generator: sketchtool 41.1 (35376) - http://www.bohemiancoding.com/sketch -->
    <title>1C8ECBA0-4F83-4455-AD63-D73CBFE533D8</title>
    <desc>Created with sketchtool.</desc>
    <defs></defs>
    <g stroke="none" stroke-width="1" fill="none" fill-rule="evenodd">
        <g transform="translate(-6.000000, -5.000000)" fill="#9EA3B7">
            <g transform="translate(6.000000, 5.000000)">
                <g >
                    <path d="M2.17070571,2 L0.993397683,2 C0.444946289,2 0,2.44771525 0,3 C0,3.55613518 0.444759292,4 0.993397683,4 L2.17070571,4 C2.58254212,5.16519237 3.69378117,6 5,6 C6.30621883,6 7.41745788,5.16519237 7.82929429,4 L17.0066023,4 C17.5550537,4 18,3.55228475 18,3 C18,2.44386482 17.5552407,2 17.0066023,2 L7.82929429,2 C7.41745788,0.834807627 6.30621883,0 5,0 C3.69378117,0 2.58254212,0.834807627 2.17070571,2 Z M5,4 C5.55228475,4 6,3.55228475 6,3 C6,2.44771525 5.55228475,2 5,2 C4.44771525,2 4,2.44771525 4,3 C4,3.55228475 4.44771525,4 5,4 Z" ></path>
                    <path d="M6.17070571,9 L0.993397683,9 C0.444946289,9 0,9.44771525 0,10 C0,10.5561352 0.444759292,11 0.993397683,11 L6.17070571,11 C6.58254212,12.1651924 7.69378117,13 9,13 C10.3062188,13 11.4174579,12.1651924 11.8292943,11 L17.0066023,11 C17.5550537,11 18,10.5522847 18,10 C18,9.44386482 17.5552407,9 17.0066023,9 L11.8292943,9 C11.4174579,7.83480763 10.3062188,7 9,7 C7.69378117,7 6.58254212,7.83480763 6.17070571,9 Z M9,11 C9.55228475,11 10,10.5522847 10,10 C10,9.44771525 9.55228475,9 9,9 C8.44771525,9 8,9.44771525 8,10 C8,10.5522847 8.44771525,11 9,11 Z" ></path>
                    <path d="M10.1707057,16 L0.993397683,16 C0.444946289,16 0,16.4477153 0,17 C0,17.5561352 0.444759292,18 0.993397683,18 L10.1707057,18 C10.5825421,19.1651924 11.6937812,20 13,20 C14.3062188,20 15.4174579,19.1651924 15.8292943,18 L17.0066023,18 C17.5550537,18 18,17.5522847 18,17 C18,16.4438648 17.5552407,16 17.0066023,16 L15.8292943,16 C15.4174579,14.8348076 14.3062188,14 13,14 C11.6937812,14 10.5825421,14.8348076 10.1707057,16 Z M13,18 C13.5522847,18 14,17.5522847 14,17 C14,16.4477153 13.5522847,16 13,16 C12.4477153,16 12,16.4477153 12,17 C12,17.5522847 12.4477153,18 13,18 Z" ></path>
                </g>
            </g>
        </g>
    </g>
</svg>