<?xml version="1.0" encoding="utf-8"?>
<!-- Generator: Adobe Illustrator 15.0.0, SVG Export Plug-In . SVG Version: 6.00 Build 0)  -->
<!DOCTYPE svg PUBLIC "-//W3C//DTD SVG 1.1//EN" "http://www.w3.org/Graphics/SVG/1.1/DTD/svg11.dtd">
<svg version="1.1" xmlns="http://www.w3.org/2000/svg" xmlns:xlink="http://www.w3.org/1999/xlink" x="0px"
	 y="0px" width="26px" height="26px" viewBox="0 0 26 26" enable-background="new 0 0 26 26" xml:space="preserve">
<path d="M13.075,12.315c-2.086,0-3.783-1.889-3.783-4.209s1.697-4.209,3.783-4.209s3.783,1.889,3.783,4.209
	S15.161,12.315,13.075,12.315L13.075,12.315z M13.075,5.897c-0.982,0-1.783,0.99-1.783,2.209s0.801,2.209,1.783,2.209
	c0.984,0,1.783-0.99,1.783-2.209S14.06,5.897,13.075,5.897L13.075,5.897z"/>
<path d="M18.366,22.104H7.647c-0.525,0-0.961-0.404-0.998-0.932c-0.082-1.16-0.16-2.32-0.236-3.463
	c-0.096-1.4,0.951-2.959,2.332-3.471c2.755-0.988,5.777-0.982,8.515-0.002c1.393,0.512,2.438,2.068,2.342,3.477l-0.236,3.459
	C19.327,21.697,18.892,22.104,18.366,22.104L18.366,22.104z M8.579,20.104h8.854l0.172-2.525c0.029-0.428-0.389-1.227-1.027-1.459
	c-2.283-0.82-4.844-0.822-7.146,0.002c-0.629,0.23-1.049,1.031-1.021,1.457C8.464,18.41,8.522,19.256,8.579,20.104L8.579,20.104z"/>
<path d="M18.366,22.104H7.647c-0.525,0-0.961-0.404-0.998-0.932c-0.082-1.16-0.16-2.32-0.236-3.463
	c-0.096-1.4,0.951-2.959,2.332-3.471c2.755-0.988,5.777-0.982,8.515-0.002c1.393,0.512,2.438,2.068,2.342,3.477l-0.236,3.459
	C19.327,21.697,18.892,22.104,18.366,22.104L18.366,22.104z M8.579,20.104h8.854l0.172-2.525c0.029-0.428-0.389-1.227-1.027-1.459
	c-2.283-0.82-4.844-0.822-7.146,0.002c-0.629,0.23-1.049,1.031-1.021,1.457C8.464,18.41,8.522,19.256,8.579,20.104L8.579,20.104z"/>
<path d="M24.851,20.479h-4.268c-0.277,0-0.5-0.225-0.5-0.5s0.223-0.5,0.5-0.5h3.801l0.174-2.52
	c0.037-0.551-0.445-1.379-1.125-1.629c-0.971-0.348-1.99-0.533-3.029-0.551c-0.275-0.006-0.496-0.232-0.492-0.51
	c0.008-0.271,0.229-0.49,0.5-0.49h0.012c1.146,0.02,2.273,0.225,3.352,0.609c1.041,0.383,1.855,1.59,1.783,2.637l-0.205,2.984
	C25.331,20.275,25.114,20.479,24.851,20.479L24.851,20.479z"/>
<path d="M21.567,12.694c-1.473,0-2.672-1.347-2.672-3.002c0-1.653,1.199-3,2.672-3s2.668,1.347,2.668,3
	C24.235,11.348,23.038,12.694,21.567,12.694L21.567,12.694z M21.567,7.692c-0.922,0-1.672,0.897-1.672,2.002
	c0,1.104,0.75,2.002,1.672,2.002c0.92,0,1.668-0.898,1.668-2.002C23.235,8.589,22.487,7.692,21.567,7.692L21.567,7.692z"/>
<path d="M5.415,20.479H1.145c-0.262,0-0.479-0.201-0.498-0.467l-0.205-2.986c-0.071-1.047,0.742-2.254,1.779-2.635
	c1.08-0.387,2.207-0.592,3.354-0.611c0.289,0.039,0.504,0.217,0.51,0.492c0.005,0.275-0.215,0.504-0.491,0.508
	c-1.039,0.02-2.06,0.203-3.031,0.555c-0.678,0.248-1.159,1.078-1.123,1.625l0.173,2.521h3.803c0.276,0,0.5,0.225,0.5,0.5
	S5.692,20.479,5.415,20.479L5.415,20.479z"/>
<path d="M4.431,12.694c-1.471,0-2.668-1.347-2.668-3.002c0-1.653,1.197-3,2.668-3c1.473,0,2.672,1.347,2.672,3
	C7.103,11.348,5.903,12.694,4.431,12.694L4.431,12.694z M4.431,7.692c-0.92,0-1.668,0.897-1.668,2.002
	c0,1.104,0.748,2.002,1.668,2.002c0.922,0,1.672-0.898,1.672-2.002C6.103,8.589,5.353,7.692,4.431,7.692L4.431,7.692z"/>
</svg>
